%FSLAX34Y34*%
%MOMM*%
%LNSILK_TOP*%
G71*
G01*
%ADD10C, 1.60*%
%ADD11C, 1.20*%
%ADD12C, 1.50*%
%ADD13C, 1.30*%
%ADD14C, 1.60*%
%ADD15C, 1.95*%
%ADD16C, 0.30*%
%ADD17C, 1.00*%
%ADD18C, 1.80*%
%ADD19C, 6.75*%
%ADD20C, 1.20*%
%ADD21C, 0.00*%
%ADD22C, 1.80*%
%ADD23C, 1.90*%
%ADD24C, 0.05*%
%LPD*%
X1568381Y322976D02*
G54D10*
D03*
X1542981Y322976D02*
G54D10*
D03*
X1517581Y322976D02*
G54D10*
D03*
X1492181Y322976D02*
G54D10*
D03*
X1568381Y170576D02*
G54D10*
D03*
X1542981Y170576D02*
G54D10*
D03*
X1517581Y170576D02*
G54D10*
D03*
X1492181Y170576D02*
G54D10*
D03*
X1466781Y322976D02*
G54D10*
D03*
X1466781Y170576D02*
G54D10*
D03*
X1441381Y322976D02*
G54D10*
D03*
X1415981Y322976D02*
G54D10*
D03*
X1441381Y170576D02*
G54D10*
D03*
X1415981Y170576D02*
G54D10*
D03*
X1390581Y322976D02*
G54D10*
D03*
X1390581Y170576D02*
G54D10*
D03*
X1365181Y322976D02*
G54D10*
D03*
X1365181Y170576D02*
G54D10*
D03*
X1339781Y322976D02*
G54D10*
D03*
X1339781Y170576D02*
G54D10*
D03*
X1314381Y170576D02*
G54D10*
D03*
X1288981Y170576D02*
G54D10*
D03*
X1314381Y322976D02*
G54D10*
D03*
X1288981Y322976D02*
G54D10*
D03*
X1263581Y322976D02*
G54D10*
D03*
X1238181Y322976D02*
G54D10*
D03*
X1263581Y170576D02*
G54D10*
D03*
X1238181Y170576D02*
G54D10*
D03*
X1212781Y170576D02*
G54D10*
D03*
X1187381Y170576D02*
G54D10*
D03*
X1161981Y170576D02*
G54D10*
D03*
X1136581Y170576D02*
G54D10*
D03*
X1111181Y170576D02*
G54D10*
D03*
X1085781Y170576D02*
G54D10*
D03*
X1212781Y322976D02*
G54D10*
D03*
X1187381Y322976D02*
G54D10*
D03*
X1161981Y322976D02*
G54D10*
D03*
X1136581Y322976D02*
G54D10*
D03*
X1111181Y322976D02*
G54D10*
D03*
X1085781Y322976D02*
G54D10*
D03*
X414258Y-81687D02*
G54D10*
D03*
X439659Y-81687D02*
G54D10*
D03*
X465059Y-81687D02*
G54D10*
D03*
X490459Y-81687D02*
G54D10*
D03*
X414258Y70713D02*
G54D10*
D03*
X439658Y70713D02*
G54D10*
D03*
X465058Y70713D02*
G54D10*
D03*
X490459Y70713D02*
G54D10*
D03*
X515858Y-81687D02*
G54D10*
D03*
X515859Y70713D02*
G54D10*
D03*
X541258Y-81687D02*
G54D10*
D03*
X566658Y-81687D02*
G54D10*
D03*
X541258Y70713D02*
G54D10*
D03*
X566658Y70713D02*
G54D10*
D03*
X592058Y-81687D02*
G54D10*
D03*
X592059Y70713D02*
G54D10*
D03*
X617458Y-81687D02*
G54D10*
D03*
X617458Y70713D02*
G54D10*
D03*
X642859Y-81687D02*
G54D10*
D03*
X642859Y70713D02*
G54D10*
D03*
X668258Y70713D02*
G54D10*
D03*
X693658Y70713D02*
G54D10*
D03*
X668258Y-81687D02*
G54D10*
D03*
X693658Y-81687D02*
G54D10*
D03*
X719059Y-81687D02*
G54D10*
D03*
X744458Y-81687D02*
G54D10*
D03*
X719058Y70713D02*
G54D10*
D03*
X744458Y70713D02*
G54D10*
D03*
X573091Y-518321D02*
G54D11*
D03*
X423069Y-498475D02*
G54D11*
D03*
X465931Y-499269D02*
G54D11*
D03*
X461962Y-544512D02*
G54D11*
D03*
X2277269Y-202406D02*
G54D11*
D03*
X416639Y827156D02*
G54D10*
D03*
X442039Y827156D02*
G54D10*
D03*
X467439Y827156D02*
G54D10*
D03*
X492839Y827156D02*
G54D10*
D03*
X416639Y903356D02*
G54D10*
D03*
X442039Y903356D02*
G54D10*
D03*
X467439Y903356D02*
G54D10*
D03*
X492839Y903356D02*
G54D10*
D03*
X518239Y827156D02*
G54D10*
D03*
X518239Y903356D02*
G54D10*
D03*
X543639Y827156D02*
G54D10*
D03*
X569039Y827156D02*
G54D10*
D03*
X543639Y903356D02*
G54D10*
D03*
X569039Y903356D02*
G54D10*
D03*
X594439Y827156D02*
G54D10*
D03*
X594439Y903356D02*
G54D10*
D03*
X415845Y687456D02*
G54D10*
D03*
X441245Y687456D02*
G54D10*
D03*
X466645Y687456D02*
G54D10*
D03*
X492045Y687456D02*
G54D10*
D03*
X415845Y763656D02*
G54D10*
D03*
X441245Y763656D02*
G54D10*
D03*
X466645Y763656D02*
G54D10*
D03*
X492045Y763656D02*
G54D10*
D03*
X517445Y687456D02*
G54D10*
D03*
X517445Y763656D02*
G54D10*
D03*
X542845Y687456D02*
G54D10*
D03*
X568245Y687456D02*
G54D10*
D03*
X542845Y763656D02*
G54D10*
D03*
X568245Y763656D02*
G54D10*
D03*
X593645Y687456D02*
G54D10*
D03*
X593645Y763656D02*
G54D10*
D03*
X415052Y547756D02*
G54D10*
D03*
X440452Y547756D02*
G54D10*
D03*
X465852Y547756D02*
G54D10*
D03*
X491252Y547756D02*
G54D10*
D03*
X415052Y623956D02*
G54D10*
D03*
X440452Y623956D02*
G54D10*
D03*
X465852Y623956D02*
G54D10*
D03*
X491252Y623956D02*
G54D10*
D03*
X516652Y547756D02*
G54D10*
D03*
X516652Y623956D02*
G54D10*
D03*
X542052Y547756D02*
G54D10*
D03*
X567452Y547756D02*
G54D10*
D03*
X542052Y623956D02*
G54D10*
D03*
X567452Y623956D02*
G54D10*
D03*
X592852Y547756D02*
G54D10*
D03*
X592852Y623956D02*
G54D10*
D03*
X415845Y409643D02*
G54D10*
D03*
X441245Y409643D02*
G54D10*
D03*
X466645Y409643D02*
G54D10*
D03*
X492045Y409643D02*
G54D10*
D03*
X415845Y485843D02*
G54D10*
D03*
X441245Y485843D02*
G54D10*
D03*
X466645Y485843D02*
G54D10*
D03*
X492045Y485843D02*
G54D10*
D03*
X517445Y409643D02*
G54D10*
D03*
X517445Y485843D02*
G54D10*
D03*
X542845Y409643D02*
G54D10*
D03*
X568245Y409643D02*
G54D10*
D03*
X542845Y485843D02*
G54D10*
D03*
X568245Y485843D02*
G54D10*
D03*
X593645Y409643D02*
G54D10*
D03*
X593645Y485843D02*
G54D10*
D03*
X715089Y410437D02*
G54D10*
D03*
X740489Y410437D02*
G54D10*
D03*
X765889Y410437D02*
G54D10*
D03*
X791289Y410437D02*
G54D10*
D03*
X715089Y486637D02*
G54D10*
D03*
X740489Y486637D02*
G54D10*
D03*
X765889Y486637D02*
G54D10*
D03*
X791289Y486637D02*
G54D10*
D03*
X816689Y410437D02*
G54D10*
D03*
X816689Y486637D02*
G54D10*
D03*
X842089Y410437D02*
G54D10*
D03*
X867489Y410437D02*
G54D10*
D03*
X842089Y486637D02*
G54D10*
D03*
X867489Y486637D02*
G54D10*
D03*
X892889Y410437D02*
G54D10*
D03*
X892889Y486637D02*
G54D10*
D03*
X715089Y549343D02*
G54D10*
D03*
X740489Y549343D02*
G54D10*
D03*
X765889Y549343D02*
G54D10*
D03*
X791289Y549343D02*
G54D10*
D03*
X715089Y625543D02*
G54D10*
D03*
X740489Y625543D02*
G54D10*
D03*
X765889Y625543D02*
G54D10*
D03*
X791289Y625543D02*
G54D10*
D03*
X816689Y549343D02*
G54D10*
D03*
X816689Y625543D02*
G54D10*
D03*
X842089Y549343D02*
G54D10*
D03*
X867489Y549343D02*
G54D10*
D03*
X842089Y625543D02*
G54D10*
D03*
X867489Y625543D02*
G54D10*
D03*
X892889Y549343D02*
G54D10*
D03*
X892889Y625543D02*
G54D10*
D03*
X715883Y687456D02*
G54D10*
D03*
X741283Y687456D02*
G54D10*
D03*
X766683Y687456D02*
G54D10*
D03*
X792083Y687456D02*
G54D10*
D03*
X715883Y763656D02*
G54D10*
D03*
X741283Y763656D02*
G54D10*
D03*
X766683Y763656D02*
G54D10*
D03*
X792083Y763656D02*
G54D10*
D03*
X817483Y687456D02*
G54D10*
D03*
X817483Y763656D02*
G54D10*
D03*
X842883Y687456D02*
G54D10*
D03*
X868283Y687456D02*
G54D10*
D03*
X842883Y763656D02*
G54D10*
D03*
X868283Y763656D02*
G54D10*
D03*
X893683Y687456D02*
G54D10*
D03*
X893683Y763656D02*
G54D10*
D03*
X715883Y827156D02*
G54D10*
D03*
X741283Y827156D02*
G54D10*
D03*
X766683Y827156D02*
G54D10*
D03*
X792083Y827156D02*
G54D10*
D03*
X715883Y903356D02*
G54D10*
D03*
X741283Y903356D02*
G54D10*
D03*
X766683Y903356D02*
G54D10*
D03*
X792083Y903356D02*
G54D10*
D03*
X817483Y827156D02*
G54D10*
D03*
X817483Y903356D02*
G54D10*
D03*
X842883Y827156D02*
G54D10*
D03*
X868283Y827156D02*
G54D10*
D03*
X842883Y903356D02*
G54D10*
D03*
X868283Y903356D02*
G54D10*
D03*
X893683Y827156D02*
G54D10*
D03*
X893683Y903356D02*
G54D10*
D03*
X665083Y132624D02*
G54D10*
D03*
X690483Y132624D02*
G54D10*
D03*
X715883Y132624D02*
G54D10*
D03*
X741283Y132624D02*
G54D10*
D03*
X665083Y208824D02*
G54D10*
D03*
X690483Y208824D02*
G54D10*
D03*
X715883Y208824D02*
G54D10*
D03*
X741283Y208824D02*
G54D10*
D03*
X766683Y132624D02*
G54D10*
D03*
X766683Y208824D02*
G54D10*
D03*
X792083Y132624D02*
G54D10*
D03*
X817483Y132624D02*
G54D10*
D03*
X792083Y208824D02*
G54D10*
D03*
X817483Y208824D02*
G54D10*
D03*
X842883Y132624D02*
G54D10*
D03*
X842883Y208824D02*
G54D10*
D03*
X415052Y133418D02*
G54D10*
D03*
X440452Y133418D02*
G54D10*
D03*
X465852Y133418D02*
G54D10*
D03*
X491252Y133418D02*
G54D10*
D03*
X415052Y209618D02*
G54D10*
D03*
X440452Y209618D02*
G54D10*
D03*
X465852Y209618D02*
G54D10*
D03*
X491252Y209618D02*
G54D10*
D03*
X516652Y133418D02*
G54D10*
D03*
X516652Y209618D02*
G54D10*
D03*
X542052Y133418D02*
G54D10*
D03*
X567452Y133418D02*
G54D10*
D03*
X542052Y209618D02*
G54D10*
D03*
X567452Y209618D02*
G54D10*
D03*
X592852Y133418D02*
G54D10*
D03*
X592852Y209618D02*
G54D10*
D03*
X415845Y270738D02*
G54D10*
D03*
X441245Y270738D02*
G54D10*
D03*
X466645Y270738D02*
G54D10*
D03*
X492045Y270738D02*
G54D10*
D03*
X415845Y346938D02*
G54D10*
D03*
X441245Y346938D02*
G54D10*
D03*
X466645Y346938D02*
G54D10*
D03*
X492045Y346938D02*
G54D10*
D03*
X517445Y270738D02*
G54D10*
D03*
X517445Y346938D02*
G54D10*
D03*
X542845Y270738D02*
G54D10*
D03*
X568245Y270738D02*
G54D10*
D03*
X542845Y346938D02*
G54D10*
D03*
X568245Y346938D02*
G54D10*
D03*
X664290Y270738D02*
G54D10*
D03*
X689690Y270738D02*
G54D10*
D03*
X715090Y270738D02*
G54D10*
D03*
X740490Y270738D02*
G54D10*
D03*
X664290Y346938D02*
G54D10*
D03*
X689690Y346938D02*
G54D10*
D03*
X715090Y346938D02*
G54D10*
D03*
X740490Y346938D02*
G54D10*
D03*
X1034177Y-420620D02*
G54D10*
D03*
X1059577Y-420620D02*
G54D10*
D03*
X1084977Y-420620D02*
G54D10*
D03*
X1110377Y-420620D02*
G54D10*
D03*
X1034177Y-344419D02*
G54D10*
D03*
X1059577Y-344420D02*
G54D10*
D03*
X1084977Y-344420D02*
G54D10*
D03*
X1110377Y-344420D02*
G54D10*
D03*
X1135777Y-420620D02*
G54D10*
D03*
X1135777Y-344420D02*
G54D10*
D03*
X1161177Y-420620D02*
G54D10*
D03*
X1186577Y-420620D02*
G54D10*
D03*
X1161177Y-344420D02*
G54D10*
D03*
X1186577Y-344420D02*
G54D10*
D03*
X1211977Y-420620D02*
G54D10*
D03*
X1211977Y-344420D02*
G54D10*
D03*
X1237377Y-420620D02*
G54D10*
D03*
X1237377Y-344420D02*
G54D10*
D03*
X1262777Y-420620D02*
G54D10*
D03*
X1262777Y-344419D02*
G54D10*
D03*
X1034177Y-282507D02*
G54D10*
D03*
X1059577Y-282507D02*
G54D10*
D03*
X1084977Y-282507D02*
G54D10*
D03*
X1110377Y-282507D02*
G54D10*
D03*
X1034177Y-206307D02*
G54D10*
D03*
X1059577Y-206307D02*
G54D10*
D03*
X1084977Y-206307D02*
G54D10*
D03*
X1110377Y-206307D02*
G54D10*
D03*
X1135777Y-282507D02*
G54D10*
D03*
X1135777Y-206307D02*
G54D10*
D03*
X1161177Y-282507D02*
G54D10*
D03*
X1186577Y-282507D02*
G54D10*
D03*
X1161177Y-206307D02*
G54D10*
D03*
X1186577Y-206307D02*
G54D10*
D03*
X1211977Y-282507D02*
G54D10*
D03*
X1211977Y-206307D02*
G54D10*
D03*
X1237377Y-282507D02*
G54D10*
D03*
X1237377Y-206307D02*
G54D10*
D03*
X1262777Y-282507D02*
G54D10*
D03*
X1262777Y-206307D02*
G54D10*
D03*
X1034177Y-282507D02*
G54D10*
D03*
X1059577Y-282507D02*
G54D10*
D03*
X1084977Y-282507D02*
G54D10*
D03*
X1110377Y-282507D02*
G54D10*
D03*
X1034177Y-206307D02*
G54D10*
D03*
X1059577Y-206307D02*
G54D10*
D03*
X1084977Y-206307D02*
G54D10*
D03*
X1110377Y-206307D02*
G54D10*
D03*
X1135777Y-282507D02*
G54D10*
D03*
X1135777Y-206307D02*
G54D10*
D03*
X1161177Y-282507D02*
G54D10*
D03*
X1186577Y-282507D02*
G54D10*
D03*
X1161177Y-206307D02*
G54D10*
D03*
X1186577Y-206307D02*
G54D10*
D03*
X1211977Y-282507D02*
G54D10*
D03*
X1211977Y-206307D02*
G54D10*
D03*
X1237377Y-282507D02*
G54D10*
D03*
X1237377Y-206307D02*
G54D10*
D03*
X1262777Y-282507D02*
G54D10*
D03*
X1262777Y-206307D02*
G54D10*
D03*
X1034177Y-144394D02*
G54D10*
D03*
X1059577Y-144394D02*
G54D10*
D03*
X1084977Y-144394D02*
G54D10*
D03*
X1110377Y-144394D02*
G54D10*
D03*
X1034177Y-68194D02*
G54D10*
D03*
X1059577Y-68195D02*
G54D10*
D03*
X1084977Y-68195D02*
G54D10*
D03*
X1110377Y-68195D02*
G54D10*
D03*
X1135777Y-144395D02*
G54D10*
D03*
X1135777Y-68194D02*
G54D10*
D03*
X1161177Y-144394D02*
G54D10*
D03*
X1186577Y-144394D02*
G54D10*
D03*
X1161177Y-68194D02*
G54D10*
D03*
X1186577Y-68195D02*
G54D10*
D03*
X1211977Y-144394D02*
G54D10*
D03*
X1211977Y-68195D02*
G54D10*
D03*
X1237377Y-144394D02*
G54D10*
D03*
X1237377Y-68195D02*
G54D10*
D03*
X1262777Y-144394D02*
G54D10*
D03*
X1262777Y-68194D02*
G54D10*
D03*
X982660Y887410D02*
G54D12*
D03*
X958850Y858838D02*
G54D12*
D03*
X977900Y858838D02*
G54D12*
D03*
X1002506Y839788D02*
G54D12*
D03*
X995362Y822325D02*
G54D12*
D03*
X1139031Y854075D02*
G54D13*
D03*
X1189831Y854869D02*
G54D13*
D03*
X1005681Y935831D02*
G54D13*
D03*
X994569Y919956D02*
G54D13*
D03*
G36*
X931638Y912244D02*
X951138Y912244D01*
X951138Y892744D01*
X931638Y892744D01*
X931638Y912244D01*
G37*
G36*
X955450Y912244D02*
X974950Y912244D01*
X974950Y892744D01*
X955450Y892744D01*
X955450Y912244D01*
G37*
X933450Y764381D02*
G54D13*
D03*
X987425Y728662D02*
G54D13*
D03*
X981869Y710406D02*
G54D13*
D03*
X660400Y686594D02*
G54D14*
D03*
X636588Y623888D02*
G54D14*
D03*
X615950Y649288D02*
G54D14*
D03*
X715962Y654844D02*
G54D15*
D03*
X763588Y654844D02*
G54D15*
D03*
X637381Y763588D02*
G54D14*
D03*
X640556Y826294D02*
G54D14*
D03*
X691356Y827088D02*
G54D14*
D03*
X766762Y934244D02*
G54D14*
D03*
X716756Y934244D02*
G54D14*
D03*
X676275Y935038D02*
G54D14*
D03*
X690562Y902494D02*
G54D14*
D03*
X641350Y902494D02*
G54D14*
D03*
X954881Y811212D02*
G54D14*
D03*
X661988Y549275D02*
G54D14*
D03*
X636588Y485775D02*
G54D14*
D03*
X593725Y455612D02*
G54D14*
D03*
X638175Y442119D02*
G54D14*
D03*
X689769Y442119D02*
G54D14*
D03*
X931069Y498475D02*
G54D14*
D03*
X376238Y548481D02*
G54D14*
D03*
X416719Y654844D02*
G54D14*
D03*
X377825Y688181D02*
G54D14*
D03*
X404812Y800100D02*
G54D14*
D03*
X341312Y775494D02*
G54D14*
D03*
X355600Y800894D02*
G54D14*
D03*
X253206Y842169D02*
G54D14*
D03*
X254794Y773112D02*
G54D14*
D03*
X343694Y932656D02*
G54D14*
D03*
X467519Y931069D02*
G54D14*
D03*
X418306Y931862D02*
G54D14*
D03*
X465931Y653256D02*
G54D14*
D03*
G54D16*
X567452Y547756D02*
X568257Y547756D01*
X583406Y532606D01*
X615950Y532606D01*
X642938Y502444D01*
X819796Y504031D01*
X863600Y542131D01*
X867489Y549343D01*
G54D16*
X542052Y547756D02*
X542052Y554752D01*
X553244Y565944D01*
X598488Y565944D01*
X648494Y508794D01*
X801540Y511175D01*
X838200Y542131D01*
X842089Y549343D01*
G54D16*
X516652Y547756D02*
X516652Y552370D01*
X537369Y573088D01*
X601662Y573088D01*
X650875Y515938D01*
X784077Y517525D01*
X812006Y542131D01*
X816689Y549343D01*
G54D16*
X491252Y547756D02*
X491252Y556339D01*
X515144Y580231D01*
X605631Y580231D01*
X654050Y524669D01*
X768996Y524669D01*
X785812Y541338D01*
X791289Y549343D01*
G54D16*
X465852Y547756D02*
X465852Y555546D01*
X497681Y587375D01*
X608806Y588169D01*
X656431Y533400D01*
X755502Y533400D01*
X763588Y541338D01*
X765889Y549343D01*
G54D17*
X661988Y549275D02*
X715021Y549275D01*
X715089Y549343D01*
G54D17*
X592852Y623956D02*
X636519Y623956D01*
X636588Y623888D01*
G54D17*
X715883Y687456D02*
X661262Y687456D01*
X660400Y686594D01*
G54D17*
X465931Y653256D02*
X611981Y653256D01*
X615950Y649288D01*
G54D17*
X377825Y688181D02*
X415120Y688181D01*
X415845Y687456D01*
G54D17*
X376238Y548481D02*
X414326Y548481D01*
X415052Y547756D01*
G54D16*
X441245Y687456D02*
X441245Y693658D01*
X461962Y714375D01*
X679450Y714375D01*
X691356Y728662D01*
X987425Y728662D01*
G54D16*
X741283Y687456D02*
X741283Y691277D01*
X762794Y712788D01*
X979488Y712788D01*
X981869Y710406D01*
G54D16*
X492045Y763656D02*
X492057Y763656D01*
X530225Y725488D01*
X669131Y725488D01*
X706438Y782638D01*
X777875Y782638D01*
X788194Y772319D01*
X788194Y767545D01*
X792083Y763656D01*
G54D16*
X517445Y763656D02*
X517445Y762080D01*
X546894Y732631D01*
X664369Y732631D01*
X702469Y790575D01*
X796925Y790575D01*
X814388Y773112D01*
X814388Y766751D01*
X817483Y763656D01*
X976312Y593725D02*
G54D13*
D03*
X966788Y561181D02*
G54D13*
D03*
G54D16*
X740489Y549343D02*
X740489Y556339D01*
X770731Y586581D01*
X941388Y586581D01*
X966788Y561181D01*
G54D16*
X465852Y623956D02*
X465863Y623956D01*
X490538Y599281D01*
X957262Y599281D01*
X964406Y592138D01*
X974725Y592138D01*
X976312Y593725D01*
G54D16*
X792083Y827156D02*
X792231Y827156D01*
X796925Y835025D01*
X807244Y842169D01*
X908050Y842169D01*
X922338Y823912D01*
X942181Y823912D01*
X954881Y811212D01*
G54D16*
X741283Y827156D02*
X741283Y830977D01*
X758825Y848519D01*
X913606Y848519D01*
X925512Y832644D01*
X985044Y832644D01*
X995362Y822325D01*
G54D16*
X442039Y827156D02*
X442039Y831770D01*
X453231Y842962D01*
X743744Y842962D01*
X756444Y855662D01*
X917575Y855662D01*
X930275Y839788D01*
X1002506Y839788D01*
X678656Y858838D02*
G54D14*
D03*
G54D16*
X678656Y858838D02*
X680244Y858838D01*
X687388Y851694D01*
X738981Y851694D01*
X750094Y862806D01*
X922338Y862806D01*
X936625Y846138D01*
X987425Y846138D01*
X996156Y853281D01*
X1008062Y853281D01*
X1011238Y850900D01*
X1135856Y850900D01*
X1139031Y854075D01*
G54D16*
X569039Y903356D02*
X569039Y908764D01*
X581025Y920750D01*
X650875Y920750D01*
X683419Y888206D01*
X857102Y888206D01*
X868283Y903356D01*
G54D16*
X741283Y903356D02*
X741283Y904795D01*
X754062Y917575D01*
X783431Y917575D01*
X800100Y929481D01*
X985838Y929481D01*
X992188Y935831D01*
X1005681Y935831D01*
G54D16*
X994569Y919956D02*
X800100Y919956D01*
X792162Y912019D01*
X792162Y903435D01*
X792083Y903356D01*
X911225Y654844D02*
G54D13*
D03*
X933450Y624681D02*
G54D13*
D03*
G54D17*
X893683Y763656D02*
X932724Y763656D01*
X933450Y764381D01*
G54D17*
X892889Y625543D02*
X932588Y625543D01*
X933450Y624681D01*
G54D17*
X763588Y654844D02*
X911225Y654844D01*
X466725Y319881D02*
G54D13*
D03*
X488156Y304800D02*
G54D13*
D03*
X514350Y320675D02*
G54D13*
D03*
X382588Y230188D02*
G54D13*
D03*
X436562Y230188D02*
G54D13*
D03*
X626269Y241300D02*
G54D13*
D03*
X628650Y216694D02*
G54D13*
D03*
X778669Y166688D02*
G54D13*
D03*
X889794Y188912D02*
G54D13*
D03*
X815975Y246062D02*
G54D13*
D03*
X956469Y234950D02*
G54D13*
D03*
X797719Y327819D02*
G54D13*
D03*
X767556Y301625D02*
G54D13*
D03*
X752475Y288925D02*
G54D13*
D03*
X596106Y295275D02*
G54D13*
D03*
X368300Y198438D02*
G54D13*
D03*
X352425Y182562D02*
G54D13*
D03*
X386556Y163512D02*
G54D13*
D03*
X365125Y144462D02*
G54D13*
D03*
X275431Y97631D02*
G54D13*
D03*
X281781Y120650D02*
G54D13*
D03*
X356394Y30956D02*
G54D13*
D03*
X431800Y50006D02*
G54D13*
D03*
X453231Y42862D02*
G54D13*
D03*
X475456Y25400D02*
G54D13*
D03*
X504825Y33338D02*
G54D13*
D03*
X530225Y21431D02*
G54D13*
D03*
X554831Y18256D02*
G54D13*
D03*
X392112Y-34925D02*
G54D13*
D03*
X392112Y-56356D02*
G54D13*
D03*
X604838Y23812D02*
G54D13*
D03*
X627856Y28575D02*
G54D13*
D03*
X783431Y6350D02*
G54D13*
D03*
X732631Y15875D02*
G54D13*
D03*
X706438Y10319D02*
G54D13*
D03*
X680244Y1588D02*
G54D13*
D03*
X657225Y-21431D02*
G54D13*
D03*
X619125Y-50006D02*
G54D13*
D03*
X604838Y-63500D02*
G54D13*
D03*
X504825Y-102394D02*
G54D13*
D03*
X911225Y11112D02*
G54D13*
D03*
X896938Y-3175D02*
G54D13*
D03*
X871538Y-11112D02*
G54D13*
D03*
X921544Y-17462D02*
G54D13*
D03*
X933450Y-30956D02*
G54D13*
D03*
X908844Y-42069D02*
G54D13*
D03*
X889794Y-49212D02*
G54D13*
D03*
X865188Y-58738D02*
G54D13*
D03*
X881856Y-76200D02*
G54D13*
D03*
X807244Y-97631D02*
G54D13*
D03*
X869156Y-117475D02*
G54D13*
D03*
X478631Y-274638D02*
G54D13*
D03*
X505619Y-274638D02*
G54D13*
D03*
X529431Y-275431D02*
G54D13*
D03*
X555625Y-275431D02*
G54D13*
D03*
X629444Y-228600D02*
G54D13*
D03*
X653256Y-230188D02*
G54D13*
D03*
X678656Y-219869D02*
G54D13*
D03*
X678656Y-238125D02*
G54D13*
D03*
X704056Y-230188D02*
G54D13*
D03*
X706438Y-250825D02*
G54D13*
D03*
X788988Y-212725D02*
G54D13*
D03*
X824706Y-199231D02*
G54D13*
D03*
X838200Y-223044D02*
G54D13*
D03*
X827088Y-258762D02*
G54D13*
D03*
X455612Y-404812D02*
G54D13*
D03*
X338931Y-347662D02*
G54D13*
D03*
X402431Y-330994D02*
G54D13*
D03*
X418306Y-318294D02*
G54D13*
D03*
X582612Y-315912D02*
G54D13*
D03*
X600869Y-368300D02*
G54D13*
D03*
X614362Y-345281D02*
G54D13*
D03*
X631825Y-314325D02*
G54D13*
D03*
X693738Y-335756D02*
G54D13*
D03*
X722312Y-344488D02*
G54D13*
D03*
X748506Y-350044D02*
G54D13*
D03*
X784225Y-390525D02*
G54D13*
D03*
X905669Y-280988D02*
G54D13*
D03*
X945356Y-268288D02*
G54D13*
D03*
X923925Y-254000D02*
G54D13*
D03*
X975519Y-213519D02*
G54D13*
D03*
X964406Y-197644D02*
G54D13*
D03*
X963612Y-354806D02*
G54D13*
D03*
X1015206Y-179388D02*
G54D13*
D03*
X989806Y-138906D02*
G54D13*
D03*
X935831Y-154781D02*
G54D13*
D03*
X953294Y-173038D02*
G54D13*
D03*
X875506Y-183356D02*
G54D13*
D03*
X886619Y-554831D02*
G54D13*
D03*
X912812Y-549275D02*
G54D13*
D03*
X1032669Y-549275D02*
G54D13*
D03*
X1052512Y-511175D02*
G54D13*
D03*
X1019175Y-403225D02*
G54D13*
D03*
X1003300Y-392906D02*
G54D13*
D03*
X988219Y-416719D02*
G54D13*
D03*
X1082675Y-373856D02*
G54D13*
D03*
X1137444Y-393700D02*
G54D13*
D03*
X1217612Y-384969D02*
G54D13*
D03*
X1293019Y-398462D02*
G54D13*
D03*
X1319212Y-311150D02*
G54D13*
D03*
X1296988Y-287338D02*
G54D13*
D03*
X1262856Y-315119D02*
G54D13*
D03*
X1224756Y-301625D02*
G54D13*
D03*
X1289050Y-240506D02*
G54D13*
D03*
X1315244Y-239712D02*
G54D13*
D03*
X1312862Y-221456D02*
G54D13*
D03*
X1339056Y-227806D02*
G54D13*
D03*
X1423194Y-252412D02*
G54D13*
D03*
X1439069Y-260350D02*
G54D13*
D03*
X1447800Y-233362D02*
G54D13*
D03*
X1473200Y-233362D02*
G54D13*
D03*
X1482725Y-248444D02*
G54D13*
D03*
X1472406Y-264319D02*
G54D13*
D03*
X1550194Y-253206D02*
G54D13*
D03*
X1525588Y-163512D02*
G54D13*
D03*
X1366044Y-123031D02*
G54D13*
D03*
X1410494Y-113506D02*
G54D13*
D03*
X1434306Y-114300D02*
G54D13*
D03*
X1397794Y-87312D02*
G54D13*
D03*
X1543844Y-108744D02*
G54D13*
D03*
X1561306Y-94456D02*
G54D13*
D03*
X1588294Y-89694D02*
G54D13*
D03*
X1235869Y28575D02*
G54D13*
D03*
X1250950Y50800D02*
G54D13*
D03*
X1138238Y46038D02*
G54D13*
D03*
X1246188Y13494D02*
G54D13*
D03*
X1343819Y43656D02*
G54D13*
D03*
X577056Y370681D02*
G54D18*
D03*
X527050Y371475D02*
G54D18*
D03*
X619919Y370681D02*
G54D18*
D03*
X619125Y346869D02*
G54D18*
D03*
X764381Y346075D02*
G54D18*
D03*
X765175Y370681D02*
G54D18*
D03*
X743744Y369888D02*
G54D18*
D03*
X639762Y395288D02*
G54D18*
D03*
X661194Y410369D02*
G54D18*
D03*
X465138Y381794D02*
G54D18*
D03*
X692944Y391319D02*
G54D18*
D03*
X415925Y375444D02*
G54D18*
D03*
X385762Y296862D02*
G54D18*
D03*
X336550Y296069D02*
G54D18*
D03*
X277019Y268288D02*
G54D18*
D03*
X332581Y269875D02*
G54D18*
D03*
X359569Y270669D02*
G54D18*
D03*
X351631Y246062D02*
G54D18*
D03*
X277812Y302419D02*
G54D18*
D03*
X278606Y334962D02*
G54D18*
D03*
X296069Y362744D02*
G54D18*
D03*
X890588Y346075D02*
G54D18*
D03*
X889000Y371475D02*
G54D18*
D03*
X814388Y296069D02*
G54D18*
D03*
X789781Y271462D02*
G54D18*
D03*
X839788Y270669D02*
G54D18*
D03*
X1087438Y296862D02*
G54D18*
D03*
X1085850Y350044D02*
G54D18*
D03*
X1137444Y349250D02*
G54D18*
D03*
X1035844Y347662D02*
G54D18*
D03*
X1216819Y348456D02*
G54D18*
D03*
X1035050Y119856D02*
G54D18*
D03*
X1085850Y120650D02*
G54D18*
D03*
X1250950Y139700D02*
G54D18*
D03*
X1292225Y119856D02*
G54D18*
D03*
X1358900Y137319D02*
G54D18*
D03*
X1411288Y94456D02*
G54D18*
D03*
X1592262Y96044D02*
G54D18*
D03*
X1908969Y-29369D02*
G54D18*
D03*
X1781175Y-30162D02*
G54D18*
D03*
X415131Y98425D02*
G54D18*
D03*
X465138Y98425D02*
G54D18*
D03*
X349250Y81756D02*
G54D18*
D03*
X352425Y119856D02*
G54D18*
D03*
X304006Y144462D02*
G54D18*
D03*
X304006Y169862D02*
G54D18*
D03*
X333375Y170656D02*
G54D18*
D03*
X229394Y119062D02*
G54D18*
D03*
X168275Y-289719D02*
G54D18*
D03*
X219075Y-281781D02*
G54D18*
D03*
X220662Y-255588D02*
G54D18*
D03*
X218281Y-230981D02*
G54D18*
D03*
X268288Y-243681D02*
G54D18*
D03*
X294481Y-242888D02*
G54D18*
D03*
X343694Y-193675D02*
G54D18*
D03*
X342106Y-168275D02*
G54D18*
D03*
X219075Y-193675D02*
G54D18*
D03*
X219075Y-167481D02*
G54D18*
D03*
X169862Y-161131D02*
G54D18*
D03*
X219075Y-142081D02*
G54D18*
D03*
X207169Y-106362D02*
G54D18*
D03*
X210344Y-60325D02*
G54D18*
D03*
X169069Y-30162D02*
G54D18*
D03*
X248444Y-67469D02*
G54D18*
D03*
X296862Y-65881D02*
G54D18*
D03*
X338931Y-80169D02*
G54D18*
D03*
X330994Y-107156D02*
G54D18*
D03*
X342106Y-144462D02*
G54D18*
D03*
G54D16*
X415845Y270738D02*
X415845Y269161D01*
X428625Y256381D01*
X477689Y256381D01*
X492045Y270738D01*
G54D16*
X351631Y246062D02*
X492770Y246062D01*
X517445Y270738D01*
G54D16*
X441245Y270738D02*
X441245Y275352D01*
X451644Y285750D01*
X527833Y285750D01*
X542845Y270738D01*
G54D16*
X359569Y270669D02*
X390525Y270669D01*
X413544Y293688D01*
X537369Y293688D01*
X542131Y288925D01*
X582612Y288925D01*
X588169Y294481D01*
X595312Y294481D01*
X596106Y295275D01*
X659606Y297656D02*
G54D13*
D03*
G54D16*
X659606Y297656D02*
X663575Y297656D01*
X673894Y287338D01*
X723890Y287338D01*
X740490Y270738D01*
G54D16*
X488156Y304800D02*
X581819Y304800D01*
X589756Y312738D01*
X728662Y312738D01*
X752475Y288925D01*
G54D16*
X767556Y301625D02*
X767556Y303212D01*
X751681Y319088D01*
X530225Y319088D01*
X520700Y309562D01*
X505619Y309562D01*
X494506Y320675D01*
X467519Y320675D01*
X466725Y319881D01*
G54D16*
X514350Y320675D02*
X517525Y320675D01*
X523875Y327025D01*
X715169Y327025D01*
X718344Y330200D01*
X795338Y330200D01*
X797719Y327819D01*
G54D16*
X466645Y346938D02*
X466645Y344567D01*
X477044Y334169D01*
X555476Y334169D01*
X568245Y346938D01*
G54D16*
X415845Y346938D02*
X441245Y346938D01*
X441245Y349964D01*
X457200Y365919D01*
X498465Y365919D01*
X517445Y346938D01*
G54D16*
X229394Y119062D02*
X229394Y120650D01*
X255588Y146844D01*
X301625Y146844D01*
X304006Y144462D01*
G54D16*
X281781Y120650D02*
X322262Y120650D01*
X340519Y138906D01*
X355600Y138906D01*
X364331Y130175D01*
X381000Y130175D01*
X405606Y147638D01*
X553232Y147638D01*
X567452Y133418D01*
G54D16*
X365125Y144462D02*
X384969Y144462D01*
X400050Y153988D01*
X568325Y153988D01*
X573088Y149225D01*
X963612Y149225D01*
X1006475Y101600D01*
X1134269Y101600D01*
X1143794Y92075D01*
X1185069Y92869D01*
X1187450Y92869D02*
G54D13*
D03*
X1151731Y103981D02*
G54D13*
D03*
X646906Y116681D02*
G54D13*
D03*
X580231Y112712D02*
G54D13*
D03*
G54D16*
X465852Y133418D02*
X465852Y128667D01*
X481012Y113506D01*
X579438Y113506D01*
X580231Y112712D01*
G54D16*
X646906Y116681D02*
X776140Y116681D01*
X792083Y132624D01*
G54D16*
X475456Y25400D02*
X467519Y23019D01*
X442912Y23019D01*
X398462Y-30956D01*
X392112Y-34925D01*
G54D16*
X530225Y21431D02*
X488156Y21431D01*
X480219Y13494D01*
X454025Y13494D01*
X392112Y-56356D01*
G54D16*
X356394Y30956D02*
X461962Y30956D01*
X471488Y40481D01*
X497681Y40481D01*
X504825Y33338D01*
G54D16*
X453231Y42862D02*
X458788Y42862D01*
X464344Y48419D01*
X539750Y48419D01*
X550862Y37306D01*
X596106Y37306D01*
X601662Y31750D01*
X604838Y23812D01*
G54D16*
X431800Y50006D02*
X436562Y50006D01*
X442912Y56356D01*
X544512Y56356D01*
X556419Y44450D01*
X611981Y44450D01*
X627856Y28575D01*
G54D16*
X541269Y70564D02*
X541269Y69125D01*
X558800Y51594D01*
X613569Y51594D01*
X620712Y44450D01*
X760412Y44450D01*
G54D16*
X554831Y18256D02*
X556419Y18256D01*
X561975Y12700D01*
X627856Y12700D01*
X654844Y37306D01*
X756444Y37306D01*
X783431Y6350D01*
X180181Y119062D02*
G54D18*
D03*
G54D16*
X180181Y119062D02*
X205581Y119062D01*
X224631Y100012D01*
X273050Y100012D01*
X275431Y97631D01*
G54D16*
X352425Y119856D02*
X325438Y100012D01*
X277812Y100012D01*
X275431Y97631D01*
G54D16*
X439669Y-81836D02*
X522288Y5556D01*
X631825Y5556D01*
X658812Y30956D01*
X742950Y30956D01*
X773906Y-5556D01*
X814388Y-5556D01*
X845344Y25400D01*
G54D16*
X465069Y-81836D02*
X537369Y-2381D01*
X634206Y-2381D01*
X661988Y23812D01*
X724694Y23812D01*
X732631Y15875D01*
G54D16*
X490469Y-81836D02*
X550862Y-9525D01*
X636588Y-8731D01*
X665162Y16669D01*
X700088Y16669D01*
X706438Y10319D01*
G54D16*
X515869Y-81836D02*
X519906Y-74612D01*
X571500Y-15875D01*
X640556Y-15875D01*
X662781Y3175D01*
X678656Y3175D01*
X680244Y1588D01*
G54D16*
X541269Y-81836D02*
X586581Y-23812D01*
X654844Y-23812D01*
X657225Y-21431D01*
G54D16*
X566669Y70564D02*
X566669Y66744D01*
X576262Y57150D01*
X619125Y57150D01*
X624681Y51594D01*
G54D16*
X624681Y51594D02*
X763588Y51594D01*
G54D16*
X617469Y70564D02*
X617469Y69919D01*
X630238Y57150D01*
X769144Y57150D01*
G54D16*
X732631Y15875D02*
X739775Y14288D01*
X762000Y-13494D01*
X816769Y-13494D01*
X842169Y11906D01*
X910431Y11906D01*
X911225Y11112D01*
G54D16*
X706438Y10319D02*
X711994Y6350D01*
X715962Y3969D01*
X736600Y3969D01*
X757238Y-20638D01*
X819150Y-20638D01*
X845344Y4762D01*
X889000Y4762D01*
X896938Y-3175D01*
G54D16*
X680244Y1588D02*
X685006Y1588D01*
X688975Y-2381D01*
X728662Y-2381D01*
X754062Y-27781D01*
X821531Y-27781D01*
X842962Y-7938D01*
X868362Y-7938D01*
X871538Y-11112D01*
G54D16*
X657225Y-21431D02*
X660400Y-21431D01*
X667544Y-28575D01*
X746125Y-28575D01*
X752475Y-34925D01*
X823912Y-34925D01*
X838200Y-22225D01*
X916781Y-22225D01*
X921544Y-17462D01*
X1069181Y-173038D02*
G54D13*
D03*
X1112044Y-166688D02*
G54D13*
D03*
X1148556Y-226219D02*
G54D13*
D03*
X1134269Y-241300D02*
G54D13*
D03*
X1315244Y-142081D02*
G54D13*
D03*
X1328738Y-43656D02*
G54D13*
D03*
X1386681Y-44450D02*
G54D13*
D03*
X1084262Y-103188D02*
G54D13*
D03*
X1110456Y-116681D02*
G54D13*
D03*
G54D16*
X1110456Y-116681D02*
X1119188Y-118269D01*
X1222364Y-119062D01*
X1237456Y-135731D01*
X1237377Y-144394D01*
G54D16*
X1059577Y-144394D02*
X1065927Y-149939D01*
X1086644Y-166688D01*
X1112044Y-166688D01*
G54D16*
X1339056Y-227806D02*
X1339056Y-222250D01*
X1319212Y-202406D01*
X1266677Y-202406D01*
X1262777Y-206307D01*
X1037352Y827949D02*
G54D10*
D03*
X1062752Y827949D02*
G54D10*
D03*
X1088152Y827949D02*
G54D10*
D03*
X1113552Y827949D02*
G54D10*
D03*
X1037352Y904149D02*
G54D10*
D03*
X1062752Y904149D02*
G54D10*
D03*
X1088152Y904149D02*
G54D10*
D03*
X1113552Y904149D02*
G54D10*
D03*
X1138952Y827949D02*
G54D10*
D03*
X1138952Y904149D02*
G54D10*
D03*
X1164352Y827949D02*
G54D10*
D03*
X1189752Y827949D02*
G54D10*
D03*
X1164352Y904149D02*
G54D10*
D03*
X1189752Y904149D02*
G54D10*
D03*
X1215152Y827949D02*
G54D10*
D03*
X1215152Y904149D02*
G54D10*
D03*
X1037352Y689043D02*
G54D10*
D03*
X1062752Y689043D02*
G54D10*
D03*
X1088152Y689043D02*
G54D10*
D03*
X1113552Y689043D02*
G54D10*
D03*
X1037352Y765243D02*
G54D10*
D03*
X1062752Y765243D02*
G54D10*
D03*
X1088152Y765243D02*
G54D10*
D03*
X1113552Y765243D02*
G54D10*
D03*
X1138952Y689043D02*
G54D10*
D03*
X1138952Y765243D02*
G54D10*
D03*
X1164352Y689043D02*
G54D10*
D03*
X1189752Y689043D02*
G54D10*
D03*
X1164352Y765243D02*
G54D10*
D03*
X1189752Y765243D02*
G54D10*
D03*
X1215152Y689043D02*
G54D10*
D03*
X1215152Y765243D02*
G54D10*
D03*
X1036558Y548549D02*
G54D10*
D03*
X1061958Y548549D02*
G54D10*
D03*
X1087358Y548549D02*
G54D10*
D03*
X1112758Y548549D02*
G54D10*
D03*
X1036558Y624749D02*
G54D10*
D03*
X1061958Y624749D02*
G54D10*
D03*
X1087358Y624749D02*
G54D10*
D03*
X1112758Y624749D02*
G54D10*
D03*
X1138158Y548549D02*
G54D10*
D03*
X1138158Y624750D02*
G54D10*
D03*
X1163558Y548549D02*
G54D10*
D03*
X1188958Y548549D02*
G54D10*
D03*
X1163558Y624749D02*
G54D10*
D03*
X1188958Y624749D02*
G54D10*
D03*
X1214358Y548549D02*
G54D10*
D03*
X1214358Y624749D02*
G54D10*
D03*
X1035764Y411231D02*
G54D10*
D03*
X1061164Y411231D02*
G54D10*
D03*
X1086564Y411231D02*
G54D10*
D03*
X1111964Y411231D02*
G54D10*
D03*
X1035764Y487431D02*
G54D10*
D03*
X1061164Y487431D02*
G54D10*
D03*
X1086564Y487431D02*
G54D10*
D03*
X1111964Y487431D02*
G54D10*
D03*
X1137364Y411231D02*
G54D10*
D03*
X1137364Y487431D02*
G54D10*
D03*
X1162764Y411231D02*
G54D10*
D03*
X1188164Y411231D02*
G54D10*
D03*
X1162764Y487431D02*
G54D10*
D03*
X1188164Y487431D02*
G54D10*
D03*
X1213564Y411231D02*
G54D10*
D03*
X1213564Y487431D02*
G54D10*
D03*
X1727914Y-392044D02*
G54D10*
D03*
X1753314Y-392044D02*
G54D10*
D03*
X1778714Y-392044D02*
G54D10*
D03*
X1804114Y-392044D02*
G54D10*
D03*
X1727914Y-315844D02*
G54D10*
D03*
X1753314Y-315844D02*
G54D10*
D03*
X1778714Y-315844D02*
G54D10*
D03*
X1804114Y-315844D02*
G54D10*
D03*
X1829514Y-392044D02*
G54D10*
D03*
X1829514Y-315844D02*
G54D10*
D03*
X1854914Y-392044D02*
G54D10*
D03*
X1880314Y-392044D02*
G54D10*
D03*
X1854914Y-315844D02*
G54D10*
D03*
X1880314Y-315844D02*
G54D10*
D03*
X1905714Y-392044D02*
G54D10*
D03*
X1905714Y-315844D02*
G54D10*
D03*
X1730296Y-268219D02*
G54D10*
D03*
X1755695Y-268219D02*
G54D10*
D03*
X1781095Y-268219D02*
G54D10*
D03*
X1806495Y-268219D02*
G54D10*
D03*
X1730296Y-192019D02*
G54D10*
D03*
X1755695Y-192019D02*
G54D10*
D03*
X1781095Y-192019D02*
G54D10*
D03*
X1806495Y-192019D02*
G54D10*
D03*
X1831895Y-268219D02*
G54D10*
D03*
X1831895Y-192019D02*
G54D10*
D03*
X1857295Y-268219D02*
G54D10*
D03*
X1882695Y-268219D02*
G54D10*
D03*
X1857295Y-192019D02*
G54D10*
D03*
X1882695Y-192019D02*
G54D10*
D03*
X1908095Y-268219D02*
G54D10*
D03*
X1908095Y-192019D02*
G54D10*
D03*
X1731089Y-130900D02*
G54D10*
D03*
X1756489Y-130900D02*
G54D10*
D03*
X1781889Y-130900D02*
G54D10*
D03*
X1807289Y-130900D02*
G54D10*
D03*
X1731089Y-54701D02*
G54D10*
D03*
X1756489Y-54701D02*
G54D10*
D03*
X1781889Y-54701D02*
G54D10*
D03*
X1807289Y-54701D02*
G54D10*
D03*
X1832689Y-130900D02*
G54D10*
D03*
X1832689Y-54700D02*
G54D10*
D03*
X1858089Y-130900D02*
G54D10*
D03*
X1883489Y-130900D02*
G54D10*
D03*
X1858089Y-54701D02*
G54D10*
D03*
X1883489Y-54701D02*
G54D10*
D03*
X1908889Y-130900D02*
G54D10*
D03*
X1908889Y-54701D02*
G54D10*
D03*
X1731883Y-3900D02*
G54D10*
D03*
X1757282Y-3900D02*
G54D10*
D03*
X1782683Y-3900D02*
G54D10*
D03*
X1808083Y-3900D02*
G54D10*
D03*
X1731883Y72299D02*
G54D10*
D03*
X1757282Y72299D02*
G54D10*
D03*
X1782682Y72299D02*
G54D10*
D03*
X1808082Y72299D02*
G54D10*
D03*
X1833483Y-3900D02*
G54D10*
D03*
X1833483Y72300D02*
G54D10*
D03*
X1858883Y-3900D02*
G54D10*
D03*
X1884283Y-3900D02*
G54D10*
D03*
X1858883Y72299D02*
G54D10*
D03*
X1884283Y72299D02*
G54D10*
D03*
X1909683Y-3900D02*
G54D10*
D03*
X1909682Y72299D02*
G54D10*
D03*
X1733470Y134212D02*
G54D10*
D03*
X1758870Y134212D02*
G54D10*
D03*
X1784270Y134212D02*
G54D10*
D03*
X1809670Y134212D02*
G54D10*
D03*
X1733470Y210412D02*
G54D10*
D03*
X1758870Y210412D02*
G54D10*
D03*
X1784270Y210412D02*
G54D10*
D03*
X1809670Y210412D02*
G54D10*
D03*
X1835070Y134212D02*
G54D10*
D03*
X1835070Y210412D02*
G54D10*
D03*
X1860470Y134212D02*
G54D10*
D03*
X1885870Y134212D02*
G54D10*
D03*
X1860470Y210412D02*
G54D10*
D03*
X1885870Y210412D02*
G54D10*
D03*
X1911270Y134212D02*
G54D10*
D03*
X1911270Y210412D02*
G54D10*
D03*
X1734264Y412024D02*
G54D10*
D03*
X1759664Y412024D02*
G54D10*
D03*
X1785064Y412024D02*
G54D10*
D03*
X1810464Y412024D02*
G54D10*
D03*
X1734264Y488224D02*
G54D10*
D03*
X1759664Y488224D02*
G54D10*
D03*
X1785064Y488224D02*
G54D10*
D03*
X1810464Y488224D02*
G54D10*
D03*
X1835864Y412024D02*
G54D10*
D03*
X1835864Y488224D02*
G54D10*
D03*
X1861264Y412024D02*
G54D10*
D03*
X1886664Y412024D02*
G54D10*
D03*
X1861264Y488224D02*
G54D10*
D03*
X1886664Y488224D02*
G54D10*
D03*
X1912064Y412024D02*
G54D10*
D03*
X1912064Y488224D02*
G54D10*
D03*
X1733470Y550137D02*
G54D10*
D03*
X1758870Y550137D02*
G54D10*
D03*
X1784270Y550137D02*
G54D10*
D03*
X1809670Y550137D02*
G54D10*
D03*
X1733470Y626337D02*
G54D10*
D03*
X1758870Y626337D02*
G54D10*
D03*
X1784270Y626337D02*
G54D10*
D03*
X1809670Y626337D02*
G54D10*
D03*
X1835070Y550137D02*
G54D10*
D03*
X1835070Y626337D02*
G54D10*
D03*
X1860470Y550137D02*
G54D10*
D03*
X1885870Y550137D02*
G54D10*
D03*
X1860470Y626337D02*
G54D10*
D03*
X1885870Y626337D02*
G54D10*
D03*
X1911270Y550137D02*
G54D10*
D03*
X1911270Y626337D02*
G54D10*
D03*
X1734264Y688250D02*
G54D10*
D03*
X1759664Y688250D02*
G54D10*
D03*
X1785064Y688250D02*
G54D10*
D03*
X1810464Y688250D02*
G54D10*
D03*
X1734264Y764449D02*
G54D10*
D03*
X1759664Y764449D02*
G54D10*
D03*
X1785064Y764449D02*
G54D10*
D03*
X1810464Y764449D02*
G54D10*
D03*
X1835864Y688250D02*
G54D10*
D03*
X1835864Y764450D02*
G54D10*
D03*
X1861264Y688250D02*
G54D10*
D03*
X1886664Y688250D02*
G54D10*
D03*
X1861264Y764449D02*
G54D10*
D03*
X1886664Y764449D02*
G54D10*
D03*
X1912064Y688250D02*
G54D10*
D03*
X1912064Y764449D02*
G54D10*
D03*
X1734264Y827950D02*
G54D10*
D03*
X1759664Y827950D02*
G54D10*
D03*
X1785064Y827950D02*
G54D10*
D03*
X1810464Y827950D02*
G54D10*
D03*
X1734264Y904149D02*
G54D10*
D03*
X1759664Y904149D02*
G54D10*
D03*
X1785064Y904149D02*
G54D10*
D03*
X1810464Y904149D02*
G54D10*
D03*
X1835864Y827950D02*
G54D10*
D03*
X1835864Y904150D02*
G54D10*
D03*
X1861264Y827950D02*
G54D10*
D03*
X1886664Y827950D02*
G54D10*
D03*
X1861264Y904149D02*
G54D10*
D03*
X1886664Y904149D02*
G54D10*
D03*
X1912064Y827950D02*
G54D10*
D03*
X1912064Y904149D02*
G54D10*
D03*
X1387396Y549343D02*
G54D10*
D03*
X1412795Y549343D02*
G54D10*
D03*
X1438195Y549343D02*
G54D10*
D03*
X1463595Y549343D02*
G54D10*
D03*
X1387396Y625543D02*
G54D10*
D03*
X1412795Y625543D02*
G54D10*
D03*
X1438195Y625543D02*
G54D10*
D03*
X1463595Y625543D02*
G54D10*
D03*
X1488995Y549343D02*
G54D10*
D03*
X1488995Y625543D02*
G54D10*
D03*
X1514395Y549343D02*
G54D10*
D03*
X1539795Y549343D02*
G54D10*
D03*
X1514395Y625543D02*
G54D10*
D03*
X1539795Y625543D02*
G54D10*
D03*
X1565195Y549343D02*
G54D10*
D03*
X1565195Y625543D02*
G54D10*
D03*
X1388189Y688250D02*
G54D10*
D03*
X1413589Y688250D02*
G54D10*
D03*
X1438989Y688250D02*
G54D10*
D03*
X1464389Y688250D02*
G54D10*
D03*
X1388189Y764449D02*
G54D10*
D03*
X1413589Y764449D02*
G54D10*
D03*
X1438989Y764449D02*
G54D10*
D03*
X1464389Y764449D02*
G54D10*
D03*
X1489789Y688250D02*
G54D10*
D03*
X1489789Y764450D02*
G54D10*
D03*
X1515189Y688250D02*
G54D10*
D03*
X1540589Y688250D02*
G54D10*
D03*
X1515189Y764449D02*
G54D10*
D03*
X1540589Y764449D02*
G54D10*
D03*
X1565989Y688250D02*
G54D10*
D03*
X1565989Y764449D02*
G54D10*
D03*
X1388189Y827950D02*
G54D10*
D03*
X1413589Y827950D02*
G54D10*
D03*
X1438989Y827950D02*
G54D10*
D03*
X1464389Y827950D02*
G54D10*
D03*
X1388189Y904149D02*
G54D10*
D03*
X1413589Y904149D02*
G54D10*
D03*
X1438989Y904149D02*
G54D10*
D03*
X1464389Y904149D02*
G54D10*
D03*
X1489789Y827950D02*
G54D10*
D03*
X1489789Y904150D02*
G54D10*
D03*
X1515189Y827950D02*
G54D10*
D03*
X1540589Y827950D02*
G54D10*
D03*
X1515189Y904149D02*
G54D10*
D03*
X1540589Y904149D02*
G54D10*
D03*
X1565989Y827950D02*
G54D10*
D03*
X1565989Y904149D02*
G54D10*
D03*
X1358820Y-280126D02*
G54D10*
D03*
X1384220Y-280126D02*
G54D10*
D03*
X1409620Y-280126D02*
G54D10*
D03*
X1435020Y-280126D02*
G54D10*
D03*
X1358820Y-203926D02*
G54D10*
D03*
X1384220Y-203926D02*
G54D10*
D03*
X1409620Y-203926D02*
G54D10*
D03*
X1435020Y-203926D02*
G54D10*
D03*
X1460420Y-280126D02*
G54D10*
D03*
X1460420Y-203926D02*
G54D10*
D03*
X1485820Y-280126D02*
G54D10*
D03*
X1511220Y-280126D02*
G54D10*
D03*
X1485820Y-203926D02*
G54D10*
D03*
X1511220Y-203926D02*
G54D10*
D03*
X1536620Y-280126D02*
G54D10*
D03*
X1536620Y-203926D02*
G54D10*
D03*
X1035764Y-7076D02*
G54D10*
D03*
X1061164Y-7076D02*
G54D10*
D03*
X1086564Y-7076D02*
G54D10*
D03*
X1111964Y-7076D02*
G54D10*
D03*
X1035764Y69124D02*
G54D10*
D03*
X1061164Y69124D02*
G54D10*
D03*
X1086564Y69124D02*
G54D10*
D03*
X1111964Y69124D02*
G54D10*
D03*
X1137364Y-7076D02*
G54D10*
D03*
X1137364Y69124D02*
G54D10*
D03*
X1162764Y-7076D02*
G54D10*
D03*
X1188164Y-7076D02*
G54D10*
D03*
X1162764Y69124D02*
G54D10*
D03*
X1188164Y69124D02*
G54D10*
D03*
X1213564Y-7076D02*
G54D10*
D03*
X1213564Y69124D02*
G54D10*
D03*
X1238964Y-7076D02*
G54D10*
D03*
X1238964Y69124D02*
G54D10*
D03*
X1264364Y-7076D02*
G54D10*
D03*
X1264364Y69124D02*
G54D10*
D03*
X1359614Y-7076D02*
G54D10*
D03*
X1385014Y-7076D02*
G54D10*
D03*
X1410414Y-7076D02*
G54D10*
D03*
X1435814Y-7076D02*
G54D10*
D03*
X1359614Y69124D02*
G54D10*
D03*
X1385014Y69124D02*
G54D10*
D03*
X1410414Y69124D02*
G54D10*
D03*
X1435814Y69124D02*
G54D10*
D03*
X1461214Y-7076D02*
G54D10*
D03*
X1461214Y69124D02*
G54D10*
D03*
X1486614Y-7076D02*
G54D10*
D03*
X1512014Y-7076D02*
G54D10*
D03*
X1486614Y69124D02*
G54D10*
D03*
X1512014Y69124D02*
G54D10*
D03*
X1537414Y-7076D02*
G54D10*
D03*
X1537414Y69124D02*
G54D10*
D03*
X1562814Y-7076D02*
G54D10*
D03*
X1562814Y69124D02*
G54D10*
D03*
X1588214Y-7076D02*
G54D10*
D03*
X1588214Y69124D02*
G54D10*
D03*
X1360408Y-141220D02*
G54D10*
D03*
X1385808Y-141220D02*
G54D10*
D03*
X1411208Y-141219D02*
G54D10*
D03*
X1436608Y-141220D02*
G54D10*
D03*
X1360408Y-65019D02*
G54D10*
D03*
X1385808Y-65020D02*
G54D10*
D03*
X1411208Y-65020D02*
G54D10*
D03*
X1436608Y-65020D02*
G54D10*
D03*
X1462008Y-141220D02*
G54D10*
D03*
X1462008Y-65020D02*
G54D10*
D03*
X1487408Y-141220D02*
G54D10*
D03*
X1512808Y-141220D02*
G54D10*
D03*
X1487408Y-65020D02*
G54D10*
D03*
X1512808Y-65020D02*
G54D10*
D03*
X1538208Y-141220D02*
G54D10*
D03*
X1538208Y-65020D02*
G54D10*
D03*
X1563608Y-141220D02*
G54D10*
D03*
X1563608Y-65020D02*
G54D10*
D03*
X1589008Y-141220D02*
G54D10*
D03*
X1589008Y-65019D02*
G54D10*
D03*
X1356439Y-419032D02*
G54D10*
D03*
X1381839Y-419032D02*
G54D10*
D03*
X1407239Y-419032D02*
G54D10*
D03*
X1432640Y-419032D02*
G54D10*
D03*
X1356439Y-342832D02*
G54D10*
D03*
X1381839Y-342832D02*
G54D10*
D03*
X1407240Y-342832D02*
G54D10*
D03*
X1432640Y-342832D02*
G54D10*
D03*
X1458039Y-419032D02*
G54D10*
D03*
X1458039Y-342832D02*
G54D10*
D03*
X1483439Y-419032D02*
G54D10*
D03*
X1508839Y-419032D02*
G54D10*
D03*
X1483439Y-342832D02*
G54D10*
D03*
X1508839Y-342832D02*
G54D10*
D03*
X1534239Y-419032D02*
G54D10*
D03*
X1534239Y-342832D02*
G54D10*
D03*
X1559640Y-419032D02*
G54D10*
D03*
X1559639Y-342832D02*
G54D10*
D03*
X1585039Y-419032D02*
G54D10*
D03*
X1585039Y-342832D02*
G54D10*
D03*
X1385808Y413612D02*
G54D10*
D03*
X1411208Y413612D02*
G54D10*
D03*
X1436608Y413612D02*
G54D10*
D03*
X1462008Y413612D02*
G54D10*
D03*
X1385808Y489812D02*
G54D10*
D03*
X1411208Y489812D02*
G54D10*
D03*
X1436608Y489812D02*
G54D10*
D03*
X1462008Y489812D02*
G54D10*
D03*
X1487408Y413612D02*
G54D10*
D03*
X1487408Y489812D02*
G54D10*
D03*
X1512808Y413612D02*
G54D10*
D03*
X1538208Y413612D02*
G54D10*
D03*
X1512808Y489812D02*
G54D10*
D03*
X1538208Y489812D02*
G54D10*
D03*
X1563608Y413612D02*
G54D10*
D03*
X1563608Y489812D02*
G54D10*
D03*
X1733470Y271531D02*
G54D10*
D03*
X1758870Y271531D02*
G54D10*
D03*
X1784270Y271531D02*
G54D10*
D03*
X1809670Y271531D02*
G54D10*
D03*
X1733470Y347731D02*
G54D10*
D03*
X1758870Y347731D02*
G54D10*
D03*
X1784270Y347731D02*
G54D10*
D03*
X1809670Y347731D02*
G54D10*
D03*
X1835070Y271531D02*
G54D10*
D03*
X1835070Y347731D02*
G54D10*
D03*
X1860470Y271531D02*
G54D10*
D03*
X1885870Y271531D02*
G54D10*
D03*
X1860470Y347731D02*
G54D10*
D03*
X1885870Y347731D02*
G54D10*
D03*
X2077164Y273912D02*
G54D10*
D03*
X2102564Y273912D02*
G54D10*
D03*
X2127964Y273912D02*
G54D10*
D03*
X2153364Y273912D02*
G54D10*
D03*
X2077164Y350112D02*
G54D10*
D03*
X2102564Y350112D02*
G54D10*
D03*
X2127964Y350112D02*
G54D10*
D03*
X2153363Y350112D02*
G54D10*
D03*
X2178764Y273912D02*
G54D10*
D03*
X2178764Y350112D02*
G54D10*
D03*
X2204164Y273912D02*
G54D10*
D03*
X2229564Y273912D02*
G54D10*
D03*
X2204164Y350112D02*
G54D10*
D03*
X2229564Y350112D02*
G54D10*
D03*
X2077164Y410437D02*
G54D10*
D03*
X2102564Y410437D02*
G54D10*
D03*
X2127964Y410437D02*
G54D10*
D03*
X2153364Y410437D02*
G54D10*
D03*
X2077164Y486637D02*
G54D10*
D03*
X2102564Y486637D02*
G54D10*
D03*
X2127964Y486637D02*
G54D10*
D03*
X2153364Y486637D02*
G54D10*
D03*
X2178764Y410437D02*
G54D10*
D03*
X2178764Y486637D02*
G54D10*
D03*
X2204164Y410437D02*
G54D10*
D03*
X2229564Y410437D02*
G54D10*
D03*
X2204164Y486637D02*
G54D10*
D03*
X2229564Y486637D02*
G54D10*
D03*
X2077164Y136594D02*
G54D10*
D03*
X2102564Y136594D02*
G54D10*
D03*
X2127964Y136594D02*
G54D10*
D03*
X2153364Y136593D02*
G54D10*
D03*
X2077164Y212794D02*
G54D10*
D03*
X2102564Y212793D02*
G54D10*
D03*
X2127964Y212794D02*
G54D10*
D03*
X2153363Y212794D02*
G54D10*
D03*
X2178764Y136594D02*
G54D10*
D03*
X2178764Y212794D02*
G54D10*
D03*
X2204164Y136594D02*
G54D10*
D03*
X2229564Y136594D02*
G54D10*
D03*
X2204164Y212794D02*
G54D10*
D03*
X2229564Y212794D02*
G54D10*
D03*
X2076370Y-3900D02*
G54D10*
D03*
X2101770Y-3900D02*
G54D10*
D03*
X2127170Y-3900D02*
G54D10*
D03*
X2152570Y-3900D02*
G54D10*
D03*
X2076370Y72300D02*
G54D10*
D03*
X2101770Y72300D02*
G54D10*
D03*
X2127170Y72300D02*
G54D10*
D03*
X2152570Y72300D02*
G54D10*
D03*
X2177970Y-3900D02*
G54D10*
D03*
X2177970Y72300D02*
G54D10*
D03*
X2203370Y-3900D02*
G54D10*
D03*
X2228770Y-3900D02*
G54D10*
D03*
X2203370Y72300D02*
G54D10*
D03*
X2228770Y72300D02*
G54D10*
D03*
X2075576Y-139632D02*
G54D10*
D03*
X2100976Y-139631D02*
G54D10*
D03*
X2126376Y-139631D02*
G54D10*
D03*
X2151776Y-139632D02*
G54D10*
D03*
X2075576Y-63432D02*
G54D10*
D03*
X2100976Y-63432D02*
G54D10*
D03*
X2126376Y-63432D02*
G54D10*
D03*
X2151776Y-63432D02*
G54D10*
D03*
X2177176Y-139632D02*
G54D10*
D03*
X2177176Y-63432D02*
G54D10*
D03*
X2202576Y-139631D02*
G54D10*
D03*
X2227976Y-139632D02*
G54D10*
D03*
X2202576Y-63432D02*
G54D10*
D03*
X2227976Y-63432D02*
G54D10*
D03*
X2073989Y-276950D02*
G54D10*
D03*
X2099388Y-276950D02*
G54D10*
D03*
X2124788Y-276950D02*
G54D10*
D03*
X2150188Y-276950D02*
G54D10*
D03*
X2073989Y-200750D02*
G54D10*
D03*
X2099388Y-200750D02*
G54D10*
D03*
X2124788Y-200750D02*
G54D10*
D03*
X2150188Y-200750D02*
G54D10*
D03*
X2175588Y-276950D02*
G54D10*
D03*
X2175588Y-200750D02*
G54D10*
D03*
X2200988Y-276950D02*
G54D10*
D03*
X2226388Y-276950D02*
G54D10*
D03*
X2200988Y-200750D02*
G54D10*
D03*
X2226388Y-200750D02*
G54D10*
D03*
X2077164Y550137D02*
G54D10*
D03*
X2102564Y550137D02*
G54D10*
D03*
X2127964Y550137D02*
G54D10*
D03*
X2153364Y550137D02*
G54D10*
D03*
X2077164Y626337D02*
G54D10*
D03*
X2102564Y626337D02*
G54D10*
D03*
X2127964Y626337D02*
G54D10*
D03*
X2153363Y626337D02*
G54D10*
D03*
X2178764Y550137D02*
G54D10*
D03*
X2178764Y626337D02*
G54D10*
D03*
X2204164Y550137D02*
G54D10*
D03*
X2229564Y550137D02*
G54D10*
D03*
X2204164Y626337D02*
G54D10*
D03*
X2229564Y626337D02*
G54D10*
D03*
X2077958Y687456D02*
G54D10*
D03*
X2103358Y687456D02*
G54D10*
D03*
X2128758Y687456D02*
G54D10*
D03*
X2154158Y687456D02*
G54D10*
D03*
X2077958Y763656D02*
G54D10*
D03*
X2103358Y763656D02*
G54D10*
D03*
X2128758Y763656D02*
G54D10*
D03*
X2154157Y763656D02*
G54D10*
D03*
X2179558Y687456D02*
G54D10*
D03*
X2179558Y763656D02*
G54D10*
D03*
X2204958Y687456D02*
G54D10*
D03*
X2230358Y687456D02*
G54D10*
D03*
X2204958Y763656D02*
G54D10*
D03*
X2230358Y763656D02*
G54D10*
D03*
X2077164Y824775D02*
G54D10*
D03*
X2102564Y824775D02*
G54D10*
D03*
X2127964Y824775D02*
G54D10*
D03*
X2153364Y824775D02*
G54D10*
D03*
X2077164Y900975D02*
G54D10*
D03*
X2102564Y900975D02*
G54D10*
D03*
X2127964Y900975D02*
G54D10*
D03*
X2153364Y900975D02*
G54D10*
D03*
X2178764Y824775D02*
G54D10*
D03*
X2178764Y900975D02*
G54D10*
D03*
X2204164Y824775D02*
G54D10*
D03*
X2229564Y824775D02*
G54D10*
D03*
X2204164Y900975D02*
G54D10*
D03*
X2229564Y900975D02*
G54D10*
D03*
X236459Y-31681D02*
G54D10*
D03*
X261859Y-31681D02*
G54D10*
D03*
X287259Y-31681D02*
G54D10*
D03*
X312659Y-31681D02*
G54D10*
D03*
X236459Y44519D02*
G54D10*
D03*
X261859Y44519D02*
G54D10*
D03*
X287259Y44519D02*
G54D10*
D03*
X312659Y44519D02*
G54D10*
D03*
X414258Y-294411D02*
G54D10*
D03*
X439658Y-294411D02*
G54D10*
D03*
X465058Y-294411D02*
G54D10*
D03*
X490458Y-294411D02*
G54D10*
D03*
X414258Y-142011D02*
G54D10*
D03*
X439658Y-142011D02*
G54D10*
D03*
X465058Y-142011D02*
G54D10*
D03*
X490458Y-142011D02*
G54D10*
D03*
X515858Y-294411D02*
G54D10*
D03*
X515858Y-142011D02*
G54D10*
D03*
X541258Y-294411D02*
G54D10*
D03*
X566658Y-294411D02*
G54D10*
D03*
X541258Y-142011D02*
G54D10*
D03*
X566658Y-142011D02*
G54D10*
D03*
X592058Y-294411D02*
G54D10*
D03*
X592058Y-142011D02*
G54D10*
D03*
X617458Y-294411D02*
G54D10*
D03*
X617458Y-142011D02*
G54D10*
D03*
X642858Y-294411D02*
G54D10*
D03*
X642858Y-142011D02*
G54D10*
D03*
X668258Y-142011D02*
G54D10*
D03*
X693658Y-142011D02*
G54D10*
D03*
X668258Y-294411D02*
G54D10*
D03*
X693658Y-294411D02*
G54D10*
D03*
X719058Y-294411D02*
G54D10*
D03*
X744458Y-294411D02*
G54D10*
D03*
X719058Y-142011D02*
G54D10*
D03*
X744458Y-142011D02*
G54D10*
D03*
G54D16*
X842089Y549343D02*
X842089Y550783D01*
X867569Y576262D01*
X933450Y576262D01*
X977106Y532606D01*
X1062038Y532606D01*
X1092200Y502444D01*
X1204119Y502444D01*
X1210469Y496094D01*
X1210469Y490526D01*
X1213564Y487431D01*
G54D16*
X1036558Y548549D02*
X1036638Y553244D01*
X1050131Y566738D01*
X1200150Y566738D01*
X1214358Y548549D01*
G54D16*
X542052Y623956D02*
X542052Y622380D01*
X556419Y608012D01*
X828675Y608012D01*
X838200Y617538D01*
X842089Y625543D01*
G54D16*
X1037352Y689043D02*
X1037352Y693658D01*
X1048544Y704850D01*
X1203325Y704850D01*
X1211262Y696912D01*
X1211262Y692932D01*
X1215152Y689043D01*
G54D16*
X1037352Y827949D02*
X1037352Y830183D01*
X1049338Y842169D01*
X1200932Y842169D01*
X1215152Y827949D01*
G54D16*
X977900Y858838D02*
X984250Y858838D01*
X986631Y861219D01*
X1012825Y861219D01*
X1016000Y858044D01*
X1123950Y858044D01*
X1131094Y865188D01*
X1146969Y865188D01*
X1158875Y853281D01*
X1188244Y853281D01*
X1189831Y854869D01*
G54D16*
X958850Y858838D02*
X958850Y859631D01*
X970756Y871538D01*
X1012825Y871538D01*
X1018381Y865981D01*
X1121569Y865981D01*
X1127919Y872331D01*
X1153319Y872331D01*
X1158875Y866775D01*
X1205706Y866775D01*
X1253331Y808038D01*
X1323181Y808038D01*
X1336675Y819150D01*
X1354931Y819150D01*
X1379538Y842962D01*
X1417638Y842962D01*
X1442244Y865981D01*
X1463675Y865981D01*
X1470025Y858044D01*
X1493838Y858044D01*
G54D16*
X441245Y485843D02*
X441245Y483473D01*
X454025Y470694D01*
X724546Y470694D01*
X740489Y486637D01*
G54D16*
X436562Y230188D02*
X382588Y230188D01*
G54D16*
X626269Y241300D02*
X614362Y233362D01*
X577850Y233362D01*
X569119Y224631D01*
X501502Y224631D01*
X491252Y209618D01*
X1038225Y934244D02*
G54D13*
D03*
X1086644Y932656D02*
G54D13*
D03*
X1125538Y941388D02*
G54D13*
D03*
X1066800Y956469D02*
G54D13*
D03*
X1152525Y729456D02*
G54D13*
D03*
X1174750Y727075D02*
G54D13*
D03*
X1190625Y716756D02*
G54D13*
D03*
X959644Y478631D02*
G54D13*
D03*
X959644Y445294D02*
G54D13*
D03*
X953294Y427038D02*
G54D13*
D03*
X935831Y404812D02*
G54D13*
D03*
X928688Y385762D02*
G54D13*
D03*
X921544Y368300D02*
G54D13*
D03*
X920750Y350044D02*
G54D13*
D03*
X917575Y328612D02*
G54D13*
D03*
X907256Y313531D02*
G54D13*
D03*
X904875Y293688D02*
G54D13*
D03*
X838200Y-121444D02*
G54D13*
D03*
X812800Y-120650D02*
G54D13*
D03*
X813594Y-146050D02*
G54D13*
D03*
X837406Y-146844D02*
G54D13*
D03*
X354806Y-395288D02*
G54D13*
D03*
X381000Y-395288D02*
G54D13*
D03*
X405606Y-395288D02*
G54D13*
D03*
X269875Y-406400D02*
G54D13*
D03*
X296862Y-406400D02*
G54D13*
D03*
X220662Y-405606D02*
G54D13*
D03*
X220662Y-429419D02*
G54D13*
D03*
X221456Y-456406D02*
G54D13*
D03*
X300038Y-203994D02*
G54D13*
D03*
X300038Y-167481D02*
G54D13*
D03*
X440531Y-175419D02*
G54D13*
D03*
X466725Y-164306D02*
G54D13*
D03*
X762794Y95250D02*
G54D13*
D03*
X1352550Y304006D02*
G54D13*
D03*
X1236662Y250031D02*
G54D13*
D03*
X1103312Y261144D02*
G54D13*
D03*
X1119188Y236538D02*
G54D13*
D03*
X1154112Y230981D02*
G54D13*
D03*
X1174750Y213519D02*
G54D13*
D03*
X1135856Y216694D02*
G54D13*
D03*
X1149350Y204788D02*
G54D13*
D03*
X1123156Y198438D02*
G54D13*
D03*
X1106488Y192088D02*
G54D13*
D03*
X1224756Y189706D02*
G54D13*
D03*
X1251744Y188912D02*
G54D13*
D03*
X1300956Y204788D02*
G54D13*
D03*
X1547019Y296862D02*
G54D13*
D03*
X1527969Y284162D02*
G54D13*
D03*
X1479550Y304800D02*
G54D13*
D03*
X1443038Y253206D02*
G54D13*
D03*
X1466056Y219075D02*
G54D13*
D03*
X1101725Y513556D02*
G54D13*
D03*
X1216025Y580231D02*
G54D13*
D03*
X1188244Y577056D02*
G54D13*
D03*
X1124744Y587375D02*
G54D13*
D03*
X1314450Y715962D02*
G54D13*
D03*
X1327944Y730250D02*
G54D13*
D03*
X1366838Y784225D02*
G54D13*
D03*
X1412081Y787400D02*
G54D13*
D03*
X1062038Y195262D02*
G54D13*
D03*
X1341438Y369094D02*
G54D13*
D03*
X1328738Y383381D02*
G54D13*
D03*
X1316038Y396875D02*
G54D13*
D03*
X1315244Y414338D02*
G54D13*
D03*
X1307306Y431006D02*
G54D13*
D03*
X1281112Y440531D02*
G54D13*
D03*
X1085850Y450850D02*
G54D13*
D03*
X1125538Y466725D02*
G54D13*
D03*
X1175544Y452438D02*
G54D13*
D03*
X1194594Y452438D02*
G54D13*
D03*
X1326356Y860425D02*
G54D13*
D03*
X1317625Y822325D02*
G54D13*
D03*
X1420812Y861219D02*
G54D13*
D03*
X1508919Y863600D02*
G54D13*
D03*
X1450975Y846931D02*
G54D13*
D03*
X1477169Y799306D02*
G54D13*
D03*
X1624012Y809625D02*
G54D13*
D03*
X1610519Y826294D02*
G54D13*
D03*
X1656556Y780256D02*
G54D13*
D03*
X1661319Y864394D02*
G54D13*
D03*
X1648619Y877888D02*
G54D13*
D03*
X1635919Y892175D02*
G54D13*
D03*
X1704181Y955675D02*
G54D13*
D03*
X1759744Y954881D02*
G54D13*
D03*
X1388269Y944562D02*
G54D13*
D03*
X1438275Y943769D02*
G54D13*
D03*
X1338262Y927894D02*
G54D13*
D03*
X1288256Y928688D02*
G54D13*
D03*
X1367631Y899319D02*
G54D13*
D03*
X1250156Y940594D02*
G54D13*
D03*
X1300162Y848519D02*
G54D13*
D03*
X1250156Y849312D02*
G54D13*
D03*
X1273969Y823119D02*
G54D13*
D03*
X1262856Y763588D02*
G54D13*
D03*
X1289050Y763588D02*
G54D13*
D03*
X1358106Y688181D02*
G54D13*
D03*
X1423988Y653256D02*
G54D13*
D03*
X1463675Y711200D02*
G54D13*
D03*
X1316831Y645319D02*
G54D13*
D03*
X1316038Y611188D02*
G54D13*
D03*
X1300162Y586581D02*
G54D13*
D03*
X1341438Y578644D02*
G54D13*
D03*
X1320006Y556419D02*
G54D13*
D03*
X1319212Y530225D02*
G54D13*
D03*
X1294606Y528638D02*
G54D13*
D03*
X1310481Y505619D02*
G54D13*
D03*
X1357312Y561975D02*
G54D13*
D03*
G36*
X1350019Y541488D02*
X1363019Y541488D01*
X1363019Y528488D01*
X1350019Y528488D01*
X1350019Y541488D01*
G37*
G36*
X1350019Y516881D02*
X1363019Y516881D01*
X1363019Y503881D01*
X1350019Y503881D01*
X1350019Y516881D01*
G37*
X1449388Y518319D02*
G54D13*
D03*
X1467644Y519112D02*
G54D13*
D03*
X1287462Y635794D02*
G54D13*
D03*
X1262062Y635794D02*
G54D13*
D03*
X1455738Y597694D02*
G54D13*
D03*
X1438275Y586581D02*
G54D13*
D03*
X1527969Y590550D02*
G54D13*
D03*
X1513681Y577056D02*
G54D13*
D03*
X1499394Y654050D02*
G54D13*
D03*
X1547812Y647700D02*
G54D13*
D03*
X1712119Y655638D02*
G54D13*
D03*
X1666875Y669925D02*
G54D13*
D03*
X1606550Y691356D02*
G54D13*
D03*
X1677194Y729456D02*
G54D13*
D03*
X1667669Y745331D02*
G54D13*
D03*
X1662112Y815181D02*
G54D13*
D03*
X1717675Y781844D02*
G54D13*
D03*
X1707356Y798512D02*
G54D13*
D03*
X1700212Y815181D02*
G54D13*
D03*
X1784350Y847725D02*
G54D13*
D03*
X1500981Y452438D02*
G54D13*
D03*
X1476375Y429419D02*
G54D13*
D03*
X1450181Y450056D02*
G54D13*
D03*
X1450181Y377825D02*
G54D13*
D03*
X1559719Y-364331D02*
G54D13*
D03*
X1485106Y-365919D02*
G54D13*
D03*
X1461294Y-377031D02*
G54D13*
D03*
X1419225Y-473869D02*
G54D13*
D03*
X1496219Y-488156D02*
G54D13*
D03*
X1541462Y-500062D02*
G54D13*
D03*
X1526381Y-513556D02*
G54D13*
D03*
X1446212Y-542925D02*
G54D13*
D03*
X1404144Y-513556D02*
G54D13*
D03*
X1381919Y-515144D02*
G54D13*
D03*
X1344612Y-527050D02*
G54D13*
D03*
X1320800Y-549275D02*
G54D13*
D03*
X1300162Y-548481D02*
G54D13*
D03*
X1275556Y-569912D02*
G54D13*
D03*
X1282700Y-602456D02*
G54D13*
D03*
X1231900Y-638969D02*
G54D13*
D03*
X1216025Y-628650D02*
G54D13*
D03*
X1203325Y-616744D02*
G54D13*
D03*
X1190625Y-604044D02*
G54D13*
D03*
X1177131Y-591344D02*
G54D13*
D03*
X1164431Y-579438D02*
G54D13*
D03*
X1151731Y-566738D02*
G54D13*
D03*
X1139825Y-554831D02*
G54D13*
D03*
X1621631Y135731D02*
G54D13*
D03*
X1500981Y128588D02*
G54D13*
D03*
X1462088Y147638D02*
G54D13*
D03*
X1440656Y137319D02*
G54D13*
D03*
X1406525Y128588D02*
G54D13*
D03*
X1381919Y145256D02*
G54D13*
D03*
X1336675Y148431D02*
G54D13*
D03*
X1620838Y107156D02*
G54D13*
D03*
X1701006Y177800D02*
G54D13*
D03*
X1773238Y113506D02*
G54D13*
D03*
X1752600Y94456D02*
G54D13*
D03*
X1774825Y32544D02*
G54D13*
D03*
X1693069Y44450D02*
G54D13*
D03*
X1654969Y39688D02*
G54D13*
D03*
X1648619Y57150D02*
G54D13*
D03*
X1640681Y73819D02*
G54D13*
D03*
X1851819Y102394D02*
G54D13*
D03*
X1731962Y-29369D02*
G54D13*
D03*
X1662112Y22225D02*
G54D13*
D03*
X1618456Y20638D02*
G54D13*
D03*
X1635919Y794D02*
G54D13*
D03*
X1669256Y-24606D02*
G54D13*
D03*
X1574006Y-25400D02*
G54D13*
D03*
X1563688Y15875D02*
G54D13*
D03*
X1757362Y17462D02*
G54D13*
D03*
X1490662Y36512D02*
G54D13*
D03*
X1461294Y46038D02*
G54D13*
D03*
X1667669Y-91281D02*
G54D13*
D03*
X1675606Y-72231D02*
G54D13*
D03*
X1682750Y-54769D02*
G54D13*
D03*
X1537494Y-44450D02*
G54D13*
D03*
X1473200Y-38100D02*
G54D13*
D03*
X1448594Y-39688D02*
G54D13*
D03*
X1411288Y-40481D02*
G54D13*
D03*
X1384300Y15875D02*
G54D13*
D03*
X1323975Y3175D02*
G54D13*
D03*
X1410494Y34131D02*
G54D13*
D03*
X1360488Y92075D02*
G54D13*
D03*
X1689894Y-115094D02*
G54D13*
D03*
X1697038Y-140494D02*
G54D13*
D03*
X1649412Y-114300D02*
G54D13*
D03*
X1635919Y-147638D02*
G54D13*
D03*
X1661319Y-168275D02*
G54D13*
D03*
X1643856Y-172244D02*
G54D13*
D03*
X1731962Y-164306D02*
G54D13*
D03*
X1855788Y-162719D02*
G54D13*
D03*
X1882775Y-170656D02*
G54D13*
D03*
X1957388Y-162719D02*
G54D13*
D03*
X1906588Y-150812D02*
G54D13*
D03*
X1991519Y-198438D02*
G54D13*
D03*
X1997869Y-142081D02*
G54D13*
D03*
X1867694Y-247650D02*
G54D13*
D03*
X1817688Y-250031D02*
G54D13*
D03*
X1791494Y-239712D02*
G54D13*
D03*
X1652588Y-234950D02*
G54D13*
D03*
X1693862Y-298450D02*
G54D13*
D03*
X1589088Y-280194D02*
G54D13*
D03*
X1730375Y-296862D02*
G54D13*
D03*
X1768475Y-292100D02*
G54D13*
D03*
X1866106Y-371475D02*
G54D13*
D03*
X1698625Y-368300D02*
G54D13*
D03*
X1679575Y-386556D02*
G54D13*
D03*
X1699419Y-428625D02*
G54D13*
D03*
X1681956Y-434975D02*
G54D13*
D03*
X1666875Y-447675D02*
G54D13*
D03*
X1650206Y-457994D02*
G54D13*
D03*
X1686719Y-478631D02*
G54D13*
D03*
X1731962Y-479425D02*
G54D13*
D03*
X1813719Y-496888D02*
G54D13*
D03*
X1752600Y-466725D02*
G54D13*
D03*
X1776412Y-467519D02*
G54D13*
D03*
X1801812Y-466725D02*
G54D13*
D03*
X1827212Y-467519D02*
G54D13*
D03*
X1852612Y-467519D02*
G54D13*
D03*
X1878012Y-467519D02*
G54D13*
D03*
X1902619Y-466725D02*
G54D13*
D03*
X1927225Y-467519D02*
G54D13*
D03*
X1954212Y-466725D02*
G54D13*
D03*
X1944688Y-500062D02*
G54D13*
D03*
X2028825Y-418306D02*
G54D13*
D03*
X1997075Y-427038D02*
G54D13*
D03*
X1976438Y-404019D02*
G54D13*
D03*
X1977231Y-379412D02*
G54D13*
D03*
X1977231Y-353219D02*
G54D13*
D03*
X2026444Y-352425D02*
G54D13*
D03*
X2074862Y-340519D02*
G54D13*
D03*
X2051050Y-341312D02*
G54D13*
D03*
X2050256Y-316706D02*
G54D13*
D03*
X2074862Y-315912D02*
G54D13*
D03*
X2065338Y-254000D02*
G54D13*
D03*
X2167731Y-257969D02*
G54D13*
D03*
X2027238Y-255588D02*
G54D13*
D03*
X2017712Y-278606D02*
G54D13*
D03*
X2020888Y-311944D02*
G54D13*
D03*
X1989138Y-302419D02*
G54D13*
D03*
X1996281Y-265906D02*
G54D13*
D03*
X2274094Y955675D02*
G54D13*
D03*
X2277269Y939006D02*
G54D13*
D03*
X2126456Y926306D02*
G54D13*
D03*
X2103438Y956469D02*
G54D13*
D03*
X2128044Y879475D02*
G54D13*
D03*
X2154238Y869950D02*
G54D13*
D03*
X2054225Y956469D02*
G54D13*
D03*
X2104231Y846931D02*
G54D13*
D03*
X2049462Y847725D02*
G54D13*
D03*
X2120900Y792162D02*
G54D13*
D03*
X2102644Y784225D02*
G54D13*
D03*
X1993900Y877888D02*
G54D13*
D03*
X2078831Y925512D02*
G54D13*
D03*
X1978025Y939006D02*
G54D13*
D03*
X1955800Y914400D02*
G54D13*
D03*
X1928812Y941388D02*
G54D13*
D03*
X1837531Y869156D02*
G54D13*
D03*
X1874044Y798512D02*
G54D13*
D03*
X1735931Y944562D02*
G54D13*
D03*
X1662112Y940594D02*
G54D13*
D03*
X1489869Y744538D02*
G54D13*
D03*
X1790700Y662781D02*
G54D13*
D03*
X1849438Y661988D02*
G54D13*
D03*
X1885950Y660400D02*
G54D13*
D03*
X1971675Y700881D02*
G54D13*
D03*
X1927225Y746919D02*
G54D13*
D03*
X1885950Y727075D02*
G54D13*
D03*
X1848644Y717550D02*
G54D13*
D03*
X1822450Y722312D02*
G54D13*
D03*
X1822450Y645319D02*
G54D13*
D03*
X1847850Y573881D02*
G54D13*
D03*
X1717675Y728662D02*
G54D13*
D03*
X1824038Y505619D02*
G54D13*
D03*
X1702594Y504031D02*
G54D13*
D03*
X1681956Y528638D02*
G54D13*
D03*
X1607344Y539750D02*
G54D13*
D03*
X1643062Y499269D02*
G54D13*
D03*
X1689100Y481012D02*
G54D13*
D03*
X1662906Y454025D02*
G54D13*
D03*
X1675606Y419894D02*
G54D13*
D03*
X1670050Y392112D02*
G54D13*
D03*
X1889125Y444500D02*
G54D13*
D03*
X1873250Y453231D02*
G54D13*
D03*
X1764506Y381000D02*
G54D13*
D03*
X1734344Y373062D02*
G54D13*
D03*
X1787525Y372269D02*
G54D13*
D03*
X1911350Y373856D02*
G54D13*
D03*
X1908175Y242094D02*
G54D13*
D03*
X2030412Y242094D02*
G54D13*
D03*
X2013744Y134938D02*
G54D13*
D03*
X1940719Y130175D02*
G54D13*
D03*
X1910556Y158750D02*
G54D13*
D03*
X2001838Y311944D02*
G54D13*
D03*
X2078831Y308769D02*
G54D13*
D03*
X2099469Y323850D02*
G54D13*
D03*
X1985169Y342106D02*
G54D13*
D03*
X1835150Y320675D02*
G54D13*
D03*
X1814512Y319088D02*
G54D13*
D03*
X1791494Y307975D02*
G54D13*
D03*
X1716088Y254000D02*
G54D13*
D03*
X1958181Y381000D02*
G54D13*
D03*
X1974850Y423862D02*
G54D13*
D03*
X2014538Y450056D02*
G54D13*
D03*
X2028031Y464344D02*
G54D13*
D03*
X2036762Y481012D02*
G54D13*
D03*
X1989138Y599281D02*
G54D13*
D03*
X2025650Y594519D02*
G54D13*
D03*
X2042319Y584200D02*
G54D13*
D03*
X2016919Y559594D02*
G54D13*
D03*
X1996281Y525462D02*
G54D13*
D03*
X2102644Y527844D02*
G54D13*
D03*
X2128044Y514350D02*
G54D13*
D03*
X2081212Y513556D02*
G54D13*
D03*
X1974056Y549275D02*
G54D13*
D03*
X2053431Y613569D02*
G54D13*
D03*
X1997075Y622300D02*
G54D13*
D03*
X1964531Y622300D02*
G54D13*
D03*
X1784350Y943769D02*
G54D13*
D03*
X1989931Y775494D02*
G54D13*
D03*
X2105025Y731838D02*
G54D13*
D03*
X2289969Y777081D02*
G54D13*
D03*
X2270125Y773906D02*
G54D13*
D03*
X2277269Y748506D02*
G54D13*
D03*
X2285206Y677069D02*
G54D13*
D03*
X2227262Y656431D02*
G54D13*
D03*
X2174875Y661988D02*
G54D13*
D03*
X2128044Y662781D02*
G54D13*
D03*
X2128838Y712788D02*
G54D13*
D03*
X2105025Y663575D02*
G54D13*
D03*
X2045494Y665162D02*
G54D13*
D03*
X2025650Y689769D02*
G54D13*
D03*
X2051050Y723900D02*
G54D13*
D03*
X2336006Y799306D02*
G54D13*
D03*
X2299494Y800100D02*
G54D13*
D03*
X2314575Y715169D02*
G54D13*
D03*
X2309019Y648494D02*
G54D13*
D03*
X2309019Y583406D02*
G54D13*
D03*
X2315369Y564356D02*
G54D13*
D03*
X2178844Y528638D02*
G54D13*
D03*
X2243138Y515938D02*
G54D13*
D03*
X2277269Y487362D02*
G54D13*
D03*
X2167731Y446088D02*
G54D13*
D03*
X2190750Y370681D02*
G54D13*
D03*
X2229644Y316706D02*
G54D13*
D03*
X2158206Y322262D02*
G54D13*
D03*
X2057400Y89694D02*
G54D13*
D03*
X1963738Y89694D02*
G54D13*
D03*
X1970088Y28575D02*
G54D13*
D03*
X2097088Y22225D02*
G54D13*
D03*
X2215356Y21431D02*
G54D13*
D03*
X2034381Y13494D02*
G54D13*
D03*
X1998662Y-26194D02*
G54D13*
D03*
X2056606Y-53181D02*
G54D13*
D03*
X2101850Y-25400D02*
G54D13*
D03*
X2315369Y-794D02*
G54D13*
D03*
X2309019Y-23019D02*
G54D13*
D03*
X2281238Y-62706D02*
G54D13*
D03*
X2296319Y-96044D02*
G54D13*
D03*
X2116931Y161131D02*
G54D13*
D03*
X2141538Y163512D02*
G54D13*
D03*
X2165350Y165100D02*
G54D13*
D03*
X2103438Y245269D02*
G54D13*
D03*
X2126456Y252412D02*
G54D13*
D03*
X2153444Y245269D02*
G54D13*
D03*
X2179638Y246062D02*
G54D13*
D03*
X2215356Y230981D02*
G54D13*
D03*
X2273300Y230981D02*
G54D13*
D03*
X2278062Y266700D02*
G54D13*
D03*
X2329656Y235744D02*
G54D13*
D03*
X2320925Y151606D02*
G54D13*
D03*
X2323306Y258762D02*
G54D13*
D03*
X2325688Y327819D02*
G54D13*
D03*
X2324100Y310356D02*
G54D13*
D03*
X2339975Y357188D02*
G54D13*
D03*
X2232025Y381794D02*
G54D13*
D03*
X2285206Y336550D02*
G54D13*
D03*
X2297112Y292100D02*
G54D13*
D03*
X2271712Y123031D02*
G54D13*
D03*
X2309812Y94456D02*
G54D13*
D03*
X2270919Y70644D02*
G54D13*
D03*
X2289175Y61119D02*
G54D13*
D03*
X2277269Y45244D02*
G54D13*
D03*
X2242344Y101600D02*
G54D13*
D03*
X2126456Y100012D02*
G54D13*
D03*
X2076450Y99219D02*
G54D13*
D03*
X2293938Y185738D02*
G54D13*
D03*
X1978819Y-78581D02*
G54D13*
D03*
X1947069Y-78581D02*
G54D13*
D03*
X1964531Y-32544D02*
G54D13*
D03*
X2124075Y-315912D02*
G54D13*
D03*
X2174875Y-314325D02*
G54D13*
D03*
X2205038Y-315119D02*
G54D13*
D03*
X2205038Y-365125D02*
G54D13*
D03*
X2198688Y-405606D02*
G54D13*
D03*
X2171700Y-403225D02*
G54D13*
D03*
X2178050Y-365125D02*
G54D13*
D03*
X2148681Y-339725D02*
G54D13*
D03*
X2124075Y-365125D02*
G54D13*
D03*
X2101056Y-378619D02*
G54D13*
D03*
X2101056Y-402431D02*
G54D13*
D03*
X2124869Y-402431D02*
G54D13*
D03*
X2324100Y-277812D02*
G54D13*
D03*
X2298700Y-254000D02*
G54D13*
D03*
X2300288Y-274638D02*
G54D13*
D03*
X2280444Y-275431D02*
G54D13*
D03*
X2271712Y-244475D02*
G54D13*
D03*
X2271712Y-227806D02*
G54D13*
D03*
X2289969Y-122238D02*
G54D13*
D03*
X2160588Y-102394D02*
G54D13*
D03*
X2213769Y-161131D02*
G54D13*
D03*
X2187575Y-180975D02*
G54D13*
D03*
X2324894Y-152400D02*
G54D13*
D03*
X2108994Y381000D02*
G54D13*
D03*
X2078038Y381794D02*
G54D13*
D03*
X2339181Y487362D02*
G54D13*
D03*
X2336006Y524669D02*
G54D13*
D03*
X2337594Y675481D02*
G54D13*
D03*
X2337594Y650081D02*
G54D13*
D03*
X2247900Y847725D02*
G54D13*
D03*
X2220912Y978694D02*
G54D13*
D03*
X2122488Y978694D02*
G54D13*
D03*
X2356644Y-67469D02*
G54D13*
D03*
X2259012Y-553244D02*
G54D13*
D03*
X2209006Y-554831D02*
G54D13*
D03*
X2135981Y-539750D02*
G54D13*
D03*
X2111375Y-539750D02*
G54D13*
D03*
X2168525Y-515938D02*
G54D13*
D03*
X2170906Y-485775D02*
G54D13*
D03*
X2043112Y-516731D02*
G54D13*
D03*
X1756569Y-518319D02*
G54D13*
D03*
X1729581Y-518319D02*
G54D13*
D03*
X1705769Y-519112D02*
G54D13*
D03*
X1678781Y-518319D02*
G54D13*
D03*
X1654175Y-518319D02*
G54D13*
D03*
X1629569Y-518319D02*
G54D13*
D03*
X1604169Y-517525D02*
G54D13*
D03*
X1580356Y-517525D02*
G54D13*
D03*
X1552575Y-519112D02*
G54D13*
D03*
X1626394Y-545306D02*
G54D13*
D03*
X1719262Y-539750D02*
G54D13*
D03*
X1675606Y-579438D02*
G54D13*
D03*
X1499394Y-579438D02*
G54D13*
D03*
X1554162Y-615950D02*
G54D13*
D03*
X1580356Y-615950D02*
G54D13*
D03*
X1604962Y-616744D02*
G54D13*
D03*
X1630362Y-615950D02*
G54D13*
D03*
X1654969Y-615950D02*
G54D13*
D03*
X1680369Y-615950D02*
G54D13*
D03*
X1705769Y-615156D02*
G54D13*
D03*
X1730375Y-615156D02*
G54D13*
D03*
X1756569Y-615156D02*
G54D13*
D03*
X1811338Y-655638D02*
G54D13*
D03*
X1866900Y-641350D02*
G54D13*
D03*
X1843088Y-570706D02*
G54D13*
D03*
X1827212Y-559594D02*
G54D13*
D03*
X1798638Y-579438D02*
G54D13*
D03*
X1775619Y-594519D02*
G54D13*
D03*
X1835944Y-604044D02*
G54D13*
D03*
X1854994Y-598488D02*
G54D13*
D03*
X1880394Y-598488D02*
G54D13*
D03*
X1905794Y-599281D02*
G54D13*
D03*
X1928812Y-599281D02*
G54D13*
D03*
X1955800Y-599281D02*
G54D13*
D03*
X1980406Y-599281D02*
G54D13*
D03*
X2005806Y-599281D02*
G54D13*
D03*
X2020888Y-569119D02*
G54D13*
D03*
X2330450Y-456406D02*
G54D13*
D03*
X2305050Y-456406D02*
G54D13*
D03*
X2279650Y-456406D02*
G54D13*
D03*
X2254250Y-456406D02*
G54D13*
D03*
X2228850Y-455612D02*
G54D13*
D03*
X2202656Y-455612D02*
G54D13*
D03*
X2177256Y-455612D02*
G54D13*
D03*
X2155031Y-455612D02*
G54D13*
D03*
X2128044Y-455612D02*
G54D13*
D03*
X2101850Y-454819D02*
G54D13*
D03*
X2075656Y-454819D02*
G54D13*
D03*
X2051050Y-454025D02*
G54D13*
D03*
X2027238Y-453231D02*
G54D13*
D03*
X593725Y269875D02*
G54D13*
D03*
X621506Y296862D02*
G54D13*
D03*
X338931Y44450D02*
G54D13*
D03*
X198438Y-7144D02*
G54D13*
D03*
X183356Y73025D02*
G54D13*
D03*
X211138Y63500D02*
G54D13*
D03*
X226219Y81756D02*
G54D13*
D03*
X203994Y94456D02*
G54D13*
D03*
X153988Y92869D02*
G54D13*
D03*
X180181Y145256D02*
G54D13*
D03*
X180181Y170656D02*
G54D13*
D03*
X84138Y171450D02*
G54D13*
D03*
X69056Y231775D02*
G54D13*
D03*
X93662Y231775D02*
G54D13*
D03*
X119856Y232569D02*
G54D13*
D03*
X146050Y244475D02*
G54D13*
D03*
X177800Y269081D02*
G54D13*
D03*
X178594Y302419D02*
G54D13*
D03*
X150019Y275431D02*
G54D13*
D03*
X180181Y334169D02*
G54D13*
D03*
X143669Y319088D02*
G54D13*
D03*
X119062Y330994D02*
G54D13*
D03*
X94456Y330994D02*
G54D13*
D03*
X70644Y330994D02*
G54D13*
D03*
X69850Y357188D02*
G54D13*
D03*
X119062Y357188D02*
G54D13*
D03*
X143669Y370681D02*
G54D13*
D03*
X172244Y362744D02*
G54D13*
D03*
X222250Y363538D02*
G54D13*
D03*
X259556Y363538D02*
G54D13*
D03*
X92869Y451644D02*
G54D13*
D03*
X132556Y416719D02*
G54D13*
D03*
X267494Y503238D02*
G54D13*
D03*
X166688Y503238D02*
G54D13*
D03*
X119856Y499269D02*
G54D13*
D03*
X96044Y498475D02*
G54D13*
D03*
X69850Y497681D02*
G54D13*
D03*
X67469Y538956D02*
G54D13*
D03*
X81756Y518319D02*
G54D13*
D03*
X131762Y522288D02*
G54D13*
D03*
X169069Y529431D02*
G54D13*
D03*
X218281Y559594D02*
G54D13*
D03*
X269081Y559594D02*
G54D13*
D03*
X268288Y533400D02*
G54D13*
D03*
X280988Y586581D02*
G54D13*
D03*
X230188Y585788D02*
G54D13*
D03*
X194469Y586581D02*
G54D13*
D03*
X148431Y557212D02*
G54D13*
D03*
X144462Y587375D02*
G54D13*
D03*
X119062Y597694D02*
G54D13*
D03*
X94456Y598488D02*
G54D13*
D03*
X68262Y598488D02*
G54D13*
D03*
X43656Y662781D02*
G54D13*
D03*
X143669Y662781D02*
G54D13*
D03*
X167481Y624681D02*
G54D13*
D03*
X115888Y649288D02*
G54D13*
D03*
X46831Y633412D02*
G54D13*
D03*
X202406Y673100D02*
G54D13*
D03*
X302419Y673100D02*
G54D13*
D03*
X292894Y710406D02*
G54D13*
D03*
X219075Y708819D02*
G54D13*
D03*
X335756Y748506D02*
G54D13*
D03*
X78581Y767556D02*
G54D13*
D03*
X191294Y936625D02*
G54D13*
D03*
X236538Y931862D02*
G54D13*
D03*
X218281Y635000D02*
G54D13*
D03*
X256381Y635000D02*
G54D13*
D03*
X292100Y635794D02*
G54D13*
D03*
X325438Y578644D02*
G54D13*
D03*
X37306Y169862D02*
G54D13*
D03*
X170656Y202406D02*
G54D13*
D03*
X168275Y228600D02*
G54D13*
D03*
X244475Y246856D02*
G54D13*
D03*
X58738Y24606D02*
G54D19*
D03*
X152400Y25400D02*
G54D19*
D03*
X59531Y-105569D02*
G54D19*
D03*
X151606Y-107156D02*
G54D19*
D03*
X56356Y-234156D02*
G54D19*
D03*
X154781Y-236538D02*
G54D19*
D03*
X59531Y-363538D02*
G54D19*
D03*
X156369Y-364331D02*
G54D19*
D03*
X219075Y-342106D02*
G54D13*
D03*
X246062Y-318294D02*
G54D13*
D03*
X291306Y-373062D02*
G54D13*
D03*
X269081Y-366712D02*
G54D13*
D03*
X243681Y-368300D02*
G54D13*
D03*
X169862Y-419100D02*
G54D13*
D03*
X172244Y-469900D02*
G54D13*
D03*
X219075Y-505619D02*
G54D13*
D03*
X244475Y-481012D02*
G54D13*
D03*
X292100Y-534988D02*
G54D13*
D03*
X269081Y-531019D02*
G54D13*
D03*
X243681Y-531019D02*
G54D13*
D03*
X210344Y-530225D02*
G54D13*
D03*
X260350Y-554038D02*
G54D13*
D03*
X318294Y-534194D02*
G54D13*
D03*
X336550Y-544512D02*
G54D13*
D03*
X161131Y-527844D02*
G54D13*
D03*
X138112Y-554038D02*
G54D13*
D03*
X37306Y-446881D02*
G54D13*
D03*
X342106Y-292100D02*
G54D13*
D03*
X225425Y-602456D02*
G54D13*
D03*
X188912Y-592138D02*
G54D13*
D03*
X122238Y-599281D02*
G54D13*
D03*
X21431Y-531812D02*
G54D13*
D03*
X97631Y-680244D02*
G54D13*
D03*
X246062Y-681038D02*
G54D13*
D03*
X395288Y-680244D02*
G54D13*
D03*
X542925Y-681038D02*
G54D13*
D03*
X690562Y-681831D02*
G54D13*
D03*
X840581Y-681038D02*
G54D13*
D03*
X988219Y-681831D02*
G54D13*
D03*
X1132681Y-681831D02*
G54D13*
D03*
X1259681Y-673100D02*
G54D13*
D03*
X1259681Y-685800D02*
G54D13*
D03*
X1780381Y-688975D02*
G54D13*
D03*
X1781175Y-670719D02*
G54D13*
D03*
X1878012Y-678656D02*
G54D13*
D03*
X2032000Y-677069D02*
G54D13*
D03*
X2137569Y-667544D02*
G54D13*
D03*
X2111375Y-668338D02*
G54D13*
D03*
X2234406Y-677069D02*
G54D13*
D03*
X2326481Y-493712D02*
G54D13*
D03*
X2339181Y-519112D02*
G54D13*
D03*
X2326481Y-542925D02*
G54D13*
D03*
X2336006Y-403225D02*
G54D13*
D03*
X46038Y94456D02*
G54D13*
D03*
X35719Y413544D02*
G54D13*
D03*
X68977Y396150D02*
G54D10*
D03*
X94377Y396150D02*
G54D10*
D03*
X119777Y396150D02*
G54D10*
D03*
X145177Y396150D02*
G54D10*
D03*
X68977Y472350D02*
G54D10*
D03*
X94377Y472350D02*
G54D10*
D03*
X119777Y472350D02*
G54D10*
D03*
X145177Y472350D02*
G54D10*
D03*
X170576Y396150D02*
G54D10*
D03*
X170577Y472350D02*
G54D10*
D03*
X195977Y396150D02*
G54D10*
D03*
X221377Y396150D02*
G54D10*
D03*
X195977Y472350D02*
G54D10*
D03*
X221377Y472350D02*
G54D10*
D03*
X246777Y396150D02*
G54D10*
D03*
X246777Y472350D02*
G54D10*
D03*
X272177Y396150D02*
G54D10*
D03*
X272176Y472350D02*
G54D10*
D03*
X252412Y427038D02*
G54D18*
D03*
G54D20*
X941388Y902494D02*
X894545Y902494D01*
X894556Y893762D01*
X873919Y876300D01*
X667544Y876300D01*
X641350Y902494D01*
X595301Y902494D01*
X573088Y879475D01*
X409575Y879475D01*
G54D20*
X892889Y486637D02*
X919231Y486637D01*
X931069Y498475D01*
G54D20*
X762794Y95250D02*
X468312Y95250D01*
X465138Y98425D01*
G54D20*
X592852Y133418D02*
X592852Y132636D01*
X600869Y124619D01*
X600869Y95250D01*
G36*
X204788Y-10319D02*
X259556Y-10319D01*
X265906Y-16669D01*
X265906Y-8731D01*
X270669Y-8731D01*
X270669Y-16669D01*
X277019Y-10319D01*
X289719Y-10319D01*
X307181Y-27781D01*
X305594Y-30956D01*
X305594Y-34131D01*
X307975Y-37306D01*
X311150Y-38894D01*
X314325Y-38894D01*
X317500Y-36512D01*
X319088Y-34925D01*
X319881Y-31750D01*
X319881Y-28575D01*
X317500Y-26194D01*
X317500Y-23812D01*
X294481Y-794D01*
X277019Y-794D01*
X270669Y5556D01*
X270669Y-3175D01*
X265906Y-3175D01*
X265906Y5556D01*
X259556Y-794D01*
X205581Y-794D01*
X203200Y1588D01*
X194469Y1588D01*
X189706Y-3175D01*
X189706Y-11906D01*
X192881Y-15081D01*
X200025Y-15081D01*
X204788Y-10319D01*
G37*
G54D21*
X204788Y-10319D02*
X259556Y-10319D01*
X265906Y-16669D01*
X265906Y-8731D01*
X270669Y-8731D01*
X270669Y-16669D01*
X277019Y-10319D01*
X289719Y-10319D01*
X307181Y-27781D01*
X305594Y-30956D01*
X305594Y-34131D01*
X307975Y-37306D01*
X311150Y-38894D01*
X314325Y-38894D01*
X317500Y-36512D01*
X319088Y-34925D01*
X319881Y-31750D01*
X319881Y-28575D01*
X317500Y-26194D01*
X317500Y-23812D01*
X294481Y-794D01*
X277019Y-794D01*
X270669Y5556D01*
X270669Y-3175D01*
X265906Y-3175D01*
X265906Y5556D01*
X259556Y-794D01*
X205581Y-794D01*
X203200Y1588D01*
X194469Y1588D01*
X189706Y-3175D01*
X189706Y-11906D01*
X192881Y-15081D01*
X200025Y-15081D01*
X204788Y-10319D01*
G36*
X269081Y47625D02*
X283369Y61912D01*
X308769Y61912D01*
X312738Y57944D01*
X312738Y64294D01*
X318294Y64294D01*
X318294Y57944D01*
X323850Y61912D01*
X342900Y61912D01*
X350044Y54769D01*
X405606Y54769D01*
X414338Y63500D01*
X415131Y63500D01*
X419100Y67469D01*
X419100Y73025D01*
X415925Y76200D01*
X411162Y76200D01*
X408781Y73819D01*
X407988Y73819D01*
X400050Y65881D01*
X351631Y65881D01*
X346075Y71438D01*
X323850Y71438D01*
X318294Y75406D01*
X318294Y69056D01*
X312738Y69056D01*
X312738Y75406D01*
X308769Y71438D01*
X277812Y71438D01*
X257969Y51594D01*
X257969Y49212D01*
X255588Y46831D01*
X255588Y42862D01*
X260350Y38100D01*
X264319Y38100D01*
X267494Y41275D01*
X267494Y46038D01*
X269081Y47625D01*
G37*
G54D16*
X269081Y47625D02*
X283369Y61912D01*
X308769Y61912D01*
X312738Y57944D01*
X312738Y64294D01*
X318294Y64294D01*
X318294Y57944D01*
X323850Y61912D01*
X342900Y61912D01*
X350044Y54769D01*
X405606Y54769D01*
X414338Y63500D01*
X415131Y63500D01*
X419100Y67469D01*
X419100Y73025D01*
X415925Y76200D01*
X411162Y76200D01*
X408781Y73819D01*
X407988Y73819D01*
X400050Y65881D01*
X351631Y65881D01*
X346075Y71438D01*
X323850Y71438D01*
X318294Y75406D01*
X318294Y69056D01*
X312738Y69056D01*
X312738Y75406D01*
X308769Y71438D01*
X277812Y71438D01*
X257969Y51594D01*
X257969Y49212D01*
X255588Y46831D01*
X255588Y42862D01*
X260350Y38100D01*
X264319Y38100D01*
X267494Y41275D01*
X267494Y46038D01*
X269081Y47625D01*
G54D16*
X169862Y-161131D02*
X212725Y-161131D01*
X219075Y-167481D01*
X259556Y-167481D01*
X282575Y-190500D01*
X340519Y-190500D01*
X343694Y-193675D01*
G54D16*
X300038Y-167481D02*
X341312Y-167481D01*
X342106Y-168275D01*
G54D16*
X168275Y-289719D02*
X211138Y-289719D01*
X219075Y-281781D01*
G54D16*
X218281Y-230981D02*
X255588Y-230981D01*
X268288Y-243681D01*
G54D16*
X169069Y-30162D02*
X211138Y-30162D01*
X248444Y-67469D01*
G54D16*
X287259Y-31681D02*
X287259Y-33259D01*
X296862Y-42862D01*
X300038Y-42862D01*
X315912Y-58738D01*
X315912Y-92075D01*
X330994Y-107156D01*
G54D16*
X219075Y-142081D02*
X220662Y-142081D01*
X296862Y-65881D01*
G54D16*
X220662Y-405606D02*
X269081Y-405606D01*
X269875Y-406400D01*
G54D16*
X172244Y-469900D02*
X174625Y-469900D01*
X192881Y-451644D01*
X216694Y-451644D01*
X221456Y-456406D01*
G54D16*
X300038Y-203994D02*
X300038Y-204788D01*
X319088Y-223838D01*
X319088Y-347662D01*
X338138Y-366712D01*
X417512Y-366712D01*
X455612Y-404812D01*
G54D16*
X600869Y-368300D02*
X604838Y-368300D01*
X607219Y-365919D01*
X695325Y-365919D01*
X722312Y-344488D01*
G54D16*
X418306Y-318294D02*
X422275Y-318294D01*
X424656Y-315912D01*
X582612Y-315912D01*
G54D16*
X402431Y-330994D02*
X546100Y-330994D01*
X604838Y-389731D01*
X783431Y-389731D01*
X784225Y-390525D01*
G54D16*
X338931Y-347662D02*
X550862Y-347662D01*
X609600Y-406400D01*
X959644Y-406400D01*
X1009650Y-371475D01*
X1080294Y-371475D01*
X1082675Y-373856D01*
X772319Y-459581D02*
G54D13*
D03*
X797719Y-459581D02*
G54D13*
D03*
X823119Y-459581D02*
G54D13*
D03*
X848519Y-459581D02*
G54D13*
D03*
X873125Y-459581D02*
G54D13*
D03*
X898525Y-459581D02*
G54D13*
D03*
X923925Y-459581D02*
G54D13*
D03*
X948531Y-459581D02*
G54D13*
D03*
X974725Y-459581D02*
G54D13*
D03*
X998538Y-458788D02*
G54D13*
D03*
X773906Y-333375D02*
G54D13*
D03*
X798512Y-333375D02*
G54D13*
D03*
X823912Y-333375D02*
G54D13*
D03*
X850106Y-333375D02*
G54D13*
D03*
X873919Y-333375D02*
G54D13*
D03*
X898525Y-333375D02*
G54D13*
D03*
X923131Y-333375D02*
G54D13*
D03*
X950912Y-332581D02*
G54D13*
D03*
X973138Y-332581D02*
G54D13*
D03*
X998538Y-332581D02*
G54D13*
D03*
G54D16*
X614362Y-345281D02*
X621506Y-343694D01*
X661838Y-343694D01*
X719058Y-294411D01*
G54D16*
X631825Y-314325D02*
X673744Y-314325D01*
X693658Y-294411D01*
G54D16*
X748506Y-350044D02*
X729456Y-325438D01*
X704056Y-325438D01*
X693738Y-335756D01*
G54D16*
X478631Y-274638D02*
X517525Y-238919D01*
X619125Y-238919D01*
X629444Y-228600D01*
G54D16*
X505619Y-274638D02*
X534194Y-248444D01*
X635000Y-248444D01*
X653256Y-230188D01*
G54D16*
X529431Y-275431D02*
X529431Y-274638D01*
X544512Y-259556D01*
X642144Y-259556D01*
X678656Y-219869D01*
G54D16*
X555625Y-275431D02*
X559594Y-275431D01*
X562769Y-272256D01*
X661988Y-272256D01*
X704056Y-230188D01*
G54D16*
X678656Y-238125D02*
X678656Y-236538D01*
X700881Y-214312D01*
X769938Y-214312D01*
X784225Y-228600D01*
X832644Y-228600D01*
X838200Y-223044D01*
G54D16*
X719058Y-294411D02*
X769938Y-353219D01*
X962025Y-353219D01*
X963612Y-354806D01*
G54D16*
X693658Y-294411D02*
X693658Y-290592D01*
X703262Y-280988D01*
X754856Y-280988D01*
X768350Y-294481D01*
X867569Y-294481D01*
X894556Y-267494D01*
X944562Y-267494D01*
X945356Y-268288D01*
G54D16*
X668258Y-294411D02*
X668408Y-294411D01*
X691356Y-271462D01*
X757238Y-271462D01*
X771525Y-285750D01*
X863600Y-285750D01*
X896938Y-252412D01*
X922338Y-252412D01*
X923925Y-254000D01*
G54D16*
X923925Y-459581D02*
X923925Y-451644D01*
X969962Y-414338D01*
X985838Y-414338D01*
X988219Y-416719D01*
G54D16*
X573091Y-518321D02*
X589756Y-526256D01*
X854869Y-526256D01*
X869156Y-516731D01*
X1046956Y-516731D01*
X1052512Y-511175D01*
G54D20*
X715883Y827156D02*
X715883Y823833D01*
X694531Y802481D01*
X664369Y802481D01*
X640556Y826294D01*
X616744Y802481D01*
X437345Y802481D01*
X416639Y827156D01*
X383449Y827156D01*
X355600Y800894D01*
G54D20*
X593645Y763656D02*
X637313Y763656D01*
X637381Y763588D01*
G54D20*
X254794Y773112D02*
X288925Y773112D01*
G54D20*
X253206Y842169D02*
X272256Y842169D01*
G54D20*
X253206Y842169D02*
X215106Y842169D01*
X197644Y859631D01*
G54D20*
X343694Y932656D02*
X344488Y932656D01*
X362744Y914400D01*
G54D20*
X81756Y518319D02*
X107156Y518319D01*
X118269Y507206D01*
X118269Y500856D01*
X119856Y499269D01*
X143658Y499269D01*
X170577Y472350D01*
X170577Y477758D01*
X189706Y496888D01*
X261144Y496888D01*
X267494Y503238D01*
G54D20*
X96044Y498475D02*
X70644Y498475D01*
X69850Y497681D01*
G54D20*
X259556Y363538D02*
X222250Y363538D01*
G54D20*
X210344Y-60325D02*
X210344Y-103188D01*
X207169Y-106362D01*
G54D20*
X220662Y-255588D02*
X211931Y-255588D01*
X197644Y-241300D01*
X197644Y-200025D01*
X183356Y-185738D01*
X95250Y-185738D01*
X70644Y-206375D01*
X56356Y-234156D01*
G54D20*
X59531Y-363538D02*
X59531Y-381000D01*
X127000Y-448469D01*
X175419Y-448469D01*
X195262Y-428625D01*
X219869Y-428625D01*
X220662Y-429419D01*
G54D20*
X244475Y-481012D02*
X196056Y-481012D01*
X186531Y-490538D01*
X186531Y-554038D01*
G54D20*
X37306Y-446881D02*
X45244Y-450850D01*
X136525Y-546100D01*
X138112Y-554038D01*
G54D20*
X188912Y-592138D02*
X145256Y-592138D01*
X11906Y-458788D01*
X11906Y721519D01*
X57944Y767556D01*
X78581Y767556D01*
G54D20*
X138112Y-554038D02*
X219869Y-554038D01*
X262731Y-596900D01*
X442119Y-596900D01*
X459581Y-614362D01*
X459581Y-626269D01*
X357188Y-521494D02*
G54D13*
D03*
X378619Y-520700D02*
G54D13*
D03*
X400844Y-519906D02*
G54D13*
D03*
G54D20*
X400844Y-519906D02*
X379412Y-519906D01*
X378619Y-520700D01*
X357981Y-520700D01*
X357188Y-521494D01*
X352425Y-521494D01*
X346869Y-515938D01*
X332581Y-515938D01*
X318294Y-534194D01*
X287338Y-566738D01*
X287338Y-577056D01*
X284956Y-579438D01*
G54D20*
X269081Y-531019D02*
X243681Y-531019D01*
G54D20*
X244475Y-481012D02*
X251619Y-481012D01*
X314325Y-418306D01*
X314325Y-365125D01*
X313531Y-364331D01*
G54D20*
X414258Y-294411D02*
X342106Y-292100D01*
G54D20*
X744458Y-294411D02*
X773906Y-333375D01*
G54D20*
X773906Y-333375D02*
X798512Y-333375D01*
X823912Y-333375D01*
X850106Y-333375D01*
X873919Y-333375D01*
X898525Y-333375D01*
X923131Y-333375D01*
G54D20*
X950912Y-332581D02*
X973138Y-332581D01*
X998538Y-332581D01*
G54D20*
X1568381Y322976D02*
X1568381Y333444D01*
X1550988Y350838D01*
X1219200Y350838D01*
X1216819Y348456D01*
X1138238Y348456D01*
X1137444Y349250D01*
X1137444Y323839D01*
X1136581Y322976D01*
X1136581Y311081D01*
X1123950Y298450D01*
X1089025Y298450D01*
X1087438Y296862D01*
X1083469Y296862D01*
X1058069Y271462D01*
X894556Y271462D01*
X892969Y273050D01*
G54D20*
X1035844Y347662D02*
X1083469Y347662D01*
X1085850Y350044D01*
G54D20*
X1781175Y-30162D02*
X1908175Y-30162D01*
X1908969Y-29369D01*
G54D20*
X2126456Y100012D02*
X2240756Y100012D01*
X2242344Y101600D01*
G54D20*
X2030412Y242094D02*
X2030412Y241300D01*
X2060575Y211138D01*
X2075508Y211138D01*
X2077164Y212794D01*
G54D20*
X1911350Y373856D02*
X1789112Y373856D01*
X1787525Y372269D01*
G54D20*
X2128044Y514350D02*
X2165350Y514350D01*
X2169319Y510381D01*
X2194719Y510381D01*
X2200275Y515938D01*
X2243138Y515938D01*
G54D20*
X2174875Y661988D02*
X2204889Y661988D01*
X2230358Y687456D01*
G54D20*
X1912064Y827950D02*
X1943962Y827950D01*
X1993900Y877888D01*
G54D20*
X1536620Y-280126D02*
X1589019Y-280126D01*
X1589088Y-280194D01*
G54D20*
X1035050Y119856D02*
X1035050Y120650D01*
X1057275Y142875D01*
X1247775Y142875D01*
X1250950Y139700D01*
X1320006Y139700D01*
X1328738Y130969D01*
X1352550Y130969D01*
X1358900Y137319D01*
G54D20*
X1592262Y96044D02*
X1412875Y96044D01*
X1411288Y94456D01*
X1411288Y96838D01*
X1391444Y116681D01*
X1347788Y116681D01*
X1336675Y105569D01*
G54D20*
X715089Y410437D02*
X661262Y410437D01*
X661194Y410369D01*
G54D20*
X689769Y442119D02*
X638175Y442119D01*
G54D20*
X638175Y442119D02*
X404070Y442119D01*
X403145Y443043D01*
G54D20*
X568245Y270738D02*
X592862Y270738D01*
X593725Y269875D01*
X594519Y269875D01*
X621506Y296862D01*
X622300Y296862D01*
X647700Y271462D01*
X663566Y271462D01*
X664290Y270738D01*
G54D20*
X415052Y209618D02*
X415052Y206454D01*
X434975Y186531D01*
X642790Y186531D01*
X665083Y208824D01*
G54D16*
X965200Y902494D02*
X1014412Y902494D01*
X1027906Y889000D01*
X1200002Y889000D01*
X1215152Y904149D01*
G54D16*
X982660Y887410D02*
X1016796Y887410D01*
X1023144Y881062D01*
X1250950Y881062D01*
X1268412Y863600D01*
X1323181Y863600D01*
X1326356Y860425D01*
G54D16*
X1420812Y861219D02*
X1410494Y850900D01*
X1374775Y850900D01*
X1350962Y827088D01*
X1322388Y827088D01*
X1317625Y822325D01*
G54D16*
X1113552Y904149D02*
X1113552Y907970D01*
X1133475Y927894D01*
X1234281Y927894D01*
X1281906Y880269D01*
X1525588Y880269D01*
X1528762Y877094D01*
X1588294Y877094D01*
X1592262Y873125D01*
X1616869Y873125D01*
X1635919Y892175D01*
G54D16*
X1493838Y858044D02*
X1503362Y858044D01*
X1508919Y863600D01*
G54D16*
X1066800Y956469D02*
X1068388Y956469D01*
X1078706Y966788D01*
X1337469Y966788D01*
X1375569Y928688D01*
X1394619Y928688D01*
X1431925Y965994D01*
X1693862Y965994D01*
X1704181Y955675D01*
G54D16*
X1367631Y899319D02*
X1367631Y912019D01*
X1376362Y920750D01*
X1484312Y920750D01*
X1500188Y936625D01*
X1637506Y936625D01*
X1654175Y919956D01*
X1870857Y919956D01*
X1886664Y904149D01*
G54D16*
X1662112Y940594D02*
X1712119Y940594D01*
X1724819Y927894D01*
X1916906Y927894D01*
X1932781Y912019D01*
X1953419Y912019D01*
X1955800Y914400D01*
G54D16*
X1759664Y904149D02*
X1759664Y903368D01*
X1775619Y887412D01*
X1819127Y887412D01*
X1835864Y904150D01*
X1835864Y901780D01*
X1850231Y887412D01*
X1947862Y887412D01*
X1983581Y923131D01*
X2034381Y923131D01*
X2078831Y878681D01*
X2127250Y878681D01*
X2128044Y879475D01*
G54D16*
X2077164Y900975D02*
X2077164Y900192D01*
X2092325Y885031D01*
X2112020Y885031D01*
X2127964Y900975D01*
G54D16*
X2127964Y900975D02*
X2127975Y900975D01*
X2143125Y885825D01*
X2189014Y885825D01*
X2204164Y900975D01*
G54D16*
X1489789Y904150D02*
X1489789Y908764D01*
X1508919Y927894D01*
X1631950Y927894D01*
X1679575Y880269D01*
X1825625Y880269D01*
X1831181Y885825D01*
X1842294Y885825D01*
X1848644Y879475D01*
X1951038Y879475D01*
X1987550Y915988D01*
X2031206Y915988D01*
X2074069Y873125D01*
X2120900Y873125D01*
X2125662Y868362D01*
X2152650Y868362D01*
X2154238Y869950D01*
G54D16*
X1515189Y904149D02*
X1515189Y910352D01*
X1524794Y919956D01*
X1627981Y919956D01*
X1674812Y873125D01*
X1833562Y873125D01*
X1837531Y869156D01*
G54D16*
X1388189Y904149D02*
X1388189Y900986D01*
X1400175Y889000D01*
X1525440Y889000D01*
X1540589Y904149D01*
G54D16*
X1164352Y904149D02*
X1164352Y906383D01*
X1179512Y921544D01*
X1224756Y921544D01*
X1272381Y873919D01*
X1520031Y873919D01*
X1524000Y869950D01*
X1585119Y869950D01*
X1589881Y865188D01*
X1635919Y865188D01*
X1648619Y877888D01*
G54D16*
X868283Y827156D02*
X868283Y824786D01*
X910431Y782638D01*
X1202531Y782638D01*
X1210469Y774700D01*
X1210469Y769926D01*
X1215152Y765243D01*
G54D16*
X1138952Y827949D02*
X1138952Y825580D01*
X1155700Y808831D01*
X1225550Y808831D01*
X1234281Y801688D01*
X1325562Y801688D01*
X1339056Y812800D01*
X1620838Y812800D01*
X1624012Y809625D01*
G54D16*
X1113552Y827949D02*
X1113552Y823198D01*
X1134269Y802481D01*
X1220788Y802481D01*
X1230312Y794544D01*
X1327944Y794544D01*
X1342231Y806450D01*
X1470025Y806450D01*
X1477169Y799306D01*
G54D16*
X1088152Y827949D02*
X1088152Y823198D01*
X1115219Y796131D01*
X1215231Y796131D01*
X1225550Y787400D01*
X1332706Y787400D01*
X1347788Y800100D01*
X1420019Y800100D01*
X1431925Y788194D01*
X1534319Y788194D01*
X1539081Y783431D01*
X1653381Y783431D01*
X1656556Y780256D01*
G54D16*
X1062752Y827949D02*
X1062752Y823992D01*
X1097756Y788988D01*
X1210469Y788988D01*
X1218406Y781050D01*
X1363662Y781050D01*
X1366838Y784225D01*
G54D16*
X1412081Y787400D02*
X1413669Y787400D01*
X1419225Y781844D01*
X1523195Y781844D01*
X1540589Y764449D01*
G54D16*
X1388189Y764449D02*
X1388189Y761286D01*
X1404144Y745331D01*
X1489075Y745331D01*
X1489869Y744538D01*
G54D16*
X1489789Y764450D02*
X1490594Y764450D01*
X1506538Y748506D01*
X1550046Y748506D01*
X1565989Y764449D01*
G54D16*
X868283Y763656D02*
X869088Y763656D01*
X882650Y750094D01*
X991394Y750094D01*
X1022350Y712788D01*
X1186656Y712788D01*
X1190625Y716756D01*
G54D16*
X817483Y687456D02*
X817483Y686673D01*
X831850Y672306D01*
X918369Y672306D01*
X947738Y642938D01*
X1202531Y642938D01*
X1212056Y633412D01*
X1212056Y627051D01*
X1214358Y624749D01*
G54D16*
X816689Y625543D02*
X816689Y630952D01*
X828675Y642938D01*
X903288Y642938D01*
X907256Y638969D01*
X940594Y638969D01*
X949325Y630238D01*
X994569Y630238D01*
X1042194Y574675D01*
X1185862Y574675D01*
X1188244Y577056D01*
G54D16*
X92869Y451644D02*
X92869Y450056D01*
X119062Y423862D01*
X119062Y396865D01*
X119777Y396150D01*
G54D16*
X132556Y416719D02*
X132556Y434181D01*
X153194Y454819D01*
X203845Y454819D01*
X221377Y472350D01*
G54D16*
X69850Y357188D02*
X71438Y357188D01*
X88900Y374650D01*
X139700Y374650D01*
X143669Y370681D01*
G54D16*
X195977Y396150D02*
X195977Y394574D01*
X211138Y379412D01*
X279400Y379412D01*
X296069Y362744D01*
G54D16*
X277019Y268288D02*
X304800Y268288D01*
X326231Y289719D01*
X330200Y289719D01*
X336550Y296069D01*
G54D16*
X219075Y-342106D02*
X266700Y-342106D01*
G54D16*
X287259Y44519D02*
X287259Y42148D01*
X300831Y28575D01*
X319881Y28575D01*
X328612Y37306D01*
X331788Y37306D01*
X338931Y44450D01*
G54D16*
X368300Y198438D02*
X400844Y198438D01*
X423862Y175419D01*
X652462Y175419D01*
X657225Y180181D01*
X881856Y180181D01*
X885031Y177006D01*
X900112Y177006D01*
X927100Y203994D01*
X1039812Y203994D01*
X1056481Y181769D01*
X1073944Y181769D01*
X1080294Y188119D01*
X1093639Y188119D01*
X1111181Y170576D01*
G54D16*
X441245Y409643D02*
X441245Y411877D01*
X455612Y426244D01*
X739775Y426244D01*
X749300Y435769D01*
X941388Y435769D01*
X950912Y445294D01*
X959644Y445294D01*
G54D16*
X440452Y209618D02*
X440452Y215820D01*
X462756Y238125D01*
X562769Y238125D01*
X571500Y246856D01*
X602456Y246856D01*
X615950Y260350D01*
X637381Y260350D01*
X650081Y247650D01*
X765969Y247650D01*
X789781Y271462D01*
G54D16*
X689690Y270738D02*
X689690Y268366D01*
X702469Y255588D01*
X749300Y255588D01*
X782638Y288925D01*
X801688Y288925D01*
X835025Y255588D01*
X1067594Y255588D01*
X1096962Y284956D01*
X1133475Y284956D01*
X1139825Y291306D01*
X1454150Y291306D01*
X1475581Y269875D01*
X1694656Y269875D01*
X1720850Y296069D01*
X1801019Y296069D01*
X1808956Y288131D01*
X2018506Y288131D01*
X2025650Y295275D01*
X2085975Y295275D01*
X2093119Y302419D01*
X2205831Y302419D01*
X2212975Y295275D01*
X2259012Y295275D01*
X2276475Y312738D01*
X2321719Y312738D01*
X2324100Y310356D01*
G54D16*
X465852Y209618D02*
X465852Y213439D01*
X484981Y232569D01*
X567531Y232569D01*
X574675Y239712D01*
X605631Y239712D01*
X619919Y254000D01*
X631825Y254000D01*
X645319Y240506D01*
X810419Y240506D01*
X815975Y246062D01*
G54D16*
X567452Y209618D02*
X567452Y211852D01*
X581819Y226219D01*
X619125Y226219D01*
X622300Y229394D01*
X632619Y229394D01*
X636588Y233362D01*
X858838Y233362D01*
X865188Y227012D01*
X948531Y227012D01*
X956469Y234950D01*
G54D16*
X352425Y182562D02*
X404812Y182562D01*
X418306Y169069D01*
X654050Y169069D01*
X659606Y174625D01*
X770731Y174625D01*
X778669Y166688D01*
G54D16*
X386556Y163512D02*
X392906Y163512D01*
X395288Y161131D01*
X572294Y161131D01*
X577850Y155575D01*
X969169Y155575D01*
X1011238Y107156D01*
X1148556Y107156D01*
X1151731Y103981D01*
G54D16*
X218281Y635000D02*
X218281Y631825D01*
X235744Y614362D01*
X294481Y614362D01*
X325438Y578644D01*
G54D16*
X593725Y455612D02*
X599281Y455612D01*
X603250Y459581D01*
X1004888Y459581D01*
X1020762Y443706D01*
X1077119Y443706D01*
X1082675Y438150D01*
X1162050Y438150D01*
X1166812Y433388D01*
X1273969Y433388D01*
X1281112Y440531D01*
G54D16*
X740489Y410437D02*
X740489Y415052D01*
X753269Y427831D01*
X952500Y427831D01*
X953294Y427038D01*
G54D16*
X619125Y346869D02*
X619125Y342900D01*
X628650Y333375D01*
X706438Y333375D01*
X711994Y338931D01*
X711994Y343842D01*
X715090Y346938D01*
G54D16*
X1413589Y827950D02*
X1413737Y827950D01*
X1444625Y858838D01*
X1460500Y858838D01*
X1467644Y851694D01*
X1514475Y851694D01*
X1519238Y856456D01*
X1577181Y856456D01*
X1581944Y851694D01*
X1668462Y851694D01*
X1681162Y864394D01*
X1820862Y864394D01*
X1828800Y856456D01*
X1842294Y856456D01*
X1857375Y871538D01*
X1955006Y871538D01*
X1992312Y908844D01*
X2025650Y908844D01*
X2069306Y865188D01*
X2118519Y865188D01*
X2123281Y860425D01*
X2146300Y860425D01*
X2150269Y856456D01*
X2156619Y856456D01*
X2176462Y876300D01*
X2204889Y876300D01*
X2229564Y900975D01*
G54D16*
X2104231Y846931D02*
X2050256Y846931D01*
X2049462Y847725D01*
G54D16*
X2274094Y955675D02*
X2104231Y955675D01*
X2103438Y956469D01*
G54D16*
X2153364Y900975D02*
X2153364Y909557D01*
X2185194Y941388D01*
X2274888Y941388D01*
X2277269Y939006D01*
G54D16*
X1759744Y954881D02*
X1759744Y958850D01*
X1766888Y965994D01*
X2044700Y965994D01*
X2054225Y956469D01*
G54D16*
X1508919Y863600D02*
X1580356Y863600D01*
X1585119Y858838D01*
X1655762Y858838D01*
X1661319Y864394D01*
G54D16*
X1515189Y827950D02*
X1515189Y831770D01*
X1526381Y842962D01*
X1552575Y842962D01*
X1559719Y835819D01*
X1559719Y834220D01*
X1565989Y827950D01*
G54D16*
X1450975Y846931D02*
X1456531Y846931D01*
X1459706Y843756D01*
X1516856Y843756D01*
X1523206Y850106D01*
X1574006Y850106D01*
X1580356Y843756D01*
X1673225Y843756D01*
X1686719Y857250D01*
X1755764Y857250D01*
X1785064Y827950D01*
G54D16*
X1784350Y847725D02*
X1789112Y847725D01*
X1795462Y841375D01*
X1876425Y841375D01*
X1881188Y836612D01*
X1881188Y833426D01*
X1886664Y827950D01*
G54D16*
X1610519Y826294D02*
X1611312Y826294D01*
X1616869Y831850D01*
X1730364Y831850D01*
X1734264Y827950D01*
G54D16*
X1037352Y765243D02*
X1037352Y762873D01*
X1050925Y749300D01*
X1113631Y749300D01*
X1130300Y732631D01*
X1149350Y732631D01*
X1152525Y729456D01*
G54D16*
X1113552Y765243D02*
X1113552Y762080D01*
X1131888Y743744D01*
X1159669Y743744D01*
X1166019Y738981D01*
X1315244Y738981D01*
X1320006Y743744D01*
X1335088Y743744D01*
X1351756Y723106D01*
X1443038Y723106D01*
X1451769Y731044D01*
X1474788Y731044D01*
X1481931Y725488D01*
X1564481Y725488D01*
X1574800Y718344D01*
X1661319Y718344D01*
X1677194Y729456D01*
G54D16*
X1164352Y765243D02*
X1164352Y760492D01*
X1177925Y746919D01*
X1312069Y746919D01*
X1316038Y750888D01*
X1341438Y750888D01*
X1358900Y730250D01*
X1437481Y730250D01*
X1447006Y738188D01*
X1479550Y738188D01*
X1487488Y731838D01*
X1650206Y731838D01*
X1667669Y745331D01*
G54D16*
X1174750Y727075D02*
X1175544Y727075D01*
X1180306Y731838D01*
X1326356Y731838D01*
X1327944Y730250D01*
G54D16*
X1314450Y715962D02*
X1447006Y715962D01*
X1454944Y723900D01*
X1472406Y723900D01*
X1478756Y718344D01*
X1559719Y718344D01*
X1568450Y711994D01*
X1717675Y711994D01*
X1733550Y726281D01*
X1818481Y726281D01*
X1822450Y722312D01*
G54D16*
X1463675Y711200D02*
X1468438Y711200D01*
X1470025Y712788D01*
X1554162Y712788D01*
X1564481Y704850D01*
X1722438Y704850D01*
X1733550Y714375D01*
X1802606Y713581D01*
X1815306Y704056D01*
X1946275Y704056D01*
X1962944Y687388D01*
X1994694Y687388D01*
X2011362Y704056D01*
X2115332Y704056D01*
X2128758Y687456D01*
X2140744Y704056D01*
X2258219Y704056D01*
X2285206Y677069D01*
G54D16*
X1438989Y688250D02*
X1464389Y688250D01*
X1464389Y694452D01*
X1473994Y704056D01*
X1550182Y704056D01*
X1565989Y688250D01*
G54D16*
X1088152Y689043D02*
X1088152Y685086D01*
X1119981Y653256D01*
X1308894Y653256D01*
X1316831Y645319D01*
G54D16*
X1113552Y689043D02*
X1113552Y685880D01*
X1139031Y660400D01*
X1399381Y660400D01*
X1418431Y641350D01*
X1477951Y641350D01*
X1488995Y625543D01*
G54D16*
X1138952Y689043D02*
X1138952Y685880D01*
X1158081Y666750D01*
X1505744Y666750D01*
X1511300Y672306D01*
X1664494Y672306D01*
X1666875Y669925D01*
G54D16*
X1712119Y655638D02*
X1712119Y658812D01*
X1733550Y680244D01*
X1733550Y687535D01*
X1734264Y688250D01*
G54D16*
X1423988Y653256D02*
X1477962Y653256D01*
X1489075Y642144D01*
X1527969Y642144D01*
X1535906Y634206D01*
X1535906Y629432D01*
X1539795Y625543D01*
G54D16*
X1164352Y689043D02*
X1164352Y687467D01*
X1178719Y673100D01*
X1500040Y673100D01*
X1515189Y688250D01*
G54D16*
X1163558Y624749D02*
X1163558Y619204D01*
X1171575Y611188D01*
X1316038Y611188D01*
G54D16*
X1138158Y624750D02*
X1138158Y622380D01*
X1156494Y604044D01*
X1223962Y604044D01*
X1230312Y599281D01*
X1323181Y599281D01*
X1329531Y605631D01*
X1373188Y605631D01*
X1385094Y593725D01*
X1426369Y593725D01*
X1432719Y600075D01*
X1453356Y600075D01*
X1455738Y597694D01*
G54D16*
X1112758Y624749D02*
X1112758Y622380D01*
X1138238Y596900D01*
X1219994Y596900D01*
X1231900Y586581D01*
X1300162Y586581D01*
G54D16*
X1124744Y587375D02*
X1129506Y587375D01*
X1131888Y589756D01*
X1196975Y589756D01*
X1210469Y567531D01*
X1308894Y567531D01*
X1337469Y592138D01*
X1363662Y592138D01*
X1375569Y580231D01*
X1427162Y580231D01*
X1431925Y573881D01*
X1443038Y573881D01*
X1448594Y578644D01*
X1512094Y578644D01*
X1513681Y577056D01*
G54D16*
X1216025Y580231D02*
X1219200Y580231D01*
X1225550Y573881D01*
X1304925Y573881D01*
X1333500Y598488D01*
X1370012Y598488D01*
X1381919Y586581D01*
X1438275Y586581D01*
G54D16*
X1163558Y548549D02*
X1163569Y548549D01*
X1177131Y534988D01*
X1223962Y534988D01*
X1247775Y558800D01*
X1317625Y558800D01*
X1320006Y556419D01*
G54D16*
X1341438Y578644D02*
X1367495Y578644D01*
X1374596Y571543D01*
X1427119Y571543D01*
X1431131Y567531D01*
X1444625Y567531D01*
X1448594Y571500D01*
X1500981Y571500D01*
X1508919Y563562D01*
X1581150Y563562D01*
X1585912Y558800D01*
X1673225Y558800D01*
X1705769Y526256D01*
X1834356Y526256D01*
X1842294Y518319D01*
X1908969Y518319D01*
X1924844Y502444D01*
X2043112Y502444D01*
X2073275Y459581D01*
X2173288Y459581D01*
X2190750Y441325D01*
X2252662Y441325D01*
X2336006Y524669D01*
G54D16*
X2078038Y381794D02*
X2078038Y383381D01*
X2064544Y396875D01*
X2064544Y445294D01*
X2073275Y459581D01*
G54D16*
X2077164Y410437D02*
X2077164Y415051D01*
X2091531Y429419D01*
X2127250Y429419D01*
X2143125Y445294D01*
X2166938Y445294D01*
X2167731Y446088D01*
G54D16*
X2078038Y381794D02*
X2108200Y381794D01*
X2108994Y381000D01*
G54D16*
X1886664Y412024D02*
X1886664Y413464D01*
X1901825Y428625D01*
X1970088Y428625D01*
X1974850Y423862D01*
G54D16*
X1824038Y505619D02*
X1832769Y504031D01*
X1877207Y504031D01*
X1886664Y488224D01*
G54D16*
X1681956Y528638D02*
X1682750Y528638D01*
X1691481Y519906D01*
X1830388Y519906D01*
X1839119Y511175D01*
X1896257Y511175D01*
X1912064Y488224D01*
G54D16*
X1702594Y504031D02*
X1743857Y504031D01*
X1759664Y488224D01*
G54D16*
X1785064Y488224D02*
X1810464Y488224D01*
G54D16*
X1565989Y764449D02*
X1567588Y764449D01*
X1573212Y758825D01*
X1712912Y758825D01*
X1731169Y740569D01*
X1898650Y740569D01*
X1914525Y719931D01*
X1993106Y719931D01*
X1999456Y726281D01*
X2032794Y726281D01*
X2041525Y735012D01*
X2061369Y735012D01*
X2074862Y719138D01*
X2114550Y719138D01*
X2121694Y726281D01*
X2136775Y726281D01*
X2149475Y711200D01*
X2235994Y711200D01*
X2270919Y746125D01*
X2274888Y746125D01*
X2277269Y748506D01*
G54D16*
X1759664Y764449D02*
X1759664Y761286D01*
X1772444Y748506D01*
X1925638Y748506D01*
X1927225Y746919D01*
G54D16*
X1717675Y728662D02*
X1719262Y728662D01*
X1724819Y734219D01*
X1878806Y734219D01*
X1885950Y727075D01*
G54D16*
X1606550Y691356D02*
X1718469Y691356D01*
X1731169Y704056D01*
X1794657Y704056D01*
X1810464Y688250D01*
G54D16*
X1357312Y561975D02*
X1362075Y561975D01*
X1365250Y565150D01*
X1426369Y565150D01*
X1434306Y557212D01*
X1434306Y553232D01*
X1438195Y549343D01*
X1438195Y553164D01*
X1450181Y565150D01*
X1498588Y565150D01*
X1514395Y549343D01*
G54D16*
X1412795Y625543D02*
X1412795Y620792D01*
X1423194Y610394D01*
X1467644Y610394D01*
X1486694Y591344D01*
X1527175Y591344D01*
X1527969Y590550D01*
G54D16*
X1463595Y625543D02*
X1466782Y625543D01*
X1488281Y604044D01*
X1782762Y604044D01*
X1790700Y596106D01*
X1931988Y596106D01*
X1948656Y579438D01*
X2037556Y579438D01*
X2042319Y584200D01*
G54D16*
X1784270Y626337D02*
X1784282Y626337D01*
X1800225Y610394D01*
X1947069Y610394D01*
X1962150Y595312D01*
X1985169Y595312D01*
X1989138Y599281D01*
G54D16*
X1488995Y625543D02*
X1488995Y623174D01*
X1500981Y611188D01*
X1787525Y611188D01*
X1795462Y603250D01*
X1939925Y603250D01*
X1955800Y587375D01*
X2018506Y587375D01*
X2025650Y594519D01*
G54D16*
X1513681Y577056D02*
X1535906Y577056D01*
X1554162Y595312D01*
X1779588Y595312D01*
X1785938Y588962D01*
X1926431Y588962D01*
X1943100Y572294D01*
X2032000Y572294D01*
X2036762Y567531D01*
X2054225Y567531D01*
X2059781Y573088D01*
X2298700Y573088D01*
X2309019Y583406D01*
G54D16*
X2178764Y550137D02*
X2178764Y553164D01*
X2190750Y565150D01*
X2314575Y565150D01*
X2315369Y564356D01*
G54D16*
X2016919Y559594D02*
X2066131Y559594D01*
X2070894Y564356D01*
X2145506Y564356D01*
X2151856Y558006D01*
X2151856Y551645D01*
X2153364Y550137D01*
G54D16*
X1847850Y573881D02*
X1867694Y573881D01*
X1883569Y558006D01*
X1883569Y552438D01*
X1885870Y550137D01*
G54D16*
X1758870Y626337D02*
X1758870Y626982D01*
X1774031Y642144D01*
X1801019Y642144D01*
X1808162Y635000D01*
X1808162Y627844D01*
X1809670Y626337D01*
G54D16*
X1499394Y654050D02*
X1531938Y654050D01*
X1538288Y660400D01*
X1574006Y660400D01*
X1608931Y625475D01*
X1703388Y625475D01*
X1727994Y650081D01*
X1756569Y650081D01*
X1769269Y662781D01*
X1790700Y662781D01*
G54D16*
X1547812Y647700D02*
X1574006Y647700D01*
X1604169Y617538D01*
X1704975Y617538D01*
X1730375Y642938D01*
X1762919Y642938D01*
X1770062Y650081D01*
X1807369Y650081D01*
X1816100Y658812D01*
X1829594Y658812D01*
X1839912Y648494D01*
X2093912Y648494D01*
X2105025Y663575D01*
G54D16*
X1785064Y688250D02*
X1785869Y688250D01*
X1805781Y668338D01*
X1843088Y668338D01*
X1849438Y661988D01*
G54D16*
X1861264Y688250D02*
X1861264Y685086D01*
X1885950Y660400D01*
G54D16*
X1700212Y815181D02*
X1720850Y815181D01*
X1727200Y811212D01*
X1747044Y811212D01*
X1757362Y825648D01*
X1759664Y827950D01*
X1783556Y794544D01*
X1870075Y794544D01*
X1874044Y798512D01*
G54D16*
X1785064Y827950D02*
X1798638Y801688D01*
X1857375Y801688D01*
X1866900Y811212D01*
X1883569Y811212D01*
X1893094Y801688D01*
X1928812Y801688D01*
X1969294Y753269D01*
X2010569Y753269D01*
X2061369Y811212D01*
X2135188Y811212D01*
X2147094Y795338D01*
X2294731Y795338D01*
X2299494Y800100D01*
G54D16*
X1707356Y798512D02*
X1721644Y798512D01*
X1733550Y787400D01*
X1920875Y787400D01*
X1960562Y740569D01*
X2018506Y740569D01*
X2069306Y797719D01*
X2115344Y797719D01*
X2120900Y792162D01*
G54D16*
X1874044Y798512D02*
X1878012Y798512D01*
X1882775Y793750D01*
X1924844Y793750D01*
X1964531Y746919D01*
X2014538Y746919D01*
X2065338Y804069D01*
X2129631Y804069D01*
X2142331Y787400D01*
X2278856Y788194D01*
X2289969Y777081D01*
G54D16*
X1717675Y781844D02*
X1915319Y781844D01*
X1956594Y733425D01*
X2023269Y733425D01*
X2070100Y785812D01*
X2101056Y785812D01*
X2102644Y784225D01*
G54D16*
X2105025Y731838D02*
X2108994Y731838D01*
X2111375Y734219D01*
X2230438Y734219D01*
X2270125Y773906D01*
G54D16*
X1971675Y700881D02*
X1992312Y700881D01*
X2003425Y711994D01*
X2128044Y711994D01*
X2128838Y712788D01*
G54D16*
X1848644Y717550D02*
X1851025Y717550D01*
X1854994Y713581D01*
X1997075Y713581D01*
X2003425Y719931D01*
X2047081Y719931D01*
X2051050Y723900D01*
G54D16*
X2045494Y665162D02*
X2081064Y665162D01*
X2103358Y687456D01*
G54D16*
X2128044Y662781D02*
X2151062Y662781D01*
X2165350Y648494D01*
X2186781Y648494D01*
X2190750Y652462D01*
X2209800Y652462D01*
X2218531Y643731D01*
X2234406Y643731D01*
X2239962Y649288D01*
X2287588Y649288D01*
X2303462Y633412D01*
X2316162Y633412D01*
X2328862Y646112D01*
X2333625Y646112D01*
X2337594Y650081D01*
G54D16*
X2227262Y656431D02*
X2235994Y658812D01*
X2296319Y658812D01*
X2302669Y650875D01*
X2309019Y648494D01*
G54D16*
X1997075Y622300D02*
X2005012Y624681D01*
X2058194Y624681D01*
X2071688Y609600D01*
X2089002Y609600D01*
X2102564Y626337D01*
X2116138Y609600D01*
X2138214Y609600D01*
X2153363Y626337D01*
X2178764Y626337D01*
G54D16*
X1911270Y626337D02*
X1960494Y626337D01*
X1964531Y622300D01*
G54D16*
X1835070Y626337D02*
X1860470Y626337D01*
G54D16*
X1822450Y645319D02*
X1827212Y645319D01*
X1831181Y641350D01*
X2189151Y641350D01*
X2204164Y626337D01*
G54D16*
X2077958Y687456D02*
X2027963Y687456D01*
X2025650Y689769D01*
G54D16*
X1138158Y548549D02*
X1138158Y545386D01*
X1154906Y527844D01*
X1233488Y527844D01*
X1247775Y511969D01*
X1275556Y511969D01*
X1294606Y528638D01*
G54D16*
X1112758Y548549D02*
X1112758Y546973D01*
X1138238Y521494D01*
X1228725Y521494D01*
X1245394Y504031D01*
X1281112Y504031D01*
X1319212Y530225D01*
G54D16*
X1087358Y548549D02*
X1087369Y548549D01*
X1119981Y515938D01*
X1223169Y515938D01*
X1241425Y496888D01*
X1302544Y496888D01*
X1310481Y505619D01*
G54D16*
X1101725Y513556D02*
X1103312Y513556D01*
X1107281Y509588D01*
X1218406Y509588D01*
X1238250Y488156D01*
X1352550Y488156D01*
X1386681Y517525D01*
X1448594Y517525D01*
X1449388Y518319D01*
G54D16*
X1162764Y487431D02*
X1162764Y486648D01*
X1177131Y472281D01*
X1225550Y472281D01*
X1237456Y480219D01*
X1354138Y480219D01*
X1381125Y504031D01*
X1489869Y504031D01*
X1496219Y510381D01*
X1580356Y510381D01*
X1599406Y491331D01*
X1635125Y491331D01*
X1643062Y499269D01*
G54D16*
X1488995Y549343D02*
X1488995Y547767D01*
X1502569Y534194D01*
X1524646Y534194D01*
X1539795Y549343D01*
G54D16*
X1356519Y510381D02*
X1356519Y511175D01*
X1377156Y531812D01*
X1446064Y531812D01*
X1463595Y549343D01*
X1463595Y546974D01*
X1482725Y527844D01*
X1543696Y527844D01*
X1565195Y549343D01*
G54D16*
X1467644Y519112D02*
X1586706Y519112D01*
X1607344Y539750D01*
G54D16*
X1487408Y489812D02*
X1488350Y489812D01*
X1500981Y502444D01*
X1577181Y502444D01*
X1594644Y484981D01*
X1685131Y484981D01*
X1689100Y481012D01*
G54D16*
X959644Y478631D02*
X1012825Y478631D01*
X1018381Y473075D01*
X1097608Y473075D01*
X1111964Y487431D01*
G54D16*
X842089Y486637D02*
X842089Y481886D01*
X858044Y465931D01*
X1106488Y465931D01*
X1119188Y453231D01*
X1174750Y453231D01*
X1175544Y452438D01*
G54D16*
X1125538Y466725D02*
X1229519Y466725D01*
X1239838Y472281D01*
X1413669Y472281D01*
X1422400Y463550D01*
X1458119Y463550D01*
X1468438Y453231D01*
X1500188Y453231D01*
X1500981Y452438D01*
G54D16*
X1194594Y452438D02*
X1197769Y452438D01*
X1200944Y455612D01*
X1228725Y455612D01*
X1244600Y465931D01*
X1411288Y465931D01*
X1420812Y456406D01*
X1443831Y456406D01*
X1450181Y450056D01*
G54D16*
X1085850Y450850D02*
X1112838Y450850D01*
X1117600Y446088D01*
X1163638Y446088D01*
X1168400Y441325D01*
X1225550Y442119D01*
X1246981Y458788D01*
X1406525Y458788D01*
X1414462Y450850D01*
X1428750Y450850D01*
X1442244Y437356D01*
X1456531Y437356D01*
X1466850Y447675D01*
X1486694Y447675D01*
X1493838Y440531D01*
X1506538Y440531D01*
X1514475Y448469D01*
X1639888Y448469D01*
X1654969Y433388D01*
X1673225Y433388D01*
X1675606Y435769D01*
X1804988Y435769D01*
X1812925Y427831D01*
X1874838Y427831D01*
X1882775Y419894D01*
X1882775Y415914D01*
X1886664Y412024D01*
G54D16*
X935831Y404812D02*
X954881Y404812D01*
X987425Y437356D01*
X1069181Y437356D01*
X1077119Y431800D01*
X1123156Y431800D01*
X1135062Y419894D01*
X1135062Y413532D01*
X1137364Y411231D01*
G54D16*
X928688Y385762D02*
X947738Y385762D01*
X992188Y430212D01*
X1067582Y430212D01*
X1086564Y411231D01*
G54D16*
X921544Y368300D02*
X988219Y368300D01*
X1012825Y392906D01*
X1263650Y392906D01*
X1307306Y431006D01*
G54D16*
X1162764Y411231D02*
X1162764Y412670D01*
X1176338Y426244D01*
X1281906Y426244D01*
X1308100Y452438D01*
X1400969Y452438D01*
X1410494Y442912D01*
X1426369Y442912D01*
X1439862Y429419D01*
X1476375Y429419D01*
G54D16*
X1462008Y413612D02*
X1487408Y413612D01*
X1487556Y413612D01*
X1500188Y426244D01*
X1525576Y426244D01*
X1538208Y413612D01*
X1512808Y413612D01*
X1512808Y407274D01*
X1524794Y395288D01*
X1553369Y395288D01*
X1562100Y404019D01*
X1562100Y412104D01*
X1563608Y413612D01*
G54D16*
X920750Y350044D02*
X981869Y350044D01*
X1017588Y385762D01*
X1281112Y385762D01*
X1315244Y414338D01*
G54D16*
X917575Y328612D02*
X970756Y328612D01*
X1020762Y378619D01*
X1293812Y378619D01*
X1316038Y396875D01*
G54D16*
X907256Y313531D02*
X966788Y313531D01*
X1024731Y371475D01*
X1316831Y371475D01*
X1328738Y383381D01*
G54D16*
X904875Y293688D02*
X959644Y293688D01*
X1031081Y365125D01*
X1337469Y365125D01*
X1341438Y369094D01*
G54D16*
X1288981Y322976D02*
X1288981Y322332D01*
X1306512Y304800D01*
X1351756Y304800D01*
X1352550Y304006D01*
G54D16*
X1365181Y322976D02*
X1366124Y322976D01*
X1381125Y307975D01*
X1446212Y307975D01*
X1470819Y283369D01*
X1495425Y283369D01*
X1501775Y289719D01*
X1522412Y289719D01*
X1527969Y284162D01*
G54D16*
X1466781Y322976D02*
X1466781Y298519D01*
X1473994Y291306D01*
X1489075Y291306D01*
X1495425Y297656D01*
X1546225Y297656D01*
X1547019Y296862D01*
G54D16*
X1479550Y304800D02*
X1524805Y304800D01*
X1542981Y322976D01*
G54D16*
X628650Y216694D02*
X631031Y216694D01*
X639762Y225425D01*
X854075Y225425D01*
X861219Y218281D01*
X1079500Y218281D01*
X1145381Y284162D01*
X1412081Y284162D01*
X1443038Y253206D01*
G54D16*
X715883Y208824D02*
X715883Y205661D01*
X727075Y194469D01*
X852488Y194469D01*
X869950Y211931D01*
X1045369Y211931D01*
X1062038Y195262D01*
G54D16*
X690483Y208824D02*
X690483Y208042D01*
X711200Y187325D01*
X888206Y187325D01*
X889794Y188912D01*
G54D16*
X778669Y166688D02*
X781844Y166688D01*
X788988Y173831D01*
X878681Y173831D01*
X881856Y170656D01*
X904875Y170656D01*
X931862Y197644D01*
X1032669Y197644D01*
X1066006Y154781D01*
X1330325Y154781D01*
X1336675Y148431D01*
G54D16*
X566658Y-81687D02*
X567531Y-73025D01*
X604044Y-29369D01*
X633412Y-29369D01*
X638969Y-34925D01*
X743744Y-34925D01*
X750888Y-42069D01*
X827088Y-42069D01*
X842962Y-28575D01*
X931069Y-28575D01*
X933450Y-30956D01*
G54D16*
X592058Y-81687D02*
X592058Y-55642D01*
X611981Y-35719D01*
X627062Y-35719D01*
X633412Y-42069D01*
X741362Y-42069D01*
X747712Y-48419D01*
X834231Y-48419D01*
X847725Y-34925D01*
X901700Y-34925D01*
X908844Y-42069D01*
G54D16*
X619125Y-50006D02*
X737394Y-50006D01*
X741362Y-53975D01*
X838200Y-53975D01*
X850900Y-41275D01*
X881856Y-41275D01*
X889794Y-49212D01*
G54D16*
X604838Y-63500D02*
X624672Y-63500D01*
X642859Y-81687D01*
X642859Y-77073D01*
X664369Y-55562D01*
X725488Y-55562D01*
X731044Y-61119D01*
X840581Y-61119D01*
X846138Y-55562D01*
X862012Y-55562D01*
X865188Y-58738D01*
G54D16*
X504825Y-102394D02*
X508000Y-102394D01*
X511175Y-99219D01*
X750888Y-99219D01*
X783431Y-66675D01*
X854075Y-66675D01*
X874712Y-87312D01*
X888206Y-87312D01*
X896144Y-79375D01*
X945356Y-79375D01*
X1004888Y-19844D01*
X1270000Y-19844D01*
X1278731Y-11112D01*
X1278731Y9525D01*
X1300162Y30956D01*
X1346200Y30956D01*
X1370012Y54769D01*
X1446859Y54769D01*
X1461214Y69124D01*
G54D16*
X490458Y-142011D02*
X490458Y-140574D01*
X522288Y-108744D01*
X750888Y-108744D01*
X785812Y-73819D01*
X850900Y-73819D01*
X872331Y-95250D01*
X890588Y-95250D01*
X899319Y-86519D01*
X948531Y-86519D01*
X1006475Y-28575D01*
X1273175Y-28575D01*
X1286669Y-15081D01*
X1286669Y7144D01*
X1301750Y22225D01*
X1349375Y22225D01*
X1374775Y47625D01*
X1459706Y47625D01*
X1461294Y46038D01*
G54D16*
X1410494Y34131D02*
X1488281Y34131D01*
X1490662Y36512D01*
G54D16*
X1384300Y15875D02*
X1359614Y2424D01*
X1359614Y-7076D01*
G54D16*
X592058Y-142011D02*
X592058Y-138986D01*
X615950Y-115094D01*
X754062Y-115094D01*
X788194Y-80962D01*
X846931Y-80962D01*
X867569Y-101600D01*
X894556Y-101600D01*
X902494Y-93662D01*
X950912Y-93662D01*
X1008062Y-36512D01*
X1303338Y-36512D01*
X1320800Y-19050D01*
X1398440Y-19050D01*
X1410414Y-7076D01*
G54D16*
X869156Y-117475D02*
X888206Y-117475D01*
X904875Y-100806D01*
X954881Y-100806D01*
X1012825Y-42862D01*
X1307306Y-42862D01*
X1323975Y-26194D01*
X1461294Y-26194D01*
X1473200Y-38100D01*
G54D16*
X1461214Y-7076D02*
X1464401Y-7076D01*
X1478756Y-21431D01*
X1570038Y-21431D01*
X1574006Y-25400D01*
G54D16*
X1161177Y-68194D02*
X1161177Y-65961D01*
X1178719Y-48419D01*
X1323975Y-48419D01*
X1328738Y-43656D01*
G54D16*
X1262777Y-68194D02*
X1262777Y-67548D01*
X1269206Y-61119D01*
X1329531Y-61119D01*
X1348581Y-42069D01*
X1384300Y-42069D01*
X1386681Y-44450D01*
G54D16*
X1537494Y-44450D02*
X1534319Y-44450D01*
X1527175Y-37306D01*
X1473994Y-37306D01*
X1473200Y-38100D01*
G54D16*
X1448594Y-39688D02*
X1412081Y-39688D01*
X1411288Y-40481D01*
G54D16*
X1385808Y-65020D02*
X1385955Y-65020D01*
X1398588Y-52388D01*
X1500176Y-52388D01*
X1512808Y-65020D01*
G54D16*
X466725Y-164306D02*
X468162Y-164306D01*
X490458Y-142011D01*
G54D16*
X440531Y-175419D02*
X482450Y-175419D01*
X515858Y-142011D01*
G54D16*
X617458Y-142011D02*
X617458Y-138192D01*
X634206Y-121444D01*
X792162Y-121444D01*
X794544Y-119062D01*
X811212Y-119062D01*
X812800Y-120650D01*
G54D16*
X911225Y11112D02*
X989806Y94456D01*
X1130300Y94456D01*
X1139825Y84931D01*
X1177925Y84931D01*
X1183481Y79375D01*
X1183481Y73807D01*
X1188164Y69124D01*
G54D16*
X896938Y-3175D02*
X904081Y0D01*
X916781Y0D01*
X997744Y86519D01*
X1124732Y86519D01*
X1133475Y78581D01*
X1137364Y69124D01*
G54D16*
X921544Y-17462D02*
X923925Y-10319D01*
X985044Y56356D01*
X1073797Y56356D01*
X1086564Y69124D01*
G54D16*
X933450Y-30956D02*
X937419Y-23019D01*
X1005681Y50006D01*
X1115219Y50006D01*
X1130300Y34925D01*
X1229519Y34925D01*
X1235869Y28575D01*
G54D16*
X1162764Y69124D02*
X1162776Y69124D01*
X1179512Y52388D01*
X1249362Y52388D01*
X1250950Y50800D01*
G54D16*
X1138238Y46038D02*
X1240631Y46038D01*
X1246981Y39688D01*
X1339850Y39688D01*
X1343819Y43656D01*
G54D16*
X1323975Y3175D02*
X1342231Y3175D01*
X1370806Y31750D01*
X1391444Y31750D01*
X1400969Y22225D01*
X1547812Y22225D01*
X1554956Y29369D01*
X1609725Y29369D01*
X1618456Y20638D01*
G54D16*
X1385014Y-7076D02*
X1385014Y-5636D01*
X1404144Y13494D01*
X1561306Y13494D01*
X1563688Y15875D01*
G54D16*
X1562814Y-7076D02*
X1565275Y794D01*
X1582738Y13494D01*
X1604169Y13494D01*
X1617662Y0D01*
X1635125Y0D01*
X1635919Y794D01*
G54D16*
X908844Y-42069D02*
X912812Y-42069D01*
X916781Y-43656D01*
X939800Y-43656D01*
X1018381Y42069D01*
X1111250Y42069D01*
X1125538Y27781D01*
X1215231Y27781D01*
X1228725Y14288D01*
X1245394Y14288D01*
X1246188Y13494D01*
G54D16*
X889794Y-49212D02*
X891381Y-49212D01*
X895350Y-53181D01*
X942181Y-53181D01*
X1021556Y34925D01*
X1107281Y34925D01*
X1120775Y21431D01*
X1166812Y21431D01*
X1185862Y2381D01*
X1185862Y-4774D01*
X1188164Y-7076D01*
G54D16*
X865188Y-58738D02*
X871538Y-58738D01*
X874712Y-61912D01*
X944562Y-61912D01*
X1025525Y27781D01*
X1098550Y27781D01*
X1112838Y13494D01*
X1123156Y13494D01*
X1133475Y3175D01*
X1133475Y-3187D01*
X1137364Y-7076D01*
G54D16*
X881856Y-76200D02*
X885031Y-76200D01*
X889000Y-72231D01*
X943769Y-72231D01*
X1028700Y19844D01*
X1066800Y19844D01*
X1085056Y1588D01*
X1085056Y-5568D01*
X1086564Y-7076D01*
G54D16*
X2053431Y613569D02*
X2055019Y613569D01*
X2069306Y599281D01*
X2141538Y599281D01*
X2152650Y610394D01*
X2213620Y610394D01*
X2229564Y626337D01*
G54D16*
X1835070Y550137D02*
X1860470Y550137D01*
X1809670Y550137D01*
X1809670Y548561D01*
X1825625Y532606D01*
X1839912Y532606D01*
X1847056Y525462D01*
X1917700Y525462D01*
X1956594Y564356D01*
X1989138Y564356D01*
X2007394Y546100D01*
X2073127Y546100D01*
X2077164Y550137D01*
G54D16*
X1996281Y525462D02*
X2001838Y525462D01*
X2010569Y534194D01*
X2096294Y534194D01*
X2102644Y527844D01*
G54D16*
X2102564Y550137D02*
X2102564Y547768D01*
X2117725Y532606D01*
X2174875Y532606D01*
X2178844Y528638D01*
G54D16*
X1974056Y549275D02*
X1974056Y524669D01*
X1987550Y511175D01*
X2078831Y511175D01*
X2081212Y513556D01*
G54D16*
X1563608Y489812D02*
X1563608Y486649D01*
X1573212Y477044D01*
X1676400Y477044D01*
X1685131Y468312D01*
X1860550Y468312D01*
X1865312Y473075D01*
X2015331Y473075D01*
X2024062Y481806D01*
X2035969Y481806D01*
X2036762Y481012D01*
G54D16*
X1512808Y489812D02*
X1512808Y485061D01*
X1527969Y469900D01*
X1670844Y469900D01*
X1679575Y461169D01*
X1862931Y461169D01*
X1868488Y466725D01*
X2025650Y466725D01*
X2028031Y464344D01*
G54D16*
X1889125Y444500D02*
X1889125Y450850D01*
X1897062Y458788D01*
X2005806Y458788D01*
X2014538Y450056D01*
G54D16*
X1662906Y454025D02*
X1872456Y454025D01*
X1873250Y453231D01*
G54D16*
X1462008Y489812D02*
X1462008Y482680D01*
X1472406Y472281D01*
X1512888Y472281D01*
X1522412Y462756D01*
X1654175Y462756D01*
X1662906Y454025D01*
G54D16*
X1411208Y489812D02*
X1411208Y485855D01*
X1425575Y471488D01*
X1461294Y471488D01*
X1468438Y464344D01*
X1510506Y464344D01*
X1519238Y455612D01*
X1645444Y455612D01*
X1659731Y441325D01*
X1674019Y441325D01*
X1679575Y446881D01*
X1862931Y446881D01*
X1870075Y439738D01*
X1884362Y439738D01*
X1889125Y444500D01*
G54D16*
X1675606Y419894D02*
X1685131Y429419D01*
X1793070Y429419D01*
X1810464Y412024D01*
G54D16*
X1670050Y392112D02*
X1670844Y392112D01*
X1675606Y396875D01*
X1846114Y396875D01*
X1861264Y412024D01*
G54D16*
X1764506Y381000D02*
X1766094Y381000D01*
X1774031Y388938D01*
X1937544Y388938D01*
X1949450Y397669D01*
X1966912Y397669D01*
X1998662Y365919D01*
X2114550Y365919D01*
X2126456Y377825D01*
X2147888Y377825D01*
X2172494Y402431D01*
X2172494Y404167D01*
X2178764Y410437D01*
G54D16*
X2102564Y350112D02*
X2106681Y350112D01*
X2125662Y369094D01*
X2189162Y369094D01*
X2190750Y370681D01*
G54D16*
X2099469Y323850D02*
X2156619Y323850D01*
X2158206Y322262D01*
G54D16*
X1860470Y347731D02*
X1860470Y342980D01*
X1871662Y331788D01*
X1917700Y331788D01*
X1957388Y371475D01*
X1957388Y380206D01*
X1958181Y381000D01*
G54D16*
X1758870Y347731D02*
X1758870Y346155D01*
X1772444Y332581D01*
X1819920Y332581D01*
X1835070Y347731D01*
G54D16*
X1835150Y320675D02*
X1839912Y320675D01*
X1844675Y315912D01*
X1960562Y315912D01*
X1980406Y335756D01*
X1980406Y337344D01*
X1985169Y342106D01*
G54D16*
X1814512Y319088D02*
X1816894Y319088D01*
X1827212Y308769D01*
X1978025Y308769D01*
X2004219Y334962D01*
X2193131Y334962D01*
X2211388Y316706D01*
X2229644Y316706D01*
G54D16*
X2204164Y350112D02*
X2204164Y348536D01*
X2216944Y335756D01*
X2284412Y335756D01*
X2285206Y336550D01*
G54D16*
X2127964Y410437D02*
X2127964Y415052D01*
X2146300Y433388D01*
X2247900Y433388D01*
X2254250Y427038D01*
X2282031Y427038D01*
G54D16*
X2153364Y410437D02*
X2153364Y415052D01*
X2163762Y425450D01*
X2240756Y425450D01*
X2282825Y376238D01*
G54D16*
X2232025Y381794D02*
X2263775Y381794D01*
X2282031Y363538D01*
G54D16*
X1450181Y377825D02*
X1599406Y377825D01*
X1653381Y323850D01*
X1795462Y323850D01*
X1816100Y303212D01*
X1993106Y303212D01*
X2001838Y311944D01*
X2001838Y314325D01*
X2013744Y326231D01*
X2078831Y326231D01*
X2095500Y309562D01*
X2210594Y309562D01*
X2216150Y304006D01*
X2258219Y304006D01*
X2274888Y320675D01*
X2318544Y320675D01*
X2325688Y327819D01*
G54D16*
X1791494Y307975D02*
X1801019Y307975D01*
X1813719Y295275D01*
X2011362Y295275D01*
X2020094Y304006D01*
X2074069Y304006D01*
X2078831Y308769D01*
G54D16*
X1733470Y271531D02*
X1733470Y273764D01*
X1747838Y288131D01*
X1793070Y288131D01*
X1809670Y271531D01*
G54D16*
X1716088Y254000D02*
X1741339Y254000D01*
X1758870Y271531D01*
X1758870Y269955D01*
X1773238Y255588D01*
X1844526Y255588D01*
X1860470Y271531D01*
G54D16*
X1119188Y236538D02*
X1158081Y275431D01*
X1397000Y276225D01*
X1434306Y240506D01*
X1876425Y240506D01*
X1916906Y280988D01*
X2023269Y280988D01*
X2031206Y288925D01*
X2089150Y288925D01*
X2097088Y296862D01*
X2201069Y296862D01*
X2209006Y288925D01*
X2263775Y288925D01*
X2280444Y305594D01*
X2303462Y305594D01*
X2320131Y288925D01*
X2320131Y261938D01*
X2323306Y258762D01*
G54D16*
X2077164Y273912D02*
X2098675Y288131D01*
X2189945Y288131D01*
X2204164Y273912D01*
G54D16*
X2178764Y273912D02*
X2181950Y273912D01*
X2197894Y257969D01*
X2246312Y257969D01*
X2282031Y293688D01*
X2295525Y293688D01*
X2297112Y292100D01*
G54D16*
X2102564Y273912D02*
X2127964Y273912D01*
X2127964Y272336D01*
X2141538Y258762D01*
X2185988Y258762D01*
X2193131Y251619D01*
X2262981Y251619D01*
X2278062Y266700D01*
G54D16*
X2077164Y273912D02*
X2077164Y272336D01*
X2092325Y257175D01*
X2121694Y257175D01*
X2126456Y252412D01*
G54D16*
X2103438Y245269D02*
X2107406Y245269D01*
X2111375Y241300D01*
X2149475Y241300D01*
X2153444Y245269D01*
G54D16*
X2179638Y246062D02*
X2186781Y246062D01*
X2189956Y242888D01*
X2283619Y242888D01*
X2289175Y237331D01*
X2328069Y237331D01*
X2329656Y235744D01*
G54D16*
X2229564Y212794D02*
X2229564Y224551D01*
X2238375Y233362D01*
X2270919Y233362D01*
X2273300Y230981D01*
G54D16*
X2102564Y212793D02*
X2102564Y215026D01*
X2113756Y226219D01*
X2190738Y226219D01*
X2204164Y212794D01*
G54D16*
X1809670Y210412D02*
X1809670Y214232D01*
X1823244Y227806D01*
X1986756Y227806D01*
X2019300Y260350D01*
X2036762Y260350D01*
X2062956Y234156D01*
X2212181Y234156D01*
X2215356Y230981D01*
G54D16*
X1466056Y219075D02*
X1471612Y219075D01*
X1483519Y230981D01*
X1763701Y230981D01*
X1784270Y210412D01*
G54D16*
X789781Y271462D02*
X811212Y271462D01*
X834231Y248444D01*
X1090612Y248444D01*
X1103312Y261144D01*
G54D16*
X1154112Y230981D02*
X1154112Y232569D01*
X1189831Y268288D01*
X1388269Y268288D01*
X1454944Y207169D01*
X1637506Y207169D01*
X1681956Y162719D01*
X1706562Y162719D01*
X1728788Y185738D01*
X1958975Y185738D01*
X1962150Y188912D01*
X2286000Y190500D01*
X2293938Y185738D01*
G54D16*
X1701006Y177800D02*
X1717675Y194469D01*
X1844527Y194469D01*
X1860470Y210412D01*
X1870869Y195262D01*
X2264569Y195262D01*
X2279650Y210344D01*
X2299494Y210344D01*
X2320131Y189706D01*
X2320131Y152400D01*
X2320925Y151606D01*
G54D16*
X1236662Y250031D02*
X1236662Y250825D01*
X1246981Y261144D01*
X1384300Y261144D01*
X1453356Y200025D01*
X1630362Y200819D01*
X1677194Y153988D01*
X1707356Y153988D01*
X1732756Y179388D01*
X1962944Y179388D01*
X1966912Y183356D01*
X2147094Y183356D01*
X2165350Y165100D01*
G54D16*
X1733470Y134212D02*
X1733470Y134858D01*
X1754188Y155575D01*
X1907381Y155575D01*
X1910556Y158750D01*
G54D16*
X1758870Y134212D02*
X1758870Y137239D01*
X1771650Y150019D01*
X1870064Y150019D01*
X1885870Y134212D01*
X1911270Y134212D01*
G54D16*
X1784270Y134212D02*
X1784270Y130255D01*
X1797050Y117475D01*
X1821656Y117475D01*
X1829594Y125412D01*
X1829594Y128736D01*
X1835070Y134212D01*
G54D16*
X1773238Y113506D02*
X1779588Y113506D01*
X1785144Y107950D01*
X1826419Y107950D01*
X1851025Y127000D01*
X1853258Y127000D01*
X1860470Y134212D01*
G54D16*
X1462088Y147638D02*
X1465262Y147638D01*
X1471612Y153988D01*
X1500992Y153988D01*
X1517581Y170576D01*
G54D16*
X1440656Y137319D02*
X1445419Y137319D01*
X1448594Y134144D01*
X1468438Y134144D01*
X1479550Y145256D01*
X1519238Y145256D01*
X1536700Y162719D01*
X1536700Y164296D01*
X1542981Y170576D01*
G54D16*
X1500981Y128588D02*
X1504950Y128588D01*
X1508919Y132556D01*
X1618456Y132556D01*
X1621631Y135731D01*
G54D16*
X1381919Y145256D02*
X1413669Y145256D01*
X1441450Y117475D01*
X1516062Y117475D01*
X1520031Y121444D01*
X1764506Y117475D01*
X1773238Y113506D01*
G54D16*
X1406525Y128588D02*
X1407319Y128588D01*
X1425575Y110331D01*
X1599406Y110331D01*
X1616075Y93662D01*
X1751806Y93662D01*
X1752600Y94456D01*
G54D16*
X1620838Y107156D02*
X1761331Y107156D01*
X1769269Y99219D01*
X1831181Y99219D01*
X1847850Y115888D01*
X1914525Y115888D01*
X1950244Y167481D01*
X2110581Y167481D01*
X2116931Y161131D01*
G54D16*
X2013744Y134938D02*
X2014538Y134938D01*
X2030412Y150812D01*
X2088345Y150812D01*
X2102564Y136594D01*
G54D16*
X1135856Y216694D02*
X1160462Y216694D01*
X1181894Y238125D01*
X1243012Y238125D01*
X1258888Y254000D01*
X1381125Y254000D01*
X1451769Y192881D01*
X1624806Y192881D01*
X1673225Y144462D01*
X1710531Y144462D01*
X1737519Y171450D01*
X2128838Y175419D01*
X2141538Y163512D01*
G54D16*
X1174750Y213519D02*
X1174750Y219075D01*
X1185862Y230188D01*
X1246188Y230188D01*
X1262856Y246856D01*
X1377801Y246856D01*
X1466781Y170576D01*
G54D16*
X1149350Y204788D02*
X1152525Y204788D01*
X1156494Y200819D01*
X1181100Y200819D01*
X1203325Y223044D01*
X1249362Y223044D01*
X1266031Y239712D01*
X1364307Y239712D01*
X1441381Y170576D01*
G54D16*
X1123156Y198438D02*
X1125538Y198438D01*
X1130300Y193675D01*
X1186656Y193675D01*
X1209675Y216694D01*
X1254919Y216694D01*
X1270794Y232569D01*
X1346845Y232569D01*
X1415981Y170576D01*
G54D16*
X1106488Y192088D02*
X1112838Y192088D01*
X1118394Y186531D01*
X1193006Y186531D01*
X1216025Y209550D01*
X1258094Y209550D01*
X1273969Y225425D01*
X1330176Y225425D01*
X1390581Y170576D01*
G54D16*
X1300956Y204788D02*
X1334939Y204788D01*
X1365181Y170576D01*
G54D16*
X1224756Y189706D02*
X1224756Y190500D01*
X1235869Y201612D01*
X1285081Y201612D01*
X1293812Y192881D01*
X1319212Y192881D01*
X1334294Y177800D01*
X1334294Y176064D01*
X1339781Y170576D01*
G54D16*
X1251744Y188912D02*
X1256506Y188912D01*
X1260475Y184944D01*
X1300014Y184944D01*
X1314381Y170576D01*
G54D16*
X1562814Y69124D02*
X1562814Y67548D01*
X1574800Y55562D01*
X1622425Y55562D01*
X1640681Y73819D01*
G54D16*
X1512014Y69124D02*
X1524794Y57150D01*
X1558925Y57150D01*
X1567656Y49212D01*
X1629569Y49212D01*
X1648619Y57150D01*
G54D16*
X1461214Y69124D02*
X1461226Y69124D01*
X1474788Y55562D01*
X1513681Y55562D01*
X1519238Y50006D01*
X1555750Y50006D01*
X1563688Y42069D01*
X1652588Y42069D01*
X1654969Y39688D01*
G54D16*
X1490662Y36512D02*
X1634331Y36512D01*
X1649412Y21431D01*
X1661319Y21431D01*
X1662112Y22225D01*
G54D16*
X1574006Y-25400D02*
X1668462Y-25400D01*
X1669256Y-24606D01*
G54D16*
X1538208Y-65020D02*
X1538355Y-65020D01*
X1564481Y-38894D01*
X1666875Y-38894D01*
X1682750Y-54769D01*
G54D16*
X1563608Y-65020D02*
X1563608Y-59611D01*
X1577975Y-45244D01*
X1652588Y-45244D01*
X1675606Y-72231D01*
G54D16*
X1589008Y-65019D02*
X1589008Y-62786D01*
X1598612Y-53181D01*
X1638300Y-53181D01*
X1667669Y-91281D01*
G54D16*
X1436608Y-65020D02*
X1436608Y-72946D01*
X1443831Y-80169D01*
X1578769Y-80169D01*
X1588294Y-89694D01*
G54D16*
X1411208Y-65020D02*
X1411208Y-69771D01*
X1428750Y-87312D01*
X1554162Y-87312D01*
X1561306Y-94456D01*
G54D16*
X1135777Y-68194D02*
X1135788Y-68194D01*
X1150144Y-82550D01*
X1393031Y-82550D01*
X1397794Y-87312D01*
G54D16*
X1110377Y-68195D02*
X1110377Y-68977D01*
X1123950Y-82550D01*
X1139031Y-82550D01*
X1144588Y-88106D01*
X1382712Y-88106D01*
X1392238Y-100012D01*
X1407319Y-100012D01*
X1412875Y-94456D01*
X1535906Y-94456D01*
X1543844Y-108744D01*
G54D16*
X1084977Y-68195D02*
X1084977Y-70564D01*
X1103312Y-88900D01*
X1131888Y-88900D01*
X1137444Y-94456D01*
X1375569Y-94456D01*
X1393031Y-111919D01*
X1408906Y-111919D01*
X1410494Y-113506D01*
G54D16*
X1434306Y-114300D02*
X1442244Y-116681D01*
X1491445Y-116681D01*
X1512808Y-141220D01*
G54D16*
X1512808Y-141220D02*
X1512808Y-136604D01*
X1527175Y-122238D01*
X1548606Y-122238D01*
X1554162Y-116681D01*
X1624806Y-116681D01*
X1639888Y-101600D01*
X1658938Y-101600D01*
X1666081Y-113506D01*
X1688306Y-113506D01*
X1689894Y-115094D01*
G54D16*
X1538208Y-141220D02*
X1538356Y-141220D01*
X1554162Y-125412D01*
X1638300Y-125412D01*
X1649412Y-114300D01*
G54D16*
X807244Y-97631D02*
X843756Y-97631D01*
X854075Y-107950D01*
X854075Y-122238D01*
X862012Y-130175D01*
X884238Y-130175D01*
X905669Y-108744D01*
X961231Y-108744D01*
X987425Y-82550D01*
X1086644Y-82550D01*
X1100138Y-96044D01*
X1129506Y-96044D01*
X1135856Y-102394D01*
X1369219Y-102394D01*
X1392238Y-125412D01*
X1471601Y-125412D01*
X1487408Y-141220D01*
G54D16*
X1084262Y-103188D02*
X1126331Y-103188D01*
X1133475Y-110331D01*
X1353344Y-110331D01*
X1366044Y-123031D01*
G54D16*
X744458Y-142011D02*
X744458Y-145970D01*
X757238Y-158750D01*
X846931Y-158750D01*
X870744Y-138906D01*
X989806Y-138906D01*
G54D16*
X719058Y-142011D02*
X719058Y-144383D01*
X739775Y-165100D01*
X850900Y-165100D01*
X873919Y-146844D01*
X927894Y-146844D01*
X935831Y-154781D01*
G54D16*
X693658Y-142011D02*
X693658Y-145176D01*
X720725Y-172244D01*
X852488Y-172244D01*
X877888Y-153194D01*
X915988Y-153194D01*
X935038Y-172244D01*
X952500Y-172244D01*
X953294Y-173038D01*
G54D16*
X989806Y-138906D02*
X989806Y-137319D01*
X1009650Y-117475D01*
X1092200Y-117475D01*
X1104106Y-129381D01*
X1125526Y-129381D01*
X1135777Y-144395D01*
G54D16*
X935831Y-154781D02*
X992188Y-154781D01*
X1020762Y-126206D01*
X1072356Y-126206D01*
X1082675Y-136525D01*
X1082675Y-142092D01*
X1084977Y-144394D01*
G54D16*
X1069181Y-173038D02*
X1073150Y-173038D01*
X1077912Y-177800D01*
X1287462Y-177800D01*
X1315244Y-142081D01*
X1359546Y-142081D01*
X1360408Y-141220D01*
G54D16*
X1436608Y-141220D02*
X1436608Y-147558D01*
X1447006Y-157956D01*
X1520031Y-157956D01*
X1525588Y-163512D01*
G54D16*
X1411208Y-141219D02*
X1411208Y-149146D01*
X1427956Y-165894D01*
X1508125Y-165894D01*
X1516856Y-174625D01*
X1529556Y-174625D01*
X1543844Y-160338D01*
X1653381Y-160338D01*
X1661319Y-168275D01*
G54D16*
X1635919Y-147638D02*
X1637506Y-147638D01*
X1658144Y-127000D01*
X1704975Y-127000D01*
X1719262Y-146050D01*
X1901825Y-146050D01*
X1906588Y-150812D01*
G54D16*
X1385808Y-141220D02*
X1385808Y-149146D01*
X1408906Y-172244D01*
X1500981Y-172244D01*
X1509712Y-180975D01*
X1533525Y-180975D01*
X1547019Y-167481D01*
X1639094Y-167481D01*
X1643856Y-172244D01*
G54D16*
X1360408Y-141220D02*
X1360408Y-146764D01*
X1390650Y-179388D01*
X1497012Y-179388D01*
X1504950Y-187325D01*
X1537494Y-187325D01*
X1550194Y-174625D01*
X1627981Y-174625D01*
X1639888Y-186531D01*
X1662112Y-186531D01*
X1695450Y-153194D01*
X1697038Y-140494D01*
G54D16*
X1034177Y-144394D02*
X1034177Y-154702D01*
X1064419Y-184944D01*
X1317625Y-184944D01*
X1354138Y-221456D01*
X1541462Y-221456D01*
X1547812Y-215106D01*
X1547812Y-196056D01*
X1556544Y-187325D01*
X1613694Y-187325D01*
X1641475Y-207169D01*
X1842146Y-207169D01*
X1857295Y-192019D01*
X1882695Y-192019D01*
X1882695Y-188198D01*
X1887538Y-183356D01*
X1890712Y-183356D01*
X1898650Y-175419D01*
X1931194Y-175419D01*
X1940719Y-184944D01*
X1966119Y-184944D01*
X1983581Y-174625D01*
X2178050Y-172244D01*
X2187575Y-180975D01*
G54D16*
X1855788Y-162719D02*
X1858962Y-162719D01*
X1865312Y-156369D01*
X1891506Y-156369D01*
X1897856Y-162719D01*
X1957388Y-162719D01*
G54D16*
X1882775Y-170656D02*
X1890712Y-169069D01*
X1937544Y-169069D01*
X1944688Y-175419D01*
X1965325Y-175419D01*
X1979612Y-166688D01*
X2192326Y-163512D01*
X2226388Y-200750D01*
G54D16*
X668258Y-142011D02*
X668258Y-144383D01*
X702469Y-178594D01*
X850106Y-178594D01*
X865188Y-193675D01*
X960438Y-193675D01*
X964406Y-197644D01*
G54D16*
X953294Y-173038D02*
X989806Y-173038D01*
X1028700Y-220662D01*
X1070622Y-220662D01*
X1084977Y-206307D01*
G54D16*
X1015206Y-179388D02*
X1029494Y-191294D01*
X1150132Y-191294D01*
X1161177Y-206307D01*
G54D16*
X875506Y-183356D02*
X988219Y-183356D01*
X1024731Y-227012D01*
X1077912Y-227012D01*
X1084262Y-220662D01*
X1099990Y-220662D01*
X1110377Y-206307D01*
G54D16*
X964406Y-197644D02*
X967581Y-197644D01*
X970756Y-194469D01*
X989012Y-194469D01*
X1022350Y-234156D01*
X1081881Y-234156D01*
X1088231Y-227806D01*
X1146969Y-227806D01*
X1148556Y-226219D01*
G54D16*
X975519Y-213519D02*
X996156Y-213519D01*
X1019175Y-240506D01*
X1133475Y-240506D01*
X1134269Y-241300D01*
G54D16*
X642858Y-142011D02*
X642858Y-143589D01*
X685800Y-186531D01*
X848519Y-186531D01*
X862806Y-200819D01*
X951706Y-201612D01*
X959644Y-211931D01*
X973931Y-211931D01*
X975519Y-213519D01*
G54D16*
X566658Y-142011D02*
X566667Y-142011D01*
X620712Y-196056D01*
X821531Y-196056D01*
X824706Y-199231D01*
X828675Y-199231D01*
X832644Y-195262D01*
X846931Y-195262D01*
X858838Y-207169D01*
X944562Y-207169D01*
X960438Y-225425D01*
X997744Y-225425D01*
X1015206Y-246856D01*
X1123156Y-246856D01*
X1128712Y-252412D01*
X1337469Y-252412D01*
X1362075Y-231775D01*
X1446212Y-231775D01*
X1447800Y-233362D01*
G54D16*
X788988Y-212725D02*
X793750Y-212725D01*
X797719Y-216694D01*
X820738Y-216694D01*
X827088Y-210344D01*
X848519Y-210344D01*
X852488Y-214312D01*
X939800Y-214312D01*
X957262Y-231775D01*
X993775Y-231775D01*
X1012825Y-254000D01*
X1120775Y-254000D01*
X1127125Y-260350D01*
X1339056Y-260350D01*
X1364456Y-238919D01*
X1435100Y-238919D01*
X1442244Y-246062D01*
X1452562Y-246062D01*
X1466850Y-234950D01*
X1473200Y-233362D01*
G54D16*
X706438Y-250825D02*
X711200Y-250825D01*
X713581Y-248444D01*
X788988Y-248444D01*
X794544Y-242888D01*
X838200Y-242888D01*
X860425Y-220662D01*
X936625Y-220662D01*
X953294Y-237331D01*
X990600Y-237331D01*
X1010444Y-261938D01*
X1119188Y-261144D01*
X1125538Y-267494D01*
X1346189Y-267494D01*
X1358820Y-280126D01*
X1358820Y-279480D01*
X1387475Y-250825D01*
X1421606Y-250825D01*
X1423194Y-252412D01*
G54D16*
X1439069Y-260350D02*
X1463675Y-249238D01*
X1481931Y-249238D01*
X1482725Y-248444D01*
G54D16*
X1237377Y-206307D02*
X1237377Y-208677D01*
X1250156Y-221456D01*
X1272381Y-221456D01*
X1279525Y-214312D01*
X1305719Y-214312D01*
X1312862Y-221456D01*
G54D16*
X1211977Y-206307D02*
X1211977Y-207883D01*
X1233488Y-229394D01*
X1277144Y-229394D01*
X1281112Y-225425D01*
X1300956Y-225425D01*
X1315244Y-239712D01*
G54D16*
X1148556Y-226219D02*
X1213644Y-226219D01*
X1227138Y-239712D01*
X1288256Y-239712D01*
X1289050Y-240506D01*
G54D16*
X827088Y-258762D02*
X833438Y-258762D01*
X865188Y-227012D01*
X931862Y-227012D01*
X948531Y-243681D01*
X987425Y-243681D01*
X1026319Y-297656D01*
X1046809Y-297656D01*
X1059577Y-282507D01*
G54D16*
X923925Y-254000D02*
X985044Y-253206D01*
X1020762Y-303212D01*
X1054100Y-303212D01*
X1059656Y-297656D01*
X1220788Y-297656D01*
X1224756Y-301625D01*
G54D16*
X945356Y-268288D02*
X986631Y-268288D01*
X1016000Y-310356D01*
X1057275Y-310356D01*
X1062831Y-304800D01*
X1213644Y-304800D01*
X1220788Y-311944D01*
X1231900Y-311944D01*
X1237456Y-306388D01*
X1237456Y-282586D01*
X1237377Y-282507D01*
G54D16*
X905669Y-280988D02*
X985044Y-280988D01*
X1009650Y-317500D01*
X1060450Y-317500D01*
X1065212Y-312738D01*
X1206500Y-312738D01*
X1212056Y-318294D01*
X1235075Y-318294D01*
X1239838Y-313531D01*
X1261269Y-313531D01*
X1262856Y-315119D01*
G54D16*
X963612Y-354806D02*
X997744Y-354806D01*
X1027112Y-325438D01*
X1062038Y-325438D01*
X1067594Y-319881D01*
X1172357Y-319881D01*
X1186577Y-344420D01*
G54D16*
X1186577Y-344420D02*
X1186577Y-342980D01*
X1203325Y-326231D01*
X1305719Y-326231D01*
X1309688Y-330200D01*
X1327150Y-330200D01*
X1347788Y-312738D01*
X1491445Y-312738D01*
X1508919Y-334169D01*
X1508839Y-342832D01*
G54D16*
X1319212Y-311150D02*
X1323181Y-311150D01*
X1337469Y-296862D01*
X1426369Y-296862D01*
X1435100Y-288131D01*
X1435100Y-280205D01*
X1435020Y-280126D01*
G54D16*
X1296988Y-287338D02*
X1296988Y-306388D01*
X1312862Y-322262D01*
X1325562Y-322262D01*
X1342231Y-305594D01*
X1504156Y-305594D01*
X1531938Y-333375D01*
X1531938Y-340530D01*
X1534239Y-342832D01*
G54D16*
X1460420Y-280126D02*
X1460420Y-283289D01*
X1473200Y-296069D01*
X1520677Y-296069D01*
X1536620Y-280126D01*
G54D16*
X1003300Y-392906D02*
X1003300Y-391319D01*
X1019175Y-378619D01*
X1066006Y-378619D01*
X1073150Y-385762D01*
X1129506Y-385762D01*
X1137444Y-393700D01*
G54D16*
X1019175Y-403225D02*
X1019175Y-400050D01*
X1033462Y-385762D01*
X1062038Y-385762D01*
X1069975Y-393700D01*
X1118382Y-393700D01*
X1135777Y-420620D01*
G54D16*
X1110377Y-344420D02*
X1110377Y-345202D01*
X1123156Y-357981D01*
X1299369Y-357981D01*
X1350962Y-318294D01*
X1416039Y-318294D01*
X1432640Y-342832D01*
G54D16*
X1084977Y-344420D02*
X1085782Y-344420D01*
X1105694Y-364331D01*
X1304131Y-364331D01*
X1354138Y-325438D01*
X1397000Y-325438D01*
X1405731Y-334169D01*
X1405731Y-341324D01*
X1407240Y-342832D01*
G54D16*
X748506Y-350044D02*
X748506Y-351631D01*
X765969Y-369094D01*
X1002506Y-369094D01*
X1008062Y-363538D01*
X1075531Y-363538D01*
X1080294Y-358775D01*
X1089819Y-358775D01*
X1102519Y-371475D01*
X1455738Y-371475D01*
X1461294Y-377031D01*
G54D16*
X1381839Y-342832D02*
X1381839Y-345202D01*
X1397794Y-361156D01*
X1460500Y-361156D01*
X1479550Y-380206D01*
X1533525Y-380206D01*
X1543844Y-390525D01*
X1655762Y-390525D01*
X1664494Y-399256D01*
X1701006Y-399256D01*
X1726406Y-376238D01*
X1792276Y-376238D01*
X1804114Y-392044D01*
G54D16*
X1652588Y-234950D02*
X1706562Y-234950D01*
X1720056Y-221456D01*
X1770062Y-221456D01*
X1778794Y-212725D01*
X1874044Y-212725D01*
X1883569Y-222250D01*
X1981200Y-222250D01*
X2008188Y-200819D01*
X2053431Y-200819D01*
X2067719Y-215106D01*
X2128044Y-215106D01*
X2135981Y-223044D01*
X2178695Y-223044D01*
X2200988Y-200750D01*
G54D16*
X2099388Y-200750D02*
X2099388Y-200105D01*
X2118519Y-180975D01*
X2155813Y-180975D01*
X2175588Y-200750D01*
G54D16*
X1991519Y-198438D02*
X1999456Y-190500D01*
X2063739Y-190500D01*
X2073989Y-200750D01*
G54D16*
X2200988Y-200750D02*
X2200988Y-207882D01*
X2216944Y-223838D01*
X2245519Y-223838D01*
X2269331Y-203994D01*
X2277269Y-202406D01*
G54D16*
X2213769Y-161131D02*
X2316162Y-161131D01*
X2324894Y-152400D01*
X2215345Y-152400D01*
X2202576Y-139631D01*
X2202576Y-132636D01*
X2213769Y-121444D01*
X2289175Y-121444D01*
X2289969Y-122238D01*
G54D16*
X2100976Y-139631D02*
X2100976Y-134224D01*
X2113756Y-121444D01*
X2200275Y-121444D01*
X2209800Y-111919D01*
X2274888Y-111919D01*
X2289969Y-96838D01*
X2296319Y-96044D01*
G54D16*
X1832689Y-130900D02*
X1832689Y-122317D01*
X1851025Y-103981D01*
X2159000Y-103981D01*
X2160588Y-102394D01*
G54D16*
X2075576Y-63432D02*
X2075576Y-66595D01*
X2088356Y-79375D01*
X2186633Y-79375D01*
X2202576Y-63432D01*
G54D16*
X2227976Y-63432D02*
X2280512Y-63432D01*
X2281238Y-62706D01*
G54D16*
X2177176Y-63432D02*
X2177176Y-58024D01*
X2189956Y-45244D01*
X2286794Y-45244D01*
X2309019Y-23019D01*
G54D16*
X2101850Y-25400D02*
X2104231Y-25400D01*
X2108200Y-21431D01*
X2239962Y-21431D01*
X2260600Y-794D01*
X2315369Y-794D01*
G54D16*
X1970088Y28575D02*
X2014538Y28575D01*
X2020888Y34925D01*
X2105025Y34925D01*
X2118519Y21431D01*
X2215356Y21431D01*
G54D16*
X2034381Y13494D02*
X2084376Y13494D01*
X2101770Y-3900D01*
G54D16*
X1998662Y-26194D02*
X2005012Y-26194D01*
X2028825Y-2381D01*
X2074851Y-2381D01*
X2076370Y-3900D01*
G54D16*
X1964531Y-32544D02*
X1964531Y-33338D01*
X1971675Y-40481D01*
X2103426Y-40481D01*
X2126376Y-63432D01*
G54D16*
X1883489Y-54701D02*
X1908889Y-54701D01*
X2055087Y-54701D01*
X2056606Y-53181D01*
G54D16*
X1757362Y17462D02*
X1888320Y17462D01*
X1909683Y-3900D01*
X1811269Y-3900D01*
X1774825Y32544D01*
X1935162Y32544D01*
X1963738Y-2381D01*
X1963738Y-31750D01*
X1964531Y-32544D01*
G54D16*
X1693069Y44450D02*
X1698625Y44450D01*
X1701800Y47625D01*
X1816894Y47625D01*
X1821656Y42862D01*
X1939925Y42862D01*
X1960562Y16669D01*
X2015331Y16669D01*
X2025650Y26988D01*
X2046288Y26988D01*
X2049462Y23812D01*
X2095500Y23812D01*
X2097088Y22225D01*
G54D16*
X1833483Y72300D02*
X1833483Y68342D01*
X1844675Y57150D01*
X1869133Y57150D01*
X1884283Y72299D01*
G54D16*
X1808082Y72299D02*
X1808082Y68342D01*
X1826419Y50006D01*
X2133600Y50006D01*
X2139156Y44450D01*
X2276475Y44450D01*
X2277269Y45244D01*
G54D16*
X2228770Y72300D02*
X2229712Y72300D01*
X2235200Y77788D01*
X2248694Y77788D01*
X2266950Y96044D01*
X2308225Y96044D01*
X2309812Y94456D01*
G54D16*
X2177970Y72300D02*
X2177970Y71518D01*
X2189956Y59531D01*
X2233612Y59531D01*
X2243931Y69850D01*
X2270125Y69850D01*
X2270919Y70644D01*
G54D16*
X2127170Y72300D02*
X2127170Y69136D01*
X2143919Y52388D01*
X2239962Y52388D01*
X2246312Y58738D01*
X2286794Y58738D01*
X2289175Y61119D01*
G54D16*
X2178764Y136594D02*
X2178775Y136594D01*
X2193925Y121444D01*
X2270125Y121444D01*
X2271712Y123031D01*
G54D16*
X1851819Y102394D02*
X1857375Y102394D01*
X1861344Y98425D01*
X1955006Y98425D01*
X1963738Y89694D01*
G54D16*
X1752600Y94456D02*
X1755775Y94456D01*
X1760538Y89694D01*
X1939925Y89694D01*
X1952625Y76994D01*
X1977231Y76994D01*
X1989931Y89694D01*
X2057400Y89694D01*
G54D16*
X1581944Y-248444D02*
X1584325Y-248444D01*
X1586706Y-250825D01*
X1701006Y-250825D01*
X1724025Y-227806D01*
X1774031Y-227806D01*
X1781969Y-219869D01*
X1872456Y-219869D01*
X1880394Y-227806D01*
X1987550Y-227806D01*
X2011362Y-207169D01*
X2051050Y-207169D01*
X2065338Y-221456D01*
X2125662Y-221456D01*
X2132806Y-228600D01*
X2270919Y-228600D01*
X2271712Y-227806D01*
G54D16*
X1550194Y-253206D02*
X1556544Y-253206D01*
X1561306Y-257969D01*
X1703946Y-257969D01*
X1727096Y-234819D01*
X1776543Y-234819D01*
X1785144Y-226219D01*
X1868488Y-226219D01*
X1876425Y-234156D01*
X1992312Y-234156D01*
X2015331Y-212725D01*
X2048669Y-212725D01*
X2063750Y-227806D01*
X2121694Y-227806D01*
X2130425Y-236538D01*
X2177256Y-236538D01*
X2186781Y-246062D01*
X2270125Y-246062D01*
X2271712Y-244475D01*
G54D16*
X1472406Y-264319D02*
X1708944Y-264319D01*
X1729581Y-243681D01*
X1787525Y-243681D01*
X1791494Y-239712D01*
G54D16*
X1730296Y-268219D02*
X1730296Y-264398D01*
X1743075Y-251619D01*
X1816100Y-251619D01*
X1817688Y-250031D01*
G54D16*
X1867694Y-247650D02*
X1870869Y-247650D01*
X1876425Y-242094D01*
X1996281Y-242094D01*
X2018506Y-219869D01*
X2047007Y-219869D01*
X2061288Y-234150D01*
X2120100Y-234150D01*
X2129631Y-243681D01*
X2174863Y-243681D01*
X2200988Y-276950D01*
G54D16*
X1882695Y-268219D02*
X1882695Y-262017D01*
X1896269Y-248444D01*
X1999456Y-248444D01*
X2021681Y-226219D01*
X2040731Y-226219D01*
X2055019Y-240506D01*
X2116138Y-240506D01*
X2129631Y-254000D01*
X2163762Y-254000D01*
X2167731Y-257969D01*
G54D16*
X2065338Y-254000D02*
X2068512Y-254000D01*
X2071688Y-250825D01*
X2114550Y-250825D01*
X2124075Y-260350D01*
X2138362Y-260350D01*
X2147094Y-269081D01*
X2147094Y-273856D01*
X2150188Y-276950D01*
G54D16*
X2027238Y-255588D02*
X2028825Y-255588D01*
X2040731Y-267494D01*
X2066925Y-267494D01*
X2074862Y-259556D01*
X2107394Y-259556D01*
X2124788Y-276950D01*
G54D16*
X2017712Y-278606D02*
X2072333Y-278606D01*
X2073989Y-276950D01*
G54D16*
X2200988Y-276950D02*
X2200988Y-269955D01*
X2212975Y-257969D01*
X2274888Y-257969D01*
X2279650Y-253206D01*
X2297906Y-253206D01*
X2298700Y-254000D01*
G54D16*
X1693862Y-298450D02*
X1693862Y-297656D01*
X1708150Y-283369D01*
X1755775Y-283369D01*
X1759744Y-279400D01*
X1777206Y-279400D01*
X1778794Y-280988D01*
X1819127Y-280988D01*
X1831895Y-268219D01*
G54D16*
X1768475Y-292100D02*
X1771650Y-292100D01*
X1774825Y-288925D01*
X2062956Y-288925D01*
X2067719Y-293688D01*
X2240756Y-293688D01*
X2271712Y-262731D01*
X2288381Y-262731D01*
X2300288Y-274638D01*
G54D16*
X2020888Y-311944D02*
X2045494Y-311944D01*
X2050256Y-316706D01*
G54D16*
X1866106Y-371475D02*
X1885145Y-371475D01*
X1905714Y-392044D01*
G54D16*
X1727914Y-315844D02*
X1729649Y-315844D01*
X1742281Y-303212D01*
X1782762Y-303212D01*
X1788319Y-297656D01*
X1887526Y-297656D01*
X1905714Y-315844D01*
G54D16*
X1585039Y-342832D02*
X1587568Y-336482D01*
X1618456Y-310356D01*
X1710531Y-310356D01*
X1730375Y-296862D01*
G54D16*
X1559639Y-342832D02*
X1559639Y-343614D01*
X1571625Y-355600D01*
X1593850Y-355600D01*
X1621631Y-331788D01*
X1771650Y-331788D01*
X1778794Y-324644D01*
X1778794Y-315924D01*
X1778714Y-315844D01*
G54D16*
X1559719Y-364331D02*
X1564481Y-364331D01*
X1566069Y-362744D01*
X1596231Y-362744D01*
X1625600Y-338138D01*
X1810396Y-338138D01*
X1829514Y-315844D01*
G54D16*
X1483439Y-342832D02*
X1484244Y-342832D01*
X1499394Y-357981D01*
X1532731Y-357981D01*
X1550194Y-375444D01*
X1566862Y-375444D01*
X1572419Y-369888D01*
X1598612Y-369888D01*
X1630362Y-344488D01*
X1826271Y-344488D01*
X1854914Y-315844D01*
G54D16*
X1485106Y-365919D02*
X1531144Y-365919D01*
X1547812Y-382588D01*
X1570038Y-382588D01*
X1576388Y-376238D01*
X1604169Y-376238D01*
X1635919Y-351631D01*
X1844527Y-351631D01*
X1880314Y-315844D01*
G54D16*
X1698625Y-368300D02*
X1705769Y-361156D01*
X1851819Y-361156D01*
X1854994Y-357981D01*
X1895475Y-357981D01*
X1944688Y-300831D01*
X1987550Y-300831D01*
X1989138Y-302419D01*
G54D16*
X1679575Y-386556D02*
X1704975Y-386556D01*
X1722438Y-369094D01*
X1831964Y-369094D01*
X1854914Y-392044D01*
G54D16*
X1727914Y-392044D02*
X1753314Y-392044D01*
G54D16*
X1217612Y-384969D02*
X1221581Y-384969D01*
X1227138Y-379412D01*
X1443831Y-379412D01*
X1453356Y-388938D01*
X1515257Y-388938D01*
X1534239Y-419032D01*
G54D16*
X1186577Y-420620D02*
X1186577Y-415211D01*
X1202531Y-399256D01*
X1219994Y-399256D01*
X1232694Y-386556D01*
X1438275Y-386556D01*
X1447800Y-396081D01*
X1493826Y-396081D01*
X1508125Y-410369D01*
X1508839Y-419032D01*
G54D16*
X1293019Y-398462D02*
X1296194Y-398462D01*
X1300162Y-394494D01*
X1415245Y-394494D01*
X1432640Y-419032D01*
G54D16*
X1084977Y-420620D02*
X1084977Y-422196D01*
X1096962Y-434181D01*
X1269206Y-434181D01*
X1308100Y-402431D01*
X1396989Y-402431D01*
X1407239Y-419032D01*
G54D16*
X1034177Y-420620D02*
X1034177Y-423783D01*
X1057275Y-446881D01*
X1224756Y-446881D01*
X1234281Y-441325D01*
X1447800Y-441325D01*
X1458912Y-447675D01*
X1597819Y-447675D01*
X1629569Y-422275D01*
X1693069Y-422275D01*
X1699419Y-428625D01*
G54D16*
X1458039Y-419032D02*
X1458051Y-419032D01*
X1472406Y-433388D01*
X1585912Y-433388D01*
X1616075Y-407988D01*
X1764506Y-407988D01*
X1772444Y-400050D01*
X1772444Y-398314D01*
X1778714Y-392044D01*
G54D16*
X1381839Y-419032D02*
X1381839Y-421402D01*
X1393031Y-432594D01*
X1451769Y-432594D01*
X1464469Y-440531D01*
X1590675Y-440531D01*
X1621631Y-415131D01*
X1770856Y-415131D01*
X1778794Y-407194D01*
X1821656Y-407194D01*
X1827212Y-401638D01*
X1827212Y-394346D01*
X1829514Y-392044D01*
G54D16*
X948531Y-459581D02*
X948531Y-454819D01*
X971550Y-431800D01*
X1015206Y-431800D01*
X1037431Y-454025D01*
X1227138Y-454025D01*
X1237456Y-447675D01*
X1440656Y-447675D01*
X1454150Y-455612D01*
X1608931Y-455612D01*
X1637506Y-432594D01*
X1679575Y-432594D01*
X1681956Y-434975D01*
G54D16*
X974725Y-459581D02*
X974725Y-453231D01*
X987425Y-440531D01*
X1004094Y-440531D01*
X1026319Y-462756D01*
X1227138Y-462756D01*
X1241425Y-454025D01*
X1433512Y-454025D01*
X1447006Y-462756D01*
X1619250Y-462756D01*
X1642269Y-442912D01*
X1662112Y-442912D01*
X1666875Y-447675D01*
G54D16*
X998538Y-458788D02*
X1000919Y-458788D01*
X1011238Y-469106D01*
X1231106Y-469106D01*
X1244600Y-460375D01*
X1425575Y-460375D01*
X1439069Y-469106D01*
X1631156Y-469106D01*
X1650206Y-457994D01*
G54D16*
X465931Y-499269D02*
X469900Y-499269D01*
X472281Y-496888D01*
X511175Y-496888D01*
X523081Y-488156D01*
X1021556Y-488156D01*
X1037431Y-477044D01*
X1231106Y-477044D01*
X1247775Y-466725D01*
X1412081Y-466725D01*
X1419225Y-473869D01*
G54D16*
X423069Y-498475D02*
X423862Y-498475D01*
X438150Y-512762D01*
X505619Y-513556D01*
X527844Y-495300D01*
X1030288Y-495300D01*
X1045369Y-484188D01*
X1234281Y-484188D01*
X1250950Y-473869D01*
X1400969Y-473869D01*
X1416050Y-488950D01*
X1495425Y-488950D01*
X1496219Y-488156D01*
G54D16*
X336550Y-544512D02*
X343694Y-544512D01*
X345281Y-546100D01*
X460375Y-546100D01*
X461962Y-544512D01*
G54D16*
X364331Y-568325D02*
X364331Y-566738D01*
X373062Y-558006D01*
X480219Y-558006D01*
X546100Y-502444D01*
X1039019Y-502444D01*
X1050131Y-491331D01*
X1236662Y-491331D01*
X1254125Y-480219D01*
X1394619Y-480219D01*
X1416844Y-502444D01*
X1500981Y-502444D01*
X1528762Y-478631D01*
X1661319Y-478631D01*
X1731169Y-422275D01*
X1992312Y-422275D01*
X1997075Y-427038D01*
G54D16*
X1977231Y-353219D02*
X1997075Y-353219D01*
X2021681Y-377825D01*
X2100262Y-377825D01*
X2101056Y-378619D01*
G54D16*
X1977231Y-379412D02*
X2001044Y-379412D01*
X2023269Y-401638D01*
X2100262Y-401638D01*
X2101056Y-402431D01*
G54D16*
X2028825Y-418306D02*
X2032794Y-418306D01*
X2041525Y-409575D01*
X2077244Y-409575D01*
X2086769Y-419100D01*
X2129631Y-419100D01*
X2165350Y-383381D01*
G54D16*
X2101056Y-378619D02*
X2143919Y-378619D01*
X2155031Y-367506D01*
G54D16*
X2280444Y-275431D02*
X2280444Y-276225D01*
X2216944Y-339725D01*
X2198688Y-339725D01*
X2186781Y-351631D01*
G36*
X882206Y-569360D02*
X885716Y-565850D01*
X890696Y-565850D01*
X894206Y-569360D01*
X894206Y-586340D01*
X890696Y-589850D01*
X885716Y-589850D01*
X882206Y-586340D01*
X882206Y-569360D01*
G37*
G36*
X857600Y-569360D02*
X861110Y-565850D01*
X866090Y-565850D01*
X869600Y-569360D01*
X869600Y-586340D01*
X866090Y-589850D01*
X861110Y-589850D01*
X857600Y-586340D01*
X857600Y-569360D01*
G37*
G36*
X832200Y-569360D02*
X835710Y-565850D01*
X840690Y-565850D01*
X844200Y-569360D01*
X844200Y-586340D01*
X840690Y-589850D01*
X835710Y-589850D01*
X832200Y-586340D01*
X832200Y-569360D01*
G37*
G36*
X806006Y-569360D02*
X809516Y-565850D01*
X814496Y-565850D01*
X818006Y-569360D01*
X818006Y-586340D01*
X814496Y-589850D01*
X809516Y-589850D01*
X806006Y-586340D01*
X806006Y-569360D01*
G37*
G36*
X781400Y-569360D02*
X784910Y-565850D01*
X789890Y-565850D01*
X793400Y-569360D01*
X793400Y-586340D01*
X789890Y-589850D01*
X784910Y-589850D01*
X781400Y-586340D01*
X781400Y-569360D01*
G37*
G36*
X756000Y-569360D02*
X759510Y-565850D01*
X764490Y-565850D01*
X768000Y-569360D01*
X768000Y-586340D01*
X764490Y-589850D01*
X759510Y-589850D01*
X756000Y-586340D01*
X756000Y-569360D01*
G37*
G36*
X729806Y-569360D02*
X733316Y-565850D01*
X738296Y-565850D01*
X741806Y-569360D01*
X741806Y-586340D01*
X738296Y-589850D01*
X733316Y-589850D01*
X729806Y-586340D01*
X729806Y-569360D01*
G37*
G36*
X705200Y-569360D02*
X708710Y-565850D01*
X713690Y-565850D01*
X717200Y-569360D01*
X717200Y-586340D01*
X713690Y-589850D01*
X708710Y-589850D01*
X705200Y-586340D01*
X705200Y-569360D01*
G37*
G36*
X679800Y-569360D02*
X683310Y-565850D01*
X688290Y-565850D01*
X691800Y-569360D01*
X691800Y-586340D01*
X688290Y-589850D01*
X683310Y-589850D01*
X679800Y-586340D01*
X679800Y-569360D01*
G37*
G36*
X653606Y-569360D02*
X657116Y-565850D01*
X662096Y-565850D01*
X665606Y-569360D01*
X665606Y-586340D01*
X662096Y-589850D01*
X657116Y-589850D01*
X653606Y-586340D01*
X653606Y-569360D01*
G37*
G36*
X629000Y-569360D02*
X632510Y-565850D01*
X637490Y-565850D01*
X641000Y-569360D01*
X641000Y-586340D01*
X637490Y-589850D01*
X632510Y-589850D01*
X629000Y-586340D01*
X629000Y-569360D01*
G37*
G36*
X603600Y-569360D02*
X607110Y-565850D01*
X612090Y-565850D01*
X615600Y-569360D01*
X615600Y-586340D01*
X612090Y-589850D01*
X607110Y-589850D01*
X603600Y-586340D01*
X603600Y-569360D01*
G37*
G36*
X577406Y-569360D02*
X580916Y-565850D01*
X585896Y-565850D01*
X589406Y-569360D01*
X589406Y-586340D01*
X585896Y-589850D01*
X580916Y-589850D01*
X577406Y-586340D01*
X577406Y-569360D01*
G37*
G36*
X552006Y-569360D02*
X555516Y-565850D01*
X560496Y-565850D01*
X564006Y-569360D01*
X564006Y-586340D01*
X560496Y-589850D01*
X555516Y-589850D01*
X552006Y-586340D01*
X552006Y-569360D01*
G37*
G36*
X527400Y-569360D02*
X530910Y-565850D01*
X535890Y-565850D01*
X539400Y-569360D01*
X539400Y-586340D01*
X535890Y-589850D01*
X530910Y-589850D01*
X527400Y-586340D01*
X527400Y-569360D01*
G37*
G36*
X450406Y-569360D02*
X453916Y-565850D01*
X458896Y-565850D01*
X462406Y-569360D01*
X462406Y-586340D01*
X458896Y-589850D01*
X453916Y-589850D01*
X450406Y-586340D01*
X450406Y-569360D01*
G37*
G36*
X425800Y-569360D02*
X429310Y-565850D01*
X434290Y-565850D01*
X437800Y-569360D01*
X437800Y-586340D01*
X434290Y-589850D01*
X429310Y-589850D01*
X425800Y-586340D01*
X425800Y-569360D01*
G37*
G36*
X400400Y-569360D02*
X403910Y-565850D01*
X408890Y-565850D01*
X412400Y-569360D01*
X412400Y-586340D01*
X408890Y-589850D01*
X403910Y-589850D01*
X400400Y-586340D01*
X400400Y-569360D01*
G37*
G36*
X374206Y-569360D02*
X377716Y-565850D01*
X382696Y-565850D01*
X386206Y-569360D01*
X386206Y-586340D01*
X382696Y-589850D01*
X377716Y-589850D01*
X374206Y-586340D01*
X374206Y-569360D01*
G37*
G36*
X349600Y-569360D02*
X353110Y-565850D01*
X358090Y-565850D01*
X361600Y-569360D01*
X361600Y-586340D01*
X358090Y-589850D01*
X353110Y-589850D01*
X349600Y-586340D01*
X349600Y-569360D01*
G37*
G36*
X324200Y-569360D02*
X327710Y-565850D01*
X332690Y-565850D01*
X336200Y-569360D01*
X336200Y-586340D01*
X332690Y-589850D01*
X327710Y-589850D01*
X324200Y-586340D01*
X324200Y-569360D01*
G37*
G36*
X298800Y-569360D02*
X302310Y-565850D01*
X307290Y-565850D01*
X310800Y-569360D01*
X310800Y-586340D01*
X307290Y-589850D01*
X302310Y-589850D01*
X298800Y-586340D01*
X298800Y-569360D01*
G37*
G36*
X273400Y-569360D02*
X276910Y-565850D01*
X281890Y-565850D01*
X285400Y-569360D01*
X285400Y-586340D01*
X281890Y-589850D01*
X276910Y-589850D01*
X273400Y-586340D01*
X273400Y-569360D01*
G37*
G36*
X501206Y-569360D02*
X504716Y-565850D01*
X509696Y-565850D01*
X513206Y-569360D01*
X513206Y-586340D01*
X509696Y-589850D01*
X504716Y-589850D01*
X501206Y-586340D01*
X501206Y-569360D01*
G37*
G36*
X475806Y-569360D02*
X479316Y-565850D01*
X484296Y-565850D01*
X487806Y-569360D01*
X487806Y-586340D01*
X484296Y-589850D01*
X479316Y-589850D01*
X475806Y-586340D01*
X475806Y-569360D01*
G37*
G36*
X882206Y-620160D02*
X885716Y-616650D01*
X890696Y-616650D01*
X894206Y-620160D01*
X894206Y-637140D01*
X890696Y-640650D01*
X885716Y-640650D01*
X882206Y-637140D01*
X882206Y-620160D01*
G37*
G36*
X857600Y-620160D02*
X861110Y-616650D01*
X866090Y-616650D01*
X869600Y-620160D01*
X869600Y-637140D01*
X866090Y-640650D01*
X861110Y-640650D01*
X857600Y-637140D01*
X857600Y-620160D01*
G37*
G36*
X832200Y-620160D02*
X835710Y-616650D01*
X840690Y-616650D01*
X844200Y-620160D01*
X844200Y-637140D01*
X840690Y-640650D01*
X835710Y-640650D01*
X832200Y-637140D01*
X832200Y-620160D01*
G37*
G36*
X806006Y-620160D02*
X809516Y-616650D01*
X814496Y-616650D01*
X818006Y-620160D01*
X818006Y-637140D01*
X814496Y-640650D01*
X809516Y-640650D01*
X806006Y-637140D01*
X806006Y-620160D01*
G37*
G36*
X781400Y-620160D02*
X784910Y-616650D01*
X789890Y-616650D01*
X793400Y-620160D01*
X793400Y-637140D01*
X789890Y-640650D01*
X784910Y-640650D01*
X781400Y-637140D01*
X781400Y-620160D01*
G37*
G36*
X756000Y-620160D02*
X759510Y-616650D01*
X764490Y-616650D01*
X768000Y-620160D01*
X768000Y-637140D01*
X764490Y-640650D01*
X759510Y-640650D01*
X756000Y-637140D01*
X756000Y-620160D01*
G37*
G36*
X729806Y-620160D02*
X733316Y-616650D01*
X738296Y-616650D01*
X741806Y-620160D01*
X741806Y-637140D01*
X738296Y-640650D01*
X733316Y-640650D01*
X729806Y-637140D01*
X729806Y-620160D01*
G37*
G36*
X705200Y-620160D02*
X708710Y-616650D01*
X713690Y-616650D01*
X717200Y-620160D01*
X717200Y-637140D01*
X713690Y-640650D01*
X708710Y-640650D01*
X705200Y-637140D01*
X705200Y-620160D01*
G37*
G36*
X679800Y-620160D02*
X683310Y-616650D01*
X688290Y-616650D01*
X691800Y-620160D01*
X691800Y-637140D01*
X688290Y-640650D01*
X683310Y-640650D01*
X679800Y-637140D01*
X679800Y-620160D01*
G37*
G36*
X653606Y-620160D02*
X657116Y-616650D01*
X662096Y-616650D01*
X665606Y-620160D01*
X665606Y-637140D01*
X662096Y-640650D01*
X657116Y-640650D01*
X653606Y-637140D01*
X653606Y-620160D01*
G37*
G36*
X629000Y-620160D02*
X632510Y-616650D01*
X637490Y-616650D01*
X641000Y-620160D01*
X641000Y-637140D01*
X637490Y-640650D01*
X632510Y-640650D01*
X629000Y-637140D01*
X629000Y-620160D01*
G37*
G36*
X603600Y-620160D02*
X607110Y-616650D01*
X612090Y-616650D01*
X615600Y-620160D01*
X615600Y-637140D01*
X612090Y-640650D01*
X607110Y-640650D01*
X603600Y-637140D01*
X603600Y-620160D01*
G37*
G36*
X577406Y-620160D02*
X580916Y-616650D01*
X585896Y-616650D01*
X589406Y-620160D01*
X589406Y-637140D01*
X585896Y-640650D01*
X580916Y-640650D01*
X577406Y-637140D01*
X577406Y-620160D01*
G37*
G36*
X552800Y-620160D02*
X556310Y-616650D01*
X561290Y-616650D01*
X564800Y-620160D01*
X564800Y-637140D01*
X561290Y-640650D01*
X556310Y-640650D01*
X552800Y-637140D01*
X552800Y-620160D01*
G37*
G36*
X527400Y-620160D02*
X530910Y-616650D01*
X535890Y-616650D01*
X539400Y-620160D01*
X539400Y-637140D01*
X535890Y-640650D01*
X530910Y-640650D01*
X527400Y-637140D01*
X527400Y-620160D01*
G37*
G36*
X450406Y-620160D02*
X453916Y-616650D01*
X458896Y-616650D01*
X462406Y-620160D01*
X462406Y-637140D01*
X458896Y-640650D01*
X453916Y-640650D01*
X450406Y-637140D01*
X450406Y-620160D01*
G37*
G36*
X425800Y-620160D02*
X429310Y-616650D01*
X434290Y-616650D01*
X437800Y-620160D01*
X437800Y-637140D01*
X434290Y-640650D01*
X429310Y-640650D01*
X425800Y-637140D01*
X425800Y-620160D01*
G37*
G36*
X400400Y-620160D02*
X403910Y-616650D01*
X408890Y-616650D01*
X412400Y-620160D01*
X412400Y-637140D01*
X408890Y-640650D01*
X403910Y-640650D01*
X400400Y-637140D01*
X400400Y-620160D01*
G37*
G36*
X374206Y-620160D02*
X377716Y-616650D01*
X382696Y-616650D01*
X386206Y-620160D01*
X386206Y-637140D01*
X382696Y-640650D01*
X377716Y-640650D01*
X374206Y-637140D01*
X374206Y-620160D01*
G37*
G36*
X348806Y-620160D02*
X352316Y-616650D01*
X357296Y-616650D01*
X360806Y-620160D01*
X360806Y-637140D01*
X357296Y-640650D01*
X352316Y-640650D01*
X348806Y-637140D01*
X348806Y-620160D01*
G37*
G36*
X323406Y-620160D02*
X326916Y-616650D01*
X331896Y-616650D01*
X335406Y-620160D01*
X335406Y-637140D01*
X331896Y-640650D01*
X326916Y-640650D01*
X323406Y-637140D01*
X323406Y-620160D01*
G37*
G36*
X298006Y-620160D02*
X301516Y-616650D01*
X306496Y-616650D01*
X310006Y-620160D01*
X310006Y-637140D01*
X306496Y-640650D01*
X301516Y-640650D01*
X298006Y-637140D01*
X298006Y-620160D01*
G37*
G36*
X272606Y-620160D02*
X276116Y-616650D01*
X281096Y-616650D01*
X284606Y-620160D01*
X284606Y-637140D01*
X281096Y-640650D01*
X276116Y-640650D01*
X272606Y-637140D01*
X272606Y-620160D01*
G37*
G36*
X501206Y-620160D02*
X504716Y-616650D01*
X509696Y-616650D01*
X513206Y-620160D01*
X513206Y-637140D01*
X509696Y-640650D01*
X504716Y-640650D01*
X501206Y-637140D01*
X501206Y-620160D01*
G37*
G36*
X475806Y-620160D02*
X479316Y-616650D01*
X484296Y-616650D01*
X487806Y-620160D01*
X487806Y-637140D01*
X484296Y-640650D01*
X479316Y-640650D01*
X475806Y-637140D01*
X475806Y-620160D01*
G37*
G54D16*
X481806Y-577850D02*
X481806Y-575469D01*
X485775Y-566738D01*
X523875Y-533400D01*
X860425Y-533400D01*
X874712Y-523875D01*
X1057275Y-523875D01*
X1085850Y-498475D01*
X1239838Y-498475D01*
X1255712Y-487362D01*
X1366838Y-487362D01*
X1379538Y-498475D01*
X1389062Y-498475D01*
X1404144Y-513556D01*
G54D16*
X507206Y-577850D02*
X507206Y-573881D01*
X541338Y-539750D01*
X866775Y-539750D01*
X877888Y-531812D01*
X1062038Y-531812D01*
X1089025Y-506412D01*
X1241425Y-506412D01*
X1258888Y-493712D01*
X1360488Y-493712D01*
X1381919Y-515144D01*
G54D16*
X533400Y-577850D02*
X533400Y-571500D01*
X555625Y-549275D01*
X869950Y-549275D01*
X879475Y-541338D01*
X904875Y-541338D01*
X912812Y-549275D01*
G54D16*
X558006Y-577850D02*
X558006Y-573881D01*
X576262Y-555625D01*
X885825Y-555625D01*
X886619Y-554831D01*
G54D16*
X609600Y-628650D02*
X609600Y-620712D01*
X636588Y-593725D01*
X988219Y-593725D01*
X1032669Y-549275D01*
G54D16*
X635000Y-628650D02*
X635000Y-619125D01*
X654050Y-600075D01*
X1006475Y-600075D01*
X1093788Y-512762D01*
X1246188Y-512762D01*
X1262062Y-500062D01*
X1352550Y-500062D01*
X1376362Y-527050D01*
X1409700Y-527050D01*
X1428750Y-508000D01*
X1508125Y-508000D01*
X1519238Y-496888D01*
X1538288Y-496888D01*
X1541462Y-500062D01*
G54D16*
X659606Y-628650D02*
X659606Y-621506D01*
X674688Y-606425D01*
X1012825Y-606425D01*
X1098550Y-520700D01*
X1249362Y-520700D01*
X1265238Y-506412D01*
X1347788Y-506412D01*
X1373188Y-534988D01*
X1414462Y-534988D01*
X1433512Y-515938D01*
X1524000Y-515938D01*
X1526381Y-513556D01*
G54D16*
X586581Y-628650D02*
X586581Y-634206D01*
X595312Y-642938D01*
X1012825Y-642938D01*
X1125538Y-527050D01*
X1257300Y-527050D01*
X1271588Y-512762D01*
X1335088Y-512762D01*
X1347788Y-527050D01*
G54D16*
X558800Y-628650D02*
X577850Y-647700D01*
X1019175Y-647700D01*
X1130300Y-533400D01*
X1258888Y-533400D01*
X1273175Y-519112D01*
X1323975Y-519112D01*
X1343025Y-541338D01*
X1427162Y-541338D01*
X1443038Y-525462D01*
X1525588Y-525462D01*
X1541462Y-541338D01*
X1582738Y-541338D01*
X1592262Y-550862D01*
X1620838Y-550862D01*
X1626394Y-545306D01*
G54D16*
X507206Y-630238D02*
X509588Y-630238D01*
X533400Y-655638D01*
X1022350Y-654050D01*
X1133475Y-542925D01*
X1260475Y-542925D01*
X1276350Y-527050D01*
X1320800Y-527050D01*
X1341438Y-550862D01*
X1439862Y-550862D01*
X1446212Y-544512D01*
G54D16*
X1151731Y-566738D02*
X1158875Y-566738D01*
X1160462Y-565150D01*
X1247775Y-565150D01*
X1277938Y-534988D01*
X1306512Y-534988D01*
X1320800Y-549275D01*
G54D16*
X431800Y-628650D02*
X433388Y-628650D01*
X465138Y-660400D01*
X1032669Y-660400D01*
X1133475Y-557212D01*
X1139825Y-554831D01*
G54D16*
X1552575Y-519112D02*
X1581150Y-490538D01*
X1665288Y-490538D01*
X1674812Y-481012D01*
X1684338Y-481012D01*
X1686719Y-478631D01*
G54D16*
X1604169Y-517525D02*
X1604962Y-517525D01*
X1622425Y-500062D01*
X1666875Y-500062D01*
X1674812Y-492125D01*
X1690688Y-492125D01*
X1762125Y-433388D01*
X1979612Y-433388D01*
X1987550Y-441325D01*
X2009775Y-441325D01*
X2016125Y-434975D01*
X2156619Y-434975D01*
X2177256Y-455612D01*
G54D16*
X2177256Y-455612D02*
X2180431Y-442119D01*
X2219325Y-406400D01*
X2273300Y-406400D01*
X2303462Y-436562D01*
X2310606Y-436562D01*
X2330450Y-456406D01*
G54D16*
X1752600Y-466725D02*
X1773238Y-446088D01*
X1881981Y-446088D01*
X1902619Y-466725D01*
X1902619Y-462756D01*
X1916112Y-449262D01*
X1936750Y-449262D01*
X1954212Y-466725D01*
G54D16*
X1731962Y-479425D02*
X1736725Y-479425D01*
X1739900Y-482600D01*
X1837531Y-482600D01*
X1852612Y-467519D01*
G54D16*
X1813719Y-496888D02*
X1836738Y-496888D01*
X1851025Y-482600D01*
X1912144Y-482600D01*
X1927225Y-467519D01*
G54D16*
X1654175Y-518319D02*
X1654969Y-518319D01*
X1663700Y-509588D01*
X1666875Y-509588D01*
X1677988Y-498475D01*
X1790700Y-498475D01*
X1801812Y-509588D01*
X1839912Y-509588D01*
X1852612Y-496888D01*
X1941512Y-496888D01*
X1944688Y-500062D01*
G54D16*
X1944688Y-500062D02*
X2030412Y-500062D01*
X2075656Y-454819D01*
G54D16*
X1719262Y-539750D02*
X1724025Y-539750D01*
X1727200Y-536575D01*
X1806575Y-536575D01*
X1811338Y-531812D01*
X1854200Y-531812D01*
X1866900Y-544512D01*
G54D16*
X1678781Y-518319D02*
X1680369Y-518319D01*
X1714500Y-552450D01*
X1743075Y-552450D01*
X1752600Y-542925D01*
X1811338Y-542925D01*
X1816100Y-538162D01*
X1841500Y-538162D01*
X1876425Y-573088D01*
X1909762Y-573088D01*
X1928812Y-590550D01*
X1928812Y-599281D01*
G54D16*
X1629569Y-518319D02*
X1631156Y-518319D01*
X1644650Y-531812D01*
X1684338Y-531812D01*
X1712912Y-560388D01*
X1747838Y-560388D01*
X1757362Y-550862D01*
X1816100Y-550862D01*
X1820862Y-546100D01*
X1835150Y-546100D01*
X1865312Y-573088D01*
X1876425Y-582612D01*
X1898650Y-582612D01*
X1905000Y-588962D01*
X1905794Y-599281D01*
G54D16*
X1320800Y-549275D02*
X1323975Y-549275D01*
X1331912Y-557212D01*
X1449388Y-557212D01*
X1473200Y-533400D01*
X1524000Y-533400D01*
X1539875Y-549275D01*
X1579562Y-549275D01*
X1589088Y-558800D01*
X1636712Y-558800D01*
X1657350Y-538162D01*
X1681162Y-538162D01*
X1709738Y-566738D01*
X1751012Y-566738D01*
X1760538Y-557212D01*
X1824831Y-557212D01*
X1827212Y-559594D01*
G54D16*
X1164431Y-579438D02*
X1168400Y-579438D01*
X1171575Y-576262D01*
X1247775Y-576262D01*
X1276350Y-547688D01*
X1299369Y-547688D01*
X1300162Y-548481D01*
G54D16*
X1300162Y-548481D02*
X1302544Y-548481D01*
X1317625Y-563562D01*
X1454150Y-563562D01*
X1477962Y-539750D01*
X1520825Y-539750D01*
X1536700Y-555625D01*
X1576388Y-555625D01*
X1585912Y-565150D01*
X1643062Y-565150D01*
X1660525Y-547688D01*
X1679575Y-547688D01*
X1704975Y-573088D01*
X1754188Y-573088D01*
X1763712Y-563562D01*
X1809750Y-563562D01*
X1817688Y-571500D01*
X1842294Y-571500D01*
X1843088Y-570706D01*
G54D16*
X1177131Y-591344D02*
X1254125Y-591344D01*
X1275556Y-569912D01*
G54D16*
X1190625Y-604044D02*
X1281112Y-604044D01*
X1282700Y-602456D01*
G54D16*
X1275556Y-569912D02*
X1458912Y-569912D01*
X1484312Y-546100D01*
X1516062Y-546100D01*
X1533525Y-563562D01*
X1574800Y-563562D01*
X1582738Y-571500D01*
X1646238Y-571500D01*
X1663700Y-554038D01*
X1674812Y-554038D01*
X1700212Y-579438D01*
X1798638Y-579438D01*
G54D16*
X1282700Y-602456D02*
X1285081Y-602456D01*
X1309688Y-577850D01*
X1462088Y-577850D01*
X1489075Y-552450D01*
X1511300Y-552450D01*
X1528762Y-569912D01*
X1573212Y-569912D01*
X1582738Y-579438D01*
X1603375Y-579438D01*
X1609725Y-585788D01*
X1669256Y-585788D01*
X1675606Y-579438D01*
G54D16*
X1203325Y-616744D02*
X1207294Y-616744D01*
X1209675Y-614362D01*
X1292225Y-614362D01*
X1322388Y-585788D01*
G54D16*
X1322388Y-585788D02*
X1463675Y-585788D01*
X1489075Y-560388D01*
X1508125Y-560388D01*
X1524000Y-576262D01*
X1570038Y-576262D01*
X1581150Y-587375D01*
X1600200Y-587375D01*
X1606550Y-593725D01*
X1774825Y-593725D01*
X1775619Y-594519D01*
G54D16*
X1216025Y-628650D02*
X1217612Y-628650D01*
X1222375Y-623888D01*
X1295400Y-623888D01*
X1327150Y-592138D01*
X1465262Y-592138D01*
X1490662Y-566738D01*
X1504950Y-566738D01*
X1520825Y-582612D01*
X1566862Y-582612D01*
X1579562Y-595312D01*
X1600200Y-595312D01*
X1604962Y-600075D01*
X1763712Y-600075D01*
X1771650Y-608012D01*
X1784350Y-608012D01*
X1797050Y-595312D01*
X1827212Y-595312D01*
X1835944Y-604044D01*
G54D16*
X1798638Y-579438D02*
X1801812Y-579438D01*
X1804988Y-582612D01*
X1864519Y-582612D01*
X1880394Y-598488D01*
G54D16*
X1231900Y-638969D02*
X1291431Y-638969D01*
X1331912Y-598488D01*
X1468438Y-598488D01*
X1479550Y-587375D01*
X1491456Y-587375D01*
X1499394Y-579438D01*
G54D16*
X1928812Y-599281D02*
X1928812Y-590550D01*
X1941512Y-577850D01*
X1978025Y-577850D01*
X2016125Y-539750D01*
X2051050Y-539750D01*
X2124075Y-466725D01*
X2124075Y-459581D01*
X2128044Y-455612D01*
G54D16*
X1980406Y-599281D02*
X1980406Y-584994D01*
X2020888Y-544512D01*
X2054225Y-544512D01*
X2127250Y-471488D01*
X2186781Y-471488D01*
X2202656Y-455612D01*
G54D16*
X2170906Y-485775D02*
X2198688Y-485775D01*
X2228850Y-455612D01*
G54D16*
X2135981Y-539750D02*
X2245519Y-539750D01*
X2259012Y-553244D01*
G54D16*
X2111375Y-539750D02*
X2111375Y-546100D01*
X2120900Y-555625D01*
X2208212Y-555625D01*
X2209006Y-554831D01*
G54D16*
X2020888Y-569119D02*
X2020888Y-561975D01*
X2030412Y-552450D01*
X2055812Y-552450D01*
X2111375Y-496888D01*
X2213769Y-496888D01*
X2254250Y-456406D01*
G54D16*
X1854994Y-598488D02*
X1854994Y-599281D01*
X1897062Y-641350D01*
X1979612Y-641350D01*
X2109788Y-511175D01*
X2136775Y-511175D01*
X2155825Y-530225D01*
X2178050Y-530225D01*
X2197100Y-511175D01*
X2224881Y-511175D01*
X2279650Y-456406D01*
G54D16*
X1811338Y-655638D02*
X1828800Y-655638D01*
X1858962Y-625475D01*
X1870075Y-625475D01*
X1892300Y-647700D01*
X1982788Y-647700D01*
X2092325Y-538162D01*
X2109788Y-538162D01*
X2111375Y-539750D01*
G54D16*
X1866900Y-641350D02*
X1866900Y-642938D01*
X1879600Y-655638D01*
X1984375Y-655638D01*
X2052638Y-587375D01*
X2262188Y-587375D01*
X2287588Y-561975D01*
X2287588Y-473869D01*
X2305050Y-456406D01*
G36*
X1973788Y-520140D02*
X1979052Y-514875D01*
X1986522Y-514875D01*
X1991788Y-520140D01*
X1991788Y-527610D01*
X1986522Y-532875D01*
X1979052Y-532875D01*
X1973788Y-527610D01*
X1973788Y-520140D01*
G37*
G36*
X1946800Y-520140D02*
X1952065Y-514875D01*
X1959535Y-514875D01*
X1964800Y-520140D01*
X1964800Y-527610D01*
X1959535Y-532875D01*
X1952065Y-532875D01*
X1946800Y-527610D01*
X1946800Y-520140D01*
G37*
G36*
X1921400Y-520140D02*
X1926665Y-514875D01*
X1934135Y-514875D01*
X1939400Y-520140D01*
X1939400Y-527610D01*
X1934135Y-532875D01*
X1926665Y-532875D01*
X1921400Y-527610D01*
X1921400Y-520140D01*
G37*
G36*
X1896000Y-520140D02*
X1901265Y-514875D01*
X1908735Y-514875D01*
X1914000Y-520140D01*
X1914000Y-527610D01*
X1908735Y-532875D01*
X1901265Y-532875D01*
X1896000Y-527610D01*
X1896000Y-520140D01*
G37*
G36*
X1869012Y-518552D02*
X1874278Y-513288D01*
X1881748Y-513288D01*
X1887012Y-518552D01*
X1887012Y-526022D01*
X1881748Y-531288D01*
X1874278Y-531288D01*
X1869012Y-526022D01*
X1869012Y-518552D01*
G37*
G36*
X1883300Y-548715D02*
X1888565Y-543450D01*
X1896035Y-543450D01*
X1901300Y-548715D01*
X1901300Y-556185D01*
X1896035Y-561450D01*
X1888565Y-561450D01*
X1883300Y-556185D01*
X1883300Y-548715D01*
G37*
G36*
X1908700Y-548715D02*
X1913965Y-543450D01*
X1921435Y-543450D01*
X1926700Y-548715D01*
X1926700Y-556185D01*
X1921435Y-561450D01*
X1913965Y-561450D01*
X1908700Y-556185D01*
X1908700Y-548715D01*
G37*
G36*
X1937275Y-548715D02*
X1942540Y-543450D01*
X1950010Y-543450D01*
X1955275Y-548715D01*
X1955275Y-556185D01*
X1950010Y-561450D01*
X1942540Y-561450D01*
X1937275Y-556185D01*
X1937275Y-548715D01*
G37*
G36*
X1962675Y-548715D02*
X1967940Y-543450D01*
X1975410Y-543450D01*
X1980675Y-548715D01*
X1980675Y-556185D01*
X1975410Y-561450D01*
X1967940Y-561450D01*
X1962675Y-556185D01*
X1962675Y-548715D01*
G37*
X1867694Y-546100D02*
G54D13*
D03*
G54D16*
X1917700Y-552450D02*
X1917700Y-555625D01*
X1930400Y-568325D01*
X1976438Y-568325D01*
X2012950Y-531812D01*
X2049462Y-531812D01*
X2097088Y-484188D01*
X2097088Y-459581D01*
X2101850Y-454819D01*
X1514475Y-612775D02*
G54D22*
D03*
X1489075Y-612775D02*
G54D22*
D03*
X1463675Y-612775D02*
G54D22*
D03*
X1438275Y-612775D02*
G54D22*
D03*
X1412875Y-612775D02*
G54D22*
D03*
X1387475Y-612775D02*
G54D22*
D03*
X1362075Y-612775D02*
G54D22*
D03*
X1336675Y-612775D02*
G54D22*
D03*
X1514475Y-638175D02*
G54D22*
D03*
X1489075Y-638175D02*
G54D22*
D03*
X1463675Y-638175D02*
G54D22*
D03*
X1438275Y-638175D02*
G54D22*
D03*
X1412875Y-638175D02*
G54D22*
D03*
X1387475Y-638175D02*
G54D22*
D03*
X1362075Y-638175D02*
G54D22*
D03*
X1336675Y-638175D02*
G54D22*
D03*
X1317625Y-659606D02*
G54D13*
D03*
G54D16*
X1317625Y-659606D02*
X1340644Y-659606D01*
X1362075Y-638175D01*
G54D16*
X1489075Y-612775D02*
X1504950Y-596900D01*
X1561306Y-596900D01*
X1580356Y-615950D01*
G54D16*
X1463675Y-612775D02*
X1479550Y-596900D01*
X1493838Y-596900D01*
X1500188Y-590550D01*
X1565275Y-590550D01*
X1576388Y-601662D01*
X1589881Y-601662D01*
X1604962Y-616744D01*
G54D16*
X2171700Y-403225D02*
X2174875Y-403225D01*
X2206625Y-371475D01*
X2206625Y-366712D01*
X2205038Y-365125D01*
G54D17*
X2026444Y-352425D02*
X2035175Y-361950D01*
X2079625Y-361950D01*
X2105025Y-336550D01*
X2127250Y-336550D01*
X2149475Y-314325D01*
X2174875Y-314325D01*
G36*
X1181894Y130969D02*
X1184275Y128588D01*
X1312862Y128588D01*
X1322388Y119062D01*
X1341438Y119062D01*
X1344612Y121444D01*
X1344612Y117475D01*
X1354931Y111125D01*
X1333500Y87312D01*
X1211262Y87312D01*
X1193800Y104775D01*
X1173162Y104775D01*
X1162050Y115888D01*
X1093788Y115888D01*
X1089819Y112712D01*
X1084262Y112712D01*
X1080294Y115094D01*
X1077912Y118269D01*
X1077912Y122238D01*
X1079500Y125412D01*
X1084262Y130175D01*
X1181894Y130969D01*
G37*
G54D21*
X1181894Y130969D02*
X1184275Y128588D01*
X1312862Y128588D01*
X1322388Y119062D01*
X1341438Y119062D01*
X1344612Y121444D01*
X1344612Y117475D01*
X1354931Y111125D01*
X1333500Y87312D01*
X1211262Y87312D01*
X1193800Y104775D01*
X1173162Y104775D01*
X1162050Y115888D01*
X1093788Y115888D01*
X1089819Y112712D01*
X1084262Y112712D01*
X1080294Y115094D01*
X1077912Y118269D01*
X1077912Y122238D01*
X1079500Y125412D01*
X1084262Y130175D01*
X1181894Y130969D01*
G54D17*
X593645Y485843D02*
X636519Y485843D01*
X636588Y485775D01*
G54D17*
X765175Y370681D02*
X744538Y370681D01*
X743744Y369888D01*
X678508Y369888D01*
X664290Y346938D01*
G36*
X2099469Y996156D02*
X2346325Y996156D01*
X2369344Y973138D01*
X2369344Y-594519D01*
X2264569Y-699294D01*
X104775Y-699294D01*
X2381Y-596900D01*
X2381Y-482600D01*
X8731Y-476250D01*
X122238Y-589756D01*
X129381Y-589756D01*
X133350Y-593725D01*
X133350Y-600869D01*
X141288Y-608806D01*
X177006Y-608806D01*
X184150Y-615950D01*
X279400Y-615950D01*
X287338Y-623888D01*
X287338Y-631825D01*
X301625Y-646112D01*
X430212Y-646112D01*
X451644Y-667544D01*
X1035844Y-667544D01*
X1122362Y-581025D01*
X1151731Y-581025D01*
X1219994Y-649288D01*
X1289050Y-649288D01*
X1312069Y-672306D01*
X1350169Y-672306D01*
X1387475Y-638175D01*
X1489075Y-638175D01*
X1504950Y-654050D01*
X1520031Y-654050D01*
X1528762Y-645319D01*
X1528762Y-638175D01*
X1536700Y-630238D01*
X1766094Y-630238D01*
X1798638Y-662781D01*
X1989138Y-662781D01*
X2054225Y-597694D01*
X2258219Y-597694D01*
X2293938Y-561975D01*
X2293938Y-512762D01*
X2312988Y-493712D01*
X2312988Y-484981D01*
X2315369Y-482600D01*
X2324100Y-482600D01*
X2339975Y-466725D01*
X2339975Y-443706D01*
X2319338Y-423069D01*
X2305050Y-423069D01*
X2296319Y-414338D01*
X2296319Y-323850D01*
X2340769Y-279400D01*
X2340769Y324644D01*
X2355850Y339725D01*
X2355850Y375444D01*
X2346325Y384969D01*
X2346325Y463550D01*
X2354262Y471488D01*
X2354262Y532606D01*
X2338388Y548481D01*
X2338388Y628650D01*
X2351088Y641350D01*
X2351088Y681831D01*
X2340769Y692150D01*
X2340769Y777875D01*
X2351088Y788194D01*
X2351088Y808038D01*
X2342356Y816769D01*
X2253456Y816769D01*
X2239169Y831056D01*
X2239169Y913606D01*
X2251075Y925512D01*
X2280444Y925512D01*
X2285206Y930275D01*
X2285206Y961231D01*
X2274888Y971550D01*
X2094706Y971550D01*
X2091531Y976312D01*
X2091531Y986631D01*
X2099469Y996156D01*
G37*
G54D21*
X2099469Y996156D02*
X2346325Y996156D01*
X2369344Y973138D01*
X2369344Y-594519D01*
X2264569Y-699294D01*
X104775Y-699294D01*
X2381Y-596900D01*
X2381Y-482600D01*
X8731Y-476250D01*
X122238Y-589756D01*
X129381Y-589756D01*
X133350Y-593725D01*
X133350Y-600869D01*
X141288Y-608806D01*
X177006Y-608806D01*
X184150Y-615950D01*
X279400Y-615950D01*
X287338Y-623888D01*
X287338Y-631825D01*
X301625Y-646112D01*
X430212Y-646112D01*
X451644Y-667544D01*
X1035844Y-667544D01*
X1122362Y-581025D01*
X1151731Y-581025D01*
X1219994Y-649288D01*
X1289050Y-649288D01*
X1312069Y-672306D01*
X1350169Y-672306D01*
X1387475Y-638175D01*
X1489075Y-638175D01*
X1504950Y-654050D01*
X1520031Y-654050D01*
X1528762Y-645319D01*
X1528762Y-638175D01*
X1536700Y-630238D01*
X1766094Y-630238D01*
X1798638Y-662781D01*
X1989138Y-662781D01*
X2054225Y-597694D01*
X2258219Y-597694D01*
X2293938Y-561975D01*
X2293938Y-512762D01*
X2312988Y-493712D01*
X2312988Y-484981D01*
X2315369Y-482600D01*
X2324100Y-482600D01*
X2339975Y-466725D01*
X2339975Y-443706D01*
X2319338Y-423069D01*
X2305050Y-423069D01*
X2296319Y-414338D01*
X2296319Y-323850D01*
X2340769Y-279400D01*
X2340769Y324644D01*
X2355850Y339725D01*
X2355850Y375444D01*
X2346325Y384969D01*
X2346325Y463550D01*
X2354262Y471488D01*
X2354262Y532606D01*
X2338388Y548481D01*
X2338388Y628650D01*
X2351088Y641350D01*
X2351088Y681831D01*
X2340769Y692150D01*
X2340769Y777875D01*
X2351088Y788194D01*
X2351088Y808038D01*
X2342356Y816769D01*
X2253456Y816769D01*
X2239169Y831056D01*
X2239169Y913606D01*
X2251075Y925512D01*
X2280444Y925512D01*
X2285206Y930275D01*
X2285206Y961231D01*
X2274888Y971550D01*
X2094706Y971550D01*
X2091531Y976312D01*
X2091531Y986631D01*
X2099469Y996156D01*
G36*
X958850Y139700D02*
X977900Y115094D01*
X977900Y94456D01*
X939800Y56356D01*
X856456Y56356D01*
X823912Y88900D01*
X769144Y88900D01*
X758031Y92075D01*
X758031Y96838D01*
X759619Y99219D01*
X762794Y100012D01*
X768350Y103188D01*
X782638Y103188D01*
X796925Y117475D01*
X822325Y117475D01*
X835025Y130175D01*
X835025Y139700D01*
X958850Y139700D01*
G37*
G54D21*
X958850Y139700D02*
X977900Y115094D01*
X977900Y94456D01*
X939800Y56356D01*
X856456Y56356D01*
X823912Y88900D01*
X769144Y88900D01*
X758031Y92075D01*
X758031Y96838D01*
X759619Y99219D01*
X762794Y100012D01*
X768350Y103188D01*
X782638Y103188D01*
X796925Y117475D01*
X822325Y117475D01*
X835025Y130175D01*
X835025Y139700D01*
X958850Y139700D01*
G36*
X711994Y384969D02*
X750094Y384969D01*
X831850Y307181D01*
X831850Y265112D01*
X835025Y261938D01*
X899319Y261938D01*
X903288Y265906D01*
X903288Y277812D01*
X894556Y286544D01*
X894556Y318294D01*
X874712Y338138D01*
X874712Y377031D01*
X856456Y395288D01*
X651669Y395288D01*
X650081Y396875D01*
X650081Y401638D01*
X648494Y403225D01*
X608806Y403225D01*
X600869Y395288D01*
X408781Y395288D01*
X402431Y401638D01*
X396875Y401638D01*
X390525Y395288D01*
X390525Y378619D01*
X392112Y377031D01*
X400050Y377031D01*
X400050Y381794D01*
X406400Y388144D01*
X426244Y388144D01*
X442912Y371475D01*
X489744Y371475D01*
X498475Y380206D01*
X513556Y380206D01*
X519112Y385762D01*
X533400Y385762D01*
X538956Y380206D01*
X563562Y380206D01*
X569119Y385762D01*
X583406Y385762D01*
X588962Y380206D01*
X605631Y380206D01*
X611188Y385762D01*
X711200Y385762D01*
X711994Y384969D01*
G37*
G54D21*
X711994Y384969D02*
X750094Y384969D01*
X831850Y307181D01*
X831850Y265112D01*
X835025Y261938D01*
X899319Y261938D01*
X903288Y265906D01*
X903288Y277812D01*
X894556Y286544D01*
X894556Y318294D01*
X874712Y338138D01*
X874712Y377031D01*
X856456Y395288D01*
X651669Y395288D01*
X650081Y396875D01*
X650081Y401638D01*
X648494Y403225D01*
X608806Y403225D01*
X600869Y395288D01*
X408781Y395288D01*
X402431Y401638D01*
X396875Y401638D01*
X390525Y395288D01*
X390525Y378619D01*
X392112Y377031D01*
X400050Y377031D01*
X400050Y381794D01*
X406400Y388144D01*
X426244Y388144D01*
X442912Y371475D01*
X489744Y371475D01*
X498475Y380206D01*
X513556Y380206D01*
X519112Y385762D01*
X533400Y385762D01*
X538956Y380206D01*
X563562Y380206D01*
X569119Y385762D01*
X583406Y385762D01*
X588962Y380206D01*
X605631Y380206D01*
X611188Y385762D01*
X711200Y385762D01*
X711994Y384969D01*
G36*
X286544Y996950D02*
X284162Y996950D01*
X224631Y937419D01*
X224631Y913606D01*
X227806Y910431D01*
X232569Y910431D01*
X237331Y915194D01*
X238919Y915194D01*
X297656Y973931D01*
X1023938Y973931D01*
X1029494Y968375D01*
X1029494Y936625D01*
X1027906Y935038D01*
X1027906Y929481D01*
X1031875Y925512D01*
X1042194Y925512D01*
X1046162Y929481D01*
X1046162Y968375D01*
X1051719Y973931D01*
X1373188Y973931D01*
X1378744Y968375D01*
X1378744Y948531D01*
X1376362Y946150D01*
X1376362Y941388D01*
X1380331Y937419D01*
X1392238Y937419D01*
X1397794Y942975D01*
X1397794Y947738D01*
X1394619Y950912D01*
X1394619Y968375D01*
X1400175Y973931D01*
X1717675Y973931D01*
X1726406Y965200D01*
X1726406Y939800D01*
X1730375Y935831D01*
X1739106Y935831D01*
X1742281Y939006D01*
X1742281Y950119D01*
X1740694Y951706D01*
X1740694Y965200D01*
X1749425Y973931D01*
X2056606Y973931D01*
X2070100Y960438D01*
X2070100Y920750D01*
X2074862Y915988D01*
X2082006Y915988D01*
X2085975Y919956D01*
X2085975Y986631D01*
X2075656Y996156D01*
X286544Y996950D01*
G37*
G54D21*
X286544Y996950D02*
X284162Y996950D01*
X224631Y937419D01*
X224631Y913606D01*
X227806Y910431D01*
X232569Y910431D01*
X237331Y915194D01*
X238919Y915194D01*
X297656Y973931D01*
X1023938Y973931D01*
X1029494Y968375D01*
X1029494Y936625D01*
X1027906Y935038D01*
X1027906Y929481D01*
X1031875Y925512D01*
X1042194Y925512D01*
X1046162Y929481D01*
X1046162Y968375D01*
X1051719Y973931D01*
X1373188Y973931D01*
X1378744Y968375D01*
X1378744Y948531D01*
X1376362Y946150D01*
X1376362Y941388D01*
X1380331Y937419D01*
X1392238Y937419D01*
X1397794Y942975D01*
X1397794Y947738D01*
X1394619Y950912D01*
X1394619Y968375D01*
X1400175Y973931D01*
X1717675Y973931D01*
X1726406Y965200D01*
X1726406Y939800D01*
X1730375Y935831D01*
X1739106Y935831D01*
X1742281Y939006D01*
X1742281Y950119D01*
X1740694Y951706D01*
X1740694Y965200D01*
X1749425Y973931D01*
X2056606Y973931D01*
X2070100Y960438D01*
X2070100Y920750D01*
X2074862Y915988D01*
X2082006Y915988D01*
X2085975Y919956D01*
X2085975Y986631D01*
X2075656Y996156D01*
X286544Y996950D01*
G36*
X781606Y75881D02*
X791606Y75881D01*
X791606Y55881D01*
X781606Y55881D01*
X781606Y75881D01*
G37*
G36*
X806212Y75881D02*
X816212Y75881D01*
X816212Y55881D01*
X806212Y55881D01*
X806212Y75881D01*
G37*
G36*
X831612Y75881D02*
X841612Y75881D01*
X841612Y55881D01*
X831612Y55881D01*
X831612Y75881D01*
G37*
G36*
X856219Y75881D02*
X866219Y75881D01*
X866219Y55881D01*
X856219Y55881D01*
X856219Y75881D01*
G37*
G36*
X855425Y52069D02*
X865425Y52069D01*
X865425Y32069D01*
X855425Y32069D01*
X855425Y52069D01*
G37*
G36*
X831612Y52069D02*
X841612Y52069D01*
X841612Y32069D01*
X831612Y32069D01*
X831612Y52069D01*
G37*
G36*
X806212Y51275D02*
X816212Y51275D01*
X816212Y31275D01*
X806212Y31275D01*
X806212Y51275D01*
G37*
G36*
X781606Y52069D02*
X791606Y52069D01*
X791606Y32069D01*
X781606Y32069D01*
X781606Y52069D01*
G37*
X823912Y22225D02*
G54D13*
D03*
G36*
X1556569Y-195288D02*
X1575569Y-195288D01*
X1575569Y-214288D01*
X1556569Y-214288D01*
X1556569Y-195288D01*
G37*
G36*
X1556569Y-220688D02*
X1575569Y-220688D01*
X1575569Y-239688D01*
X1556569Y-239688D01*
X1556569Y-220688D01*
G37*
X2355056Y913606D02*
G54D13*
D03*
G36*
X2303488Y384944D02*
X2322488Y384944D01*
X2322488Y365944D01*
X2303488Y365944D01*
X2303488Y384944D01*
G37*
G36*
X2304281Y410344D02*
X2323281Y410344D01*
X2323281Y391344D01*
X2304281Y391344D01*
X2304281Y410344D01*
G37*
G36*
X2304281Y437331D02*
X2323281Y437331D01*
X2323281Y418331D01*
X2304281Y418331D01*
X2304281Y437331D01*
G37*
G36*
X2304281Y462731D02*
X2323281Y462731D01*
X2323281Y443731D01*
X2304281Y443731D01*
X2304281Y462731D01*
G37*
X377825Y885031D02*
G54D14*
D03*
X351631Y881856D02*
G54D14*
D03*
X352425Y856456D02*
G54D14*
D03*
X327819Y881856D02*
G54D14*
D03*
X328612Y854869D02*
G54D14*
D03*
X167480Y791370D02*
G54D23*
D03*
X167480Y817560D02*
G54D23*
D03*
X166690Y846140D02*
G54D23*
D03*
X166690Y871540D02*
G54D23*
D03*
X166690Y903290D02*
G54D23*
D03*
G36*
X95250Y760412D02*
X95250Y774700D01*
X88106Y781844D01*
X9525Y781844D01*
X3969Y787400D01*
X3969Y965200D01*
X33338Y994569D01*
X240506Y994569D01*
X240506Y965200D01*
X216694Y941388D01*
X216694Y908050D01*
X221456Y903288D01*
X237331Y903288D01*
X300831Y966788D01*
X699294Y966788D01*
X725488Y940594D01*
X725488Y926306D01*
X721519Y922338D01*
X713581Y922338D01*
X707231Y928688D01*
X496094Y928688D01*
X477044Y947738D01*
X457200Y947738D01*
X431006Y921544D01*
X378619Y921544D01*
X354806Y945356D01*
X336550Y945356D01*
X329406Y938212D01*
X329406Y918369D01*
X268288Y857250D01*
X215900Y857250D01*
X184944Y888206D01*
X160338Y888206D01*
X149225Y877094D01*
X149225Y780256D01*
X172244Y757238D01*
X98425Y757238D01*
X95250Y760412D01*
G37*
G54D24*
X95250Y760412D02*
X95250Y774700D01*
X88106Y781844D01*
X9525Y781844D01*
X3969Y787400D01*
X3969Y965200D01*
X33338Y994569D01*
X240506Y994569D01*
X240506Y965200D01*
X216694Y941388D01*
X216694Y908050D01*
X221456Y903288D01*
X237331Y903288D01*
X300831Y966788D01*
X699294Y966788D01*
X725488Y940594D01*
X725488Y926306D01*
X721519Y922338D01*
X713581Y922338D01*
X707231Y928688D01*
X496094Y928688D01*
X477044Y947738D01*
X457200Y947738D01*
X431006Y921544D01*
X378619Y921544D01*
X354806Y945356D01*
X336550Y945356D01*
X329406Y938212D01*
X329406Y918369D01*
X268288Y857250D01*
X215900Y857250D01*
X184944Y888206D01*
X160338Y888206D01*
X149225Y877094D01*
X149225Y780256D01*
X172244Y757238D01*
X98425Y757238D01*
X95250Y760412D01*
M02*
