<?xml version="1.0" encoding="UTF-8" standalone="no"?>
<!-- Created with Inkscape (http://www.inkscape.org/) -->

<svg
   width="210mm"
   height="297mm"
   viewBox="0 0 210 297"
   version="1.1"
   id="svg25791"
   inkscape:version="1.1.2 (b8e25be833, 2022-02-05)"
   sodipodi:docname="ground_plane.svg"
   xmlns:inkscape="http://www.inkscape.org/namespaces/inkscape"
   xmlns:sodipodi="http://sodipodi.sourceforge.net/DTD/sodipodi-0.dtd"
   xmlns="http://www.w3.org/2000/svg"
   xmlns:svg="http://www.w3.org/2000/svg">
  <sodipodi:namedview
     id="namedview25793"
     pagecolor="#ffffff"
     bordercolor="#666666"
     borderopacity="1.0"
     inkscape:pageshadow="2"
     inkscape:pageopacity="0.0"
     inkscape:pagecheckerboard="0"
     inkscape:document-units="mm"
     showgrid="false"
     inkscape:zoom="0.42226431"
     inkscape:cx="1005.2945"
     inkscape:cy="560.07575"
     inkscape:window-width="1360"
     inkscape:window-height="705"
     inkscape:window-x="-4"
     inkscape:window-y="-4"
     inkscape:window-maximized="1"
     inkscape:current-layer="layer1" />
  <defs
     id="defs25788" />
  <g
     inkscape:label="Camada 1"
     inkscape:groupmode="layer"
     id="layer1">
    <path
       id="rect2444"
       style="fill:#000000;fill-opacity:1;stroke:none;stroke-width:0.453504;stroke-linecap:round;stroke-linejoin:round;stroke-dasharray:1.81403, 1.81403"
       d="m 105.08358,64.270996 v 1.043863 l 1.19424,0.841809 7.67602,0.08837 c 0.55624,0.803752 1.0598,1.624439 -0.47853,3.092318 l -2.50165,0.08526 -2.71818,2.784327 c -0.53672,0.822388 -0.70208,1.64516 -0.66559,2.467549 l -0.009,2.774508 c 0.2429,-0.789721 0.95969,-1.338668 1.78542,-1.367359 1.07074,5e-6 1.93867,0.868161 1.93839,1.938901 -1e-5,1.070539 -0.86785,1.938377 -1.93839,1.938383 -0.83072,-0.02907 -1.55043,-0.584547 -1.78904,-1.380795 l -0.25683,80.37132 c 0.16231,0.72329 -0.17632,1.41439 1.50275,2.23553 l 10.49962,0.11368 0.74466,-1.26865 -0.003,-13.97744 1.44901,-8.31526 0.0222,-6.22752 1.48725,-0.78135 5.5299,-0.11679 5.23327,-4.90254 3.61993,-0.0796 1.38751,-1.15083 -0.004,-4.17959 -2.01797,-1.87017 v 0.0832 h -2.31872 l -0.0434,0.002 v -0.002 h -0.40101 c -0.28763,0.24545 -0.6563,0.38897 -1.04748,0.39377 -0.90825,5e-5 -1.64462,-0.73609 -1.64486,-1.64434 0.019,-0.82529 0.64688,-1.50862 1.46761,-1.59732 -0.78129,-0.14243 -1.34923,-0.82278 -1.34979,-1.61695 -4e-5,-0.90825 0.7361,-1.64463 1.64435,-1.64487 0.90845,-4e-5 1.6449,0.73642 1.64486,1.64487 -2e-5,0.80112 -0.57724,1.48571 -1.36684,1.62108 0.26408,0.0669 0.50462,0.19767 0.70228,0.37724 h 2.02675 l 1.41903,-1.55598 c 0.54114,-1.86169 1.69205,-1.61989 2.96364,-0.96118 l 4.72892,-5.41362 0.0419,-1.92443 0.94774,-0.83199 1.84433,-0.001 0.0248,-0.57723 -1.90738,-0.0444 -0.70125,-0.63458 -0.006,-1.70429 0.8537,-1.42524 0.97668,0.0139 -0.01,-1.246444 -0.89246,-0.01344 -1.04437,-0.803569 -0.0305,-2.298568 -0.40772,-0.49816 0.0279,-2.534211 -3.47782,-3.405994 0.0253,-1.661398 1.29966,-1.46761 -0.0129,-9.51363 -1.29553,-1.409735 0.0171,-5.472533 -2.19315,-2.120802 h -17.41858 l -1.25315,-1.057299 0.1173,-3.211174 z m 7.51324,6.68228 c 1.08177,-2.57e-4 1.95879,0.87676 1.95853,1.958535 -2e-5,1.081575 -0.87696,1.958277 -1.95853,1.95802 -1.08138,-2.6e-5 -1.958,-0.876646 -1.95802,-1.95802 -2.6e-4,-1.081574 0.87644,-1.958509 1.95802,-1.958535 z m 6.86521,5.717997 c 0.82836,-9.2e-5 1.49997,0.671296 1.50017,1.499651 9e-5,0.828556 -0.67161,1.500259 -1.50017,1.500166 -0.82835,-1.93e-4 -1.49974,-0.671811 -1.49965,-1.500166 1.9e-4,-0.828154 0.6715,-1.499458 1.49965,-1.499651 z m 14.92053,2.427759 c 0.82856,-9.3e-5 1.50027,0.671607 1.50017,1.500166 -0.001,0.521473 -0.39737,1.12953 -0.84232,1.401466 0.66213,0.859618 2.06804,2.648818 2.93005,3.092834 0.54441,0.147836 0.92234,0.641998 0.92242,1.206127 3e-5,0.690398 -0.55965,1.250082 -1.25005,1.250053 -0.6904,2.9e-5 -1.25008,-0.559655 -1.25005,-1.250053 l 0.002,-0.01913 -2.18695,-2.27893 -6.04614,0.02016 -2.27377,-2.243791 c -0.0269,-0.02487 -0.053,-0.05073 -0.078,-0.07752 l -0.045,-0.04393 0.006,-5.29e-4 c -0.23588,-0.271634 -0.36628,-0.618998 -0.36742,-0.978752 2e-4,-0.828355 0.67182,-1.499743 1.50017,-1.49965 0.82815,1.93e-4 1.49946,0.671496 1.49965,1.49965 0,0.290216 -0.0842,0.574199 -0.24236,0.817523 l 1.33893,0.0181 c -0.16722,-0.246676 -0.25717,-0.537588 -0.25838,-0.835607 2e-4,-0.828153 0.6715,-1.499457 1.49965,-1.49965 0.82836,-9.3e-5 1.49998,0.671295 1.50017,1.49965 -4e-5,0.311751 -0.0972,0.615744 -0.27802,0.869715 l 1.27537,0.01707 c -0.22847,-0.269668 -0.35439,-0.611354 -0.35553,-0.964797 -9e-5,-0.828556 0.67162,-1.500259 1.50017,-1.500167 z m -19.97242,3.916039 c 0.48035,0.0024 0.93051,0.234659 1.21078,0.624769 0.28166,-0.392028 0.73478,-0.624546 1.2175,-0.624769 0.82835,1.94e-4 1.49974,0.671812 1.49965,1.500167 -0.0156,0.169741 -0.06,0.335584 -0.13126,0.49041 0.25661,-0.500319 0.77148,-0.815107 1.33377,-0.815454 0.82815,1.94e-4 1.49945,0.671494 1.49965,1.499648 -0.0175,0.35868 -0.16308,0.699183 -0.41031,0.959633 0.74935,0.30847 1.2385,1.038627 1.23868,1.848983 3e-5,0.127405 -0.0119,0.251796 -0.0346,0.372586 h 3.71605 c -0.0691,-0.172387 -0.10802,-0.360013 -0.108,-0.557072 -10e-5,-0.828556 0.67161,-1.500259 1.50016,-1.500167 0.82836,1.94e-4 1.49975,0.671812 1.49965,1.500167 2e-5,0.197011 -0.039,0.384717 -0.108,0.557072 h 0.0496 l -1.21181,1.780254 -3.44424,0.0011 10e-4,0.999939 7.95094,0.02429 2.35541,0.233061 0.39222,0.835607 v 4.28966 l -1.72341,1.848467 -5.06842,-0.0093 -0.97927,0.975651 -3.40393,0.03876 -2.62981,2.488737 -0.0305,0.4005 1.1374,1.10794 h 1.30741 l 0.54467,-0.72502 9.85676,-0.046 1.82212,1.76991 -0.0765,1.78749 c 0.60921,0.19065 1.05146,0.75938 1.05162,1.43144 9e-5,0.82856 -0.67161,1.50026 -1.50017,1.50017 -0.82855,9e-5 -1.50026,-0.67161 -1.50016,-1.50017 0,-0.009 0.001,-0.0178 0.002,-0.0269 l -0.60564,0.0155 c -0.0149,0.81555 -0.67948,1.47235 -1.49862,1.47226 -0.37331,-9e-5 -0.71371,-0.13758 -0.97617,-0.36329 l -1.7973,0.005 c -0.24578,0.17588 -0.54599,0.28064 -0.87127,0.28061 -0.82855,9e-5 -1.50026,-0.67162 -1.50017,-1.50017 0,-0.006 10e-4,-0.0124 10e-4,-0.0186 l -1.97507,-0.008 c 0.002,0.0304 0.005,0.0606 0.005,0.0915 -0.007,0.50721 -0.26983,0.97653 -0.69867,1.24747 0.77269,0.0702 1.36432,0.71809 1.36426,1.49397 -1.9e-4,0.82835 -0.67181,1.49974 -1.50017,1.49965 -0.82815,-1.9e-4 -1.49945,-0.6715 -1.49965,-1.49965 2.7e-4,-0.51912 0.26915,-1.00114 0.71055,-1.27434 -0.67864,-0.0559 -1.22163,-0.55826 -1.34823,-1.20613 l -0.17415,0.007 c -0.25217,0.44618 -0.72139,0.74296 -1.25212,0.76171 -0.43199,-1e-4 -0.82035,-0.18362 -1.094,-0.47594 l -0.71106,1.21543 c 0.51689,0.23672 0.8768,0.75756 0.87695,1.36323 9e-5,0.82835 -0.6713,1.49998 -1.49965,1.50016 -0.52435,-2.5e-4 -1.01047,-0.27444 -1.28209,-0.72295 -0.26549,0.46997 -0.763,0.76106 -1.30277,0.76223 -0.52221,-2.7e-4 -1.00667,-0.2722 -1.27899,-0.71779 -0.27135,0.33889 -0.67623,0.54359 -1.11001,0.56121 -0.82836,-1.9e-4 -1.49974,-0.67181 -1.49965,-1.50017 -1e-5,-0.0611 0.005,-0.12114 0.0119,-0.18035 l -0.11679,0.007 -0.11059,-7.16287 1.14825,-0.59738 3.45147,-0.062 -0.0791,-0.98185 -2.1947,-3.175522 -1.09399,-0.07028 -1.09916,-0.751893 -0.0269,-7.487399 c 0.19428,-0.609319 0.35763,-1.225195 1.05833,-1.733227 h 6.23632 c -0.0228,-0.12079 -0.0346,-0.245181 -0.0346,-0.372586 5.3e-4,-0.637138 0.30447,-1.235932 0.81856,-1.612305 -0.39444,-0.27247 -0.63489,-0.717063 -0.64699,-1.196311 2.6e-4,-0.127145 0.0168,-0.253735 0.0491,-0.376719 -0.27078,0.431287 -0.74188,0.695735 -1.25109,0.702281 -0.49216,-1.61e-4 -0.95295,-0.24175 -1.23299,-0.646472 -0.27237,0.393956 -0.7165,0.634161 -1.19528,0.646472 -0.82835,-1.93e-4 -1.49974,-0.671811 -1.49965,-1.500166 -9e-5,-0.828355 0.6713,-1.499973 1.49965,-1.500167 z m 18.56373,1.113626 c 0.82856,-9.2e-5 1.50026,0.671611 1.50016,1.500169 1e-4,0.828556 -0.67161,1.500259 -1.50016,1.500167 -0.006,-1.38e-4 -0.0124,-2.33e-4 -0.0186,-5.3e-4 0.33987,0.283851 0.53696,0.703371 0.53847,1.146186 9e-5,0.828556 -0.67161,1.500259 -1.50017,1.500166 -0.82835,-1.93e-4 -1.49974,-0.671811 -1.49965,-1.500166 -9e-5,-0.828357 0.67129,-1.499976 1.49965,-1.500169 0.005,5.29e-4 0.01,0.0011 0.015,0.0016 -0.3388,-0.284774 -0.53455,-0.704631 -0.53486,-1.147215 -9e-5,-0.828559 0.67161,-1.500262 1.50017,-1.500169 z m -8.61653,0.1788 c 0.82856,-8.4e-5 1.50026,0.671611 1.50016,1.500169 -1.9e-4,0.828355 -0.67181,1.499743 -1.50016,1.499651 -0.82836,9.2e-5 -1.49997,-0.671296 -1.50017,-1.499651 -9e-5,-0.828558 0.67161,-1.500253 1.50017,-1.500169 z m 8.69404,24.998473 c 0.82815,2e-4 1.49946,0.6715 1.49965,1.49965 9e-5,0.82836 -0.6713,1.49998 -1.49965,1.50017 -0.82856,9e-5 -1.50026,-0.67161 -1.50017,-1.50017 2e-4,-0.82835 0.67182,-1.49974 1.50017,-1.49965 z m -9.98544,3.27629 c 0.82836,-9e-5 1.49998,0.67129 1.50017,1.49965 9e-5,0.82855 -0.67161,1.50026 -1.50017,1.50017 -0.82855,9e-5 -1.50025,-0.67162 -1.50016,-1.50017 1.9e-4,-0.82836 0.67181,-1.49974 1.50016,-1.49965 z m -3.1228,2.01693 c 0.98205,0.003 1.81658,0.71869 1.96939,1.68879 0.28203,-0.29086 0.66973,-0.45525 1.07487,-0.45579 0.82855,-9e-5 1.50026,0.67161 1.50016,1.50016 1e-4,0.82856 -0.6716,1.50027 -1.50016,1.50017 -0.0523,-2e-5 -0.0993,-0.0195 -0.15038,-0.0248 l -1.7446,1.38337 c -0.12916,0.69718 -0.73822,1.22585 -1.47278,1.22577 -0.26702,-5.3e-4 -0.52908,-0.0722 -0.75912,-0.20774 -0.006,0.9026 -0.73863,1.63157 -1.64125,1.63349 -0.90845,5e-5 -1.6449,-0.73641 -1.64486,-1.64486 -4e-5,-0.90845 0.73641,-1.64491 1.64486,-1.64486 0.32369,0.003 0.63917,0.1023 0.90692,0.28422 0.0574,-0.66021 0.5412,-1.20452 1.19011,-1.33894 -0.81928,-0.27046 -1.37278,-1.03582 -1.37304,-1.89859 -2.2e-4,-1.10467 0.8952,-2.00033 1.99988,-2.00039 z m -7.89461,4.91443 c 0.90845,-4e-5 1.6449,0.73641 1.64486,1.64486 4e-5,0.90845 -0.73641,1.64491 -1.64486,1.64486 -0.90825,-2.4e-4 -1.64439,-0.73661 -1.64435,-1.64486 -4e-5,-0.90825 0.7361,-1.64463 1.64435,-1.64486 z m 1.45624,5.83944 c 0.95579,3e-5 1.73061,0.77484 1.73065,1.73064 2.5e-4,0.956 -0.77465,1.73113 -1.73065,1.73116 -0.95599,-4e-5 -1.73089,-0.77517 -1.73064,-1.73116 3e-5,-0.9558 0.77485,-1.73061 1.73064,-1.73064 z m 9.81594,0.27698 c 0.90229,1.6e-4 1.63362,0.73172 1.63349,1.63401 -1.6e-4,0.90208 -0.7314,1.63333 -1.63349,1.63349 -0.90229,1.3e-4 -1.63385,-0.7312 -1.63401,-1.63349 -1.2e-4,-0.90249 0.73152,-1.63413 1.63401,-1.63401 z" />
  </g>
</svg>
